<svg xmlns="http://www.w3.org/2000/svg" xmlns:xlink="http://www.w3.org/1999/xlink" width="86" height="86" viewBox="0 0 86 86">
  <defs>
    <filter id="Elipse_11513" x="0" y="0" width="86" height="86" filterUnits="userSpaceOnUse">
      <feOffset dy="3" input="SourceAlpha"/>
      <feGaussianBlur stdDeviation="3" result="blur"/>
      <feFlood flood-opacity="0.161"/>
      <feComposite operator="in" in2="blur"/>
      <feComposite in="SourceGraphic"/>
    </filter>
  </defs>
  <g id="Grupo_1147119" data-name="Grupo 1147119" transform="translate(-608 -2191.8)">
    <g id="Grupo_1147100" data-name="Grupo 1147100" transform="translate(422.138 -6040.75)">
      <g id="Grupo_1144077" data-name="Grupo 1144077" transform="translate(-1.138 7782.55)">
        <g id="Grupo_1143465" data-name="Grupo 1143465" transform="translate(0 -707)">
          <g transform="matrix(1, 0, 0, 1, 187, 1157)" filter="url(#Elipse_11513)">
            <g id="Elipse_11513-2" data-name="Elipse 11513" transform="translate(9 6)" fill="#e6f0fc" stroke="#1169e3" stroke-width="3">
              <circle cx="34" cy="34" r="34" stroke="none"/>
              <circle cx="34" cy="34" r="32.5" fill="none"/>
            </g>
          </g>
        </g>
      </g>
    </g>
    <g id="proteccion" transform="translate(628.512 2206.283)">
      <path id="Trazado_982460" data-name="Trazado 982460" d="M106.03,10.008,93.16,12.877v9.452A19.551,19.551,0,0,0,106.03,40.7,19.55,19.55,0,0,0,118.9,22.329V12.877Zm0,0" transform="translate(-83.424 -9.009)" fill="#fcdd6d"/>
      <path id="Trazado_982461" data-name="Trazado 982461" d="M130.168,49.972l9.181-2.047,9.181,2.047v6.5a15.866,15.866,0,0,1-9.181,14.388,15.865,15.865,0,0,1-9.181-14.388Zm0,0" transform="translate(-116.743 -43.147)" fill="#e1f4fd"/>
      <path id="Trazado_982462" data-name="Trazado 982462" d="M27.682,234.448v-6.912a7.012,7.012,0,0,0-1.432-4.245L22.226,218a2.2,2.2,0,1,0-3.5,2.675l1.683,2.192-3.779-4.922a2.943,2.943,0,0,1-.609-1.793v-8.992a2.335,2.335,0,0,0-4.659-.22L10.3,218.193a2.945,2.945,0,0,0,.584,2.056l8.678,11.3v2.9Zm0,0" transform="translate(-8.807 -184.411)" fill="#e8c499"/>
      <path id="Trazado_982463" data-name="Trazado 982463" d="M265.034,234.449v-2.9l8.678-11.3a2.945,2.945,0,0,0,.584-2.056l-1.067-11.251a2.335,2.335,0,0,0-4.659.22v8.992a2.945,2.945,0,0,1-.609,1.793l-3.78,4.922,1.684-2.192a2.2,2.2,0,1,0-3.5-2.675l-4.024,5.288a7.011,7.011,0,0,0-1.431,4.245v6.912Zm0,0" transform="translate(-230.853 -184.411)" fill="#e8c499"/>
      <path id="Trazado_982464" data-name="Trazado 982464" d="M107.394,25.108a20.448,20.448,0,0,0,3.718-11.788V3.868a1,1,0,0,0-.78-.973L97.462.026a1.006,1.006,0,0,0-.434,0L84.159,2.895a1,1,0,0,0-.78.973V13.32A20.548,20.548,0,0,0,96.9,32.631a1,1,0,0,0,.681,0,20.449,20.449,0,0,0,9.808-7.522ZM97.245,30.629A18.555,18.555,0,0,1,85.372,13.32V4.666L97.245,2.02l11.873,2.647V13.32a18.555,18.555,0,0,1-11.873,17.31Zm0,0" transform="translate(-74.618)"/>
      <path id="Trazado_982465" data-name="Trazado 982465" d="M140.742,40.962a1,1,0,0,0-.78-.973l-9.181-2.047a1.008,1.008,0,0,0-.434,0l-9.181,2.047a1,1,0,0,0,.434,1.946l8.964-2,8.184,1.824v5.7a14.87,14.87,0,0,1-8.184,13.281,14.874,14.874,0,0,1-8.138-12.1c-.018-.22-.03-.442-.037-.66a1,1,0,1,0-1.992.069c.009.248.023.5.042.748a16.866,16.866,0,0,0,9.707,13.952,1,1,0,0,0,.837,0,16.862,16.862,0,0,0,9.759-15.292v-6.5Zm0,0" transform="translate(-107.937 -34.138)"/>
      <path id="Trazado_982466" data-name="Trazado 982466" d="M169.213,111.661a1,1,0,0,0,.695.351l.067,0a1,1,0,0,0,.668-.257l7.226-6.538a1,1,0,1,0-1.337-1.478l-6.462,5.846-1.844-2.181a1,1,0,0,0-1.522,1.287Zm0,0" transform="translate(-149.424 -93.167)"/>
      <path id="Trazado_982467" data-name="Trazado 982467" d="M14.234,208.389a3.194,3.194,0,0,0-5.305.323l-.293-.382a1.956,1.956,0,0,1-.4-1.186v-8.992a3.332,3.332,0,0,0-6.648-.315L.518,209.088a3.935,3.935,0,0,0,.786,2.757l8.472,11.032v2.56a1,1,0,0,0,1.993,0v-2.9a1,1,0,0,0-.206-.607L2.889,210.636a1.943,1.943,0,0,1-.386-1.36l1.067-11.25a1.338,1.338,0,0,1,2.67.126v8.992a3.96,3.96,0,0,0,.816,2.4l2.086,2.717.009.013,1.683,2.192a1,1,0,1,0,1.581-1.214l-1.689-2.2a1.211,1.211,0,0,1,.211-1.67,1.2,1.2,0,0,1,1.71.213l4.024,5.288a6.048,6.048,0,0,1,1.228,3.642v6.912a1,1,0,1,0,1.993,0v-6.912a8.053,8.053,0,0,0-1.635-4.849Zm0,0" transform="translate(0 -175.401)"/>
      <path id="Trazado_982468" data-name="Trazado 982468" d="M266.5,209.088l-1.067-11.251a3.332,3.332,0,0,0-6.648.315v8.992a1.959,1.959,0,0,1-.4,1.186l-.293.382a3.2,3.2,0,0,0-5.3-.323l-4.024,5.288a8.054,8.054,0,0,0-1.635,4.849v6.911a1,1,0,0,0,1.993,0v-6.912a6.048,6.048,0,0,1,1.228-3.642l4.024-5.288a1.205,1.205,0,0,1,1.921,1.457l-1.689,2.2a1,1,0,0,0,1.581,1.214l1.683-2.192.009-.012,2.087-2.718a3.964,3.964,0,0,0,.815-2.4v-8.992a1.338,1.338,0,0,1,2.67-.126l1.067,11.25a1.941,1.941,0,0,1-.383,1.355l-8.678,11.3a1,1,0,0,0-.206.607v2.9a1,1,0,0,0,1.993,0v-2.56l8.476-11.037a3.933,3.933,0,0,0,.782-2.752Zm0,0" transform="translate(-222.044 -175.401)"/>
      <path id="Trazado_982469" data-name="Trazado 982469" d="M120.853,95.609a1,1,0,1,0-.373-1.195,1.005,1.005,0,0,0,.373,1.195Zm0,0" transform="translate(-107.96 -84.434)"/>
    </g>
  </g>
</svg>
