<svg xmlns="http://www.w3.org/2000/svg" xmlns:xlink="http://www.w3.org/1999/xlink" width="86" height="86" viewBox="0 0 86 86">
  <defs>
    <filter id="Elipse_11513" x="0" y="0" width="86" height="86" filterUnits="userSpaceOnUse">
      <feOffset dy="3" input="SourceAlpha"/>
      <feGaussianBlur stdDeviation="3" result="blur"/>
      <feFlood flood-opacity="0.161"/>
      <feComposite operator="in" in2="blur"/>
      <feComposite in="SourceGraphic"/>
    </filter>
  </defs>
  <g id="Grupo_1147125" data-name="Grupo 1147125" transform="translate(-1028 -2191.8)">
    <g id="Grupo_1147101" data-name="Grupo 1147101" transform="translate(842.138 -6040.75)">
      <g id="Grupo_1144077" data-name="Grupo 1144077" transform="translate(-1.138 7782.55)">
        <g id="Grupo_1143465" data-name="Grupo 1143465" transform="translate(0 -707)">
          <g transform="matrix(1, 0, 0, 1, 187, 1157)" filter="url(#Elipse_11513)">
            <g id="Elipse_11513-2" data-name="Elipse 11513" transform="translate(9 6)" fill="#e6f0fc" stroke="#1169e3" stroke-width="3">
              <circle cx="34" cy="34" r="34" stroke="none"/>
              <circle cx="34" cy="34" r="32.5" fill="none"/>
            </g>
          </g>
        </g>
      </g>
    </g>
    <g id="programador" transform="translate(1048.242 2205.8)">
      <path id="Trazado_982470" data-name="Trazado 982470" d="M130.145,223.84v5.153l5.675.178v0l.006,0v-5.348A6.8,6.8,0,0,1,130.145,223.84Z" transform="translate(-118.556 -203.953)" fill="#eab883"/>
      <path id="Trazado_982471" data-name="Trazado 982471" d="M132.808,224.691a6.568,6.568,0,0,1-2.663-.609v5.153l3.258.1-.412-1.14C132.7,227.383,132.852,226.937,132.808,224.691Z" transform="translate(-118.556 -204.195)" fill="#dda36f"/>
      <path id="Trazado_982472" data-name="Trazado 982472" d="M139.809,268.759a4.062,4.062,0,0,1-4.765-.028l-.037-.027v5.683h4.879V268.7Z" transform="translate(-122.987 -244.857)" fill="#efefef"/>
      <path id="Trazado_982473" data-name="Trazado 982473" d="M139.022,273.283l-1.364-3.771a4.231,4.231,0,0,1-2.65-.807v5.683h2.68C138.153,274.048,139.022,273.283,139.022,273.283Z" transform="translate(-122.987 -244.858)" fill="#ddd"/>
      <path id="Trazado_982474" data-name="Trazado 982474" d="M34.942,282.711,32.6,268.161a3.2,3.2,0,0,0-2.442-2.482h0l-2.615-.724-.319-.188-5.242,4.7v0a.782.782,0,0,1-1.464,0v0l-5.242-4.7-.319.188-2.615.723h0A3.2,3.2,0,0,0,9.9,268.161l-2.341,14.55a2.823,2.823,0,0,0,2.768,3.332H32.174A2.823,2.823,0,0,0,34.942,282.711Z" transform="translate(-6.817 -241.269)" fill="#70b5e8"/>
      <g id="Grupo_1147120" data-name="Grupo 1147120" transform="translate(0.706 21.653)">
        <path id="Trazado_982475" data-name="Trazado 982475" d="M10.221,289.346l2.341-15.793a3.068,3.068,0,0,1,.744-1.505l-.959.265h0A3.2,3.2,0,0,0,9.9,274.8l-2.341,14.55a2.823,2.823,0,0,0,2.768,3.332h2.657A2.823,2.823,0,0,1,10.221,289.346Z" transform="translate(-7.524 -269.557)" fill="#52a5d8"/>
        <path id="Trazado_982476" data-name="Trazado 982476" d="M96.887,250.529l-5.561-4.511,3.445-2.032v1.079Z" transform="translate(-83.889 -243.985)" fill="#52a5d8"/>
        <path id="Trazado_982477" data-name="Trazado 982477" d="M170.455,250.529l5.561-4.511-3.457-2.032v1.079Z" transform="translate(-155.995 -243.985)" fill="#52a5d8"/>
      </g>
      <path id="Trazado_982478" data-name="Trazado 982478" d="M108.795,414.074v3.24h6.873v-3.24a1.918,1.918,0,0,1,1.453-1.857,3.894,3.894,0,0,1-1.853-2.754.8.8,0,0,0-.782-.64h-4.561a.8.8,0,0,0-.782.641,3.9,3.9,0,0,1-1.836,2.745A1.918,1.918,0,0,1,108.795,414.074Z" transform="translate(-97.746 -372.54)" fill="#a4d9f4"/>
      <path id="Trazado_982479" data-name="Trazado 982479" d="M111.092,417.314V414.15a2.046,2.046,0,0,0-.388-1.2,1.673,1.673,0,0,1,.016-1.916,5.234,5.234,0,0,0,.747-1.842.869.869,0,0,1,.175-.369h-1.715a.8.8,0,0,0-.782.641,3.9,3.9,0,0,1-1.836,2.745,1.918,1.918,0,0,1,1.487,1.866v3.24Z" transform="translate(-97.747 -372.54)" fill="#84c7ef"/>
      <g id="Grupo_1147121" data-name="Grupo 1147121" transform="translate(10.561 41.063)">
        <path id="Trazado_982480" data-name="Trazado 982480" d="M166.107,462.688h-.175a3.722,3.722,0,0,0-3.711,3.711h3.885v-3.711Z" transform="translate(-158.346 -462.688)" fill="#eab883"/>
        <path id="Trazado_982481" data-name="Trazado 982481" d="M118.563,462.688V466.4h3.875a3.722,3.722,0,0,0-3.711-3.711Z" transform="translate(-118.563 -462.688)" fill="#eab883"/>
      </g>
      <g id="Grupo_1147122" data-name="Grupo 1147122" transform="translate(10.561 42.918)">
        <path id="Trazado_982482" data-name="Trazado 982482" d="M162.222,485.449h3.885v-1.855h-3.384A3.678,3.678,0,0,0,162.222,485.449Z" transform="translate(-158.347 -483.594)" fill="#dda36f"/>
        <path id="Trazado_982483" data-name="Trazado 982483" d="M118.563,483.594v1.855h3.875a3.679,3.679,0,0,0-.5-1.855Z" transform="translate(-118.563 -483.594)" fill="#dda36f"/>
      </g>
      <path id="Trazado_982484" data-name="Trazado 982484" d="M79.785,9.956a1.037,1.037,0,0,1-.59-.361c-2.309-2.878-8.449-2.639-11.642.554-2.942,2.942-1.314,7.636-1.314,7.636H82.506C83.928,11.816,80.876,10.194,79.785,9.956Z" transform="translate(-59.912 -6.912)" fill="#93482b"/>
      <path id="Trazado_982485" data-name="Trazado 982485" d="M71.589,10.15A9.027,9.027,0,0,1,76.107,7.8a9.6,9.6,0,0,0-8.553,2.345c-2.942,2.942-1.314,7.636-1.314,7.636h4.035S68.647,13.092,71.589,10.15Z" transform="translate(-59.912 -6.914)" fill="#843d26"/>
      <g id="Grupo_1147123" data-name="Grupo 1147123" transform="translate(5.543 10.07)">
        <path id="Trazado_982486" data-name="Trazado 982486" d="M62.812,113.852l0,0a1.607,1.607,0,0,0,0,2.77l0,0a2.377,2.377,0,0,0,1.324.39v-3.544h0A2.377,2.377,0,0,0,62.812,113.852Z" transform="translate(-62.018 -113.462)" fill="#eab883"/>
        <path id="Trazado_982487" data-name="Trazado 982487" d="M240.4,113.853l0,0a1.736,1.736,0,0,1,.767,1.114v.007c0,.026.009.053.012.079,0,.007,0,.015,0,.022,0,.023,0,.045.006.068s0,.04,0,.061,0,.02,0,.031v0c0,.01,0,.02,0,.031s0,.041,0,.061,0,.046-.006.068c0,.007,0,.015,0,.022,0,.027-.007.053-.012.079v.007a1.736,1.736,0,0,1-.767,1.114l0,0a2.377,2.377,0,0,1-1.324.39v-3.544A2.4,2.4,0,0,1,240.4,113.853Z" transform="translate(-223.36 -113.464)" fill="#eab883"/>
      </g>
      <g id="Grupo_1147124" data-name="Grupo 1147124" transform="translate(5.542 11.044)">
        <path id="Trazado_982488" data-name="Trazado 982488" d="M62.805,125.034a1.88,1.88,0,0,1-.565-.588,1.592,1.592,0,0,0,.565,2.182l0,0a2.377,2.377,0,0,0,1.324.39v-1.594a2.376,2.376,0,0,1-1.324-.39Z" transform="translate(-62.013 -124.446)" fill="#dda36f"/>
        <path id="Trazado_982489" data-name="Trazado 982489" d="M241.191,125.209c0-.02,0-.041,0-.061s0-.046-.006-.068c0-.007,0-.015,0-.022,0-.027-.007-.053-.012-.079v-.007a1.566,1.566,0,0,0-.2-.527,1.877,1.877,0,0,1-.565.588l0,0a2.377,2.377,0,0,1-1.324.39v1.594a2.377,2.377,0,0,0,1.324-.39l0,0a1.735,1.735,0,0,0,.767-1.114v-.007c0-.026.009-.053.012-.079,0-.007,0-.015,0-.022,0-.023,0-.045.006-.068s0-.04,0-.061,0-.02,0-.031v0C241.193,125.23,241.192,125.22,241.191,125.209Z" transform="translate(-223.36 -124.445)" fill="#dda36f"/>
      </g>
      <path id="Trazado_982490" data-name="Trazado 982490" d="M99.284,102.487V100.2a2.929,2.929,0,0,1-2.7-1.055.6.6,0,0,0-.83-.123c-1.609,1.166-6.143,2.97-10.081,1.178v1.3h-.008a27.839,27.839,0,0,0,.191,4.422,6.808,6.808,0,0,0,13.431-1.574c0-.77,0-1.381,0-1.869h0Z" transform="translate(-78.017 -90.135)" fill="#f7cf9c"/>
      <path id="Trazado_982491" data-name="Trazado 982491" d="M88.492,119.188a27.837,27.837,0,0,1-.191-4.422h.008v-.6a8.45,8.45,0,0,1-2.639-.7v1.3h-.008a27.851,27.851,0,0,0,.191,4.422,6.756,6.756,0,0,0,7.873,5.105A6.84,6.84,0,0,1,88.492,119.188Z" transform="translate(-78.017 -103.393)" fill="#eab883"/>
      <path id="Trazado_982492" data-name="Trazado 982492" d="M252.984,229.263c-23.99,0-22.393-.047-22.721.132a1.093,1.093,0,0,0-.572.962v17.478a1.094,1.094,0,0,0,1.094,1.094h22.2a1.094,1.094,0,0,0,1.094-1.094V230.357A1.24,1.24,0,0,0,252.984,229.263Z" transform="translate(-209.267 -208.911)" fill="#efefef"/>
      <path id="Trazado_982493" data-name="Trazado 982493" d="M233.5,247.845V230.367a1.094,1.094,0,0,1,1.094-1.094c-3.854.044-3.9-.1-4.326.132a1.093,1.093,0,0,0-.572.962v17.478a1.094,1.094,0,0,0,1.094,1.094h3.8A1.094,1.094,0,0,1,233.5,247.845Z" transform="translate(-209.267 -208.921)" fill="#ddd"/>
      <path id="Trazado_982494" data-name="Trazado 982494" d="M314.859,79.936H300.643A1.068,1.068,0,0,0,299.578,81v7.187a1.068,1.068,0,0,0,1.065,1.065h12.513a1.169,1.169,0,0,1,.787.3l1.037.943a.564.564,0,0,0,.944-.418V81A1.068,1.068,0,0,0,314.859,79.936Z" transform="translate(-272.952 -72.842)" fill="#ffb70d"/>
      <path id="Trazado_982495" data-name="Trazado 982495" d="M302.537,88.188V81a1.068,1.068,0,0,1,1.065-1.065h-2.958A1.068,1.068,0,0,0,299.579,81v7.187a1.068,1.068,0,0,0,1.065,1.065H303.6A1.068,1.068,0,0,1,302.537,88.188Z" transform="translate(-272.953 -72.842)" fill="#f4a403"/>
      <circle id="Elipse_11630" data-name="Elipse 11630" cx="1.444" cy="1.444" r="1.444" transform="translate(31.157 23.922)" fill="#ccc"/>
      <path id="Trazado_982496" data-name="Trazado 982496" d="M352.059,269.56a1.443,1.443,0,1,0,1.249,2.163A1.442,1.442,0,0,1,352.059,269.56Z" transform="translate(-319.458 -245.637)" fill="#bcbbb8"/>
      <path id="Trazado_982497" data-name="Trazado 982497" d="M344.828,351.957V338.424a0,0,0,0,0,0,0h-4.993a0,0,0,0,0,0,0v13.532Z" transform="translate(-309.633 -308.387)" fill="#ddd"/>
      <path id="Trazado_982498" data-name="Trazado 982498" d="M342.33,338.424a0,0,0,0,1,0,0h-2.5a0,0,0,0,0,0,0v13.532h2.5Z" transform="translate(-309.633 -308.387)" fill="#ccc"/>
      <path id="Trazado_982499" data-name="Trazado 982499" d="M323.455,478.563h0a1.2,1.2,0,0,0-1.2-1.2h-7.006a1.2,1.2,0,0,0-1.2,1.2h0a1.2,1.2,0,0,0,1.2,1.2h7.006A1.2,1.2,0,0,0,323.455,478.563Z" transform="translate(-286.131 -434.993)" fill="#efefef"/>
      <path id="Trazado_982500" data-name="Trazado 982500" d="M317.622,478.563h0a1.2,1.2,0,0,1,1.2-1.2h-3.581a1.2,1.2,0,0,0-1.2,1.2h0a1.2,1.2,0,0,0,1.2,1.2h3.581A1.2,1.2,0,0,1,317.622,478.563Z" transform="translate(-286.132 -434.993)" fill="#ddd"/>
      <path id="Trazado_982501" data-name="Trazado 982501" d="M343.117,264.157a2.109,2.109,0,1,0,2.109-2.109A2.112,2.112,0,0,0,343.117,264.157Zm2.887,0a.778.778,0,1,1-.778-.778A.779.779,0,0,1,346,264.157Z" transform="translate(-312.627 -238.792)"/>
      <path id="Trazado_982502" data-name="Trazado 982502" d="M254.167,410.5a.666.666,0,1,0,0,1.331h2.048a.666.666,0,1,0,0-1.331Z" transform="translate(-230.964 -374.071)"/>
      <path id="Trazado_982503" data-name="Trazado 982503" d="M303.09,410.7a.672.672,0,0,0-.6-.182.659.659,0,0,0-.124.038.68.68,0,0,0-.115.061.648.648,0,0,0-.184.184.684.684,0,0,0-.1.24.663.663,0,0,0,.4.745.664.664,0,0,0,.869-.869A.888.888,0,0,0,303.09,410.7Z" transform="translate(-275.118 -374.073)"/>
      <path id="Trazado_982504" data-name="Trazado 982504" d="M335.672,104.964a.666.666,0,0,0-.941,0l-1.642,1.642a.665.665,0,0,0,0,.941l1.642,1.642a.666.666,0,1,0,.941-.941l-1.172-1.172,1.172-1.172A.666.666,0,0,0,335.672,104.964Z" transform="translate(-303.311 -95.471)"/>
      <path id="Trazado_982505" data-name="Trazado 982505" d="M413.9,109.385c.476,0,.515-.326,2.113-1.837a.665.665,0,0,0,0-.941l-1.642-1.642a.666.666,0,1,0-.941.941l1.172,1.172-1.172,1.172A.666.666,0,0,0,413.9,109.385Z" transform="translate(-376.52 -95.471)"/>
      <path id="Trazado_982506" data-name="Trazado 982506" d="M373,96.811l-1.845,5.068a.666.666,0,1,0,1.251.455l1.845-5.068A.666.666,0,1,0,373,96.811Z" transform="translate(-338.141 -87.82)"/>
      <path id="Trazado_982507" data-name="Trazado 982507" d="M43.715,19.686c-23.135.075-22.305-.186-23.039.213a1.759,1.759,0,0,0-.92,1.546v.941l-1.821-1.108V20.81a7.331,7.331,0,0,0,3.983-6.591v-.01a2.95,2.95,0,0,0,.965-.39.66.66,0,0,0,.068-.04A2.344,2.344,0,0,0,24.036,11.9a2.24,2.24,0,0,0-.718-1.7c.528-2.484.35-4.454-.532-5.859A4.375,4.375,0,0,0,20,2.393a.374.374,0,0,1-.213-.127C17.912-.071,13.748-.689,10.1.829a.666.666,0,0,0,.512,1.229C13.682.78,17.256,1.237,18.749,3.1a1.709,1.709,0,0,0,.967.594,3.052,3.052,0,0,1,1.943,1.357A6.279,6.279,0,0,1,22.1,9.518a2.825,2.825,0,0,0-1.014-.1A2.244,2.244,0,0,1,19.072,8.6a1.268,1.268,0,0,0-1.744-.25C15.848,9.426,11.64,11.1,8,9.5a.658.658,0,0,0-.355-.1.434.434,0,0,0-.056,0,3.138,3.138,0,0,0-.853.129A6.046,6.046,0,0,1,8.2,3.608h0a.666.666,0,1,0-.921-.961,7.415,7.415,0,0,0-1.736,7.586C4.167,11.608,4.954,13.8,7,14.214a10.68,10.68,0,0,0,.177,1.734,7.388,7.388,0,0,0,1.6,3.138,7.615,7.615,0,0,0,2.148,1.742v.445L7.88,23.068,5.3,23.782a3.8,3.8,0,0,0-2.868,2.979l0,.025L.088,41.336a3.542,3.542,0,0,0,3.5,4.1H25.356a3.464,3.464,0,0,0,2.222-.8,1.869,1.869,0,0,0,1.535.8h7.006a1.87,1.87,0,0,0,0-3.74h-.259V40.683h2.67a.666.666,0,0,0,0-1.331h-2.67V30.611a.666.666,0,0,0-.328-1.244h-5.75a.666.666,0,0,0-.25,1.282v8.7c-8.848,0-8.154.039-8.319-.126-.181-.181-.125.89-.125-17.78a.428.428,0,0,1,.428-.428c23.651.018,22.224-.046,22.4.051a.429.429,0,0,1,.224.377V38.924a.428.428,0,0,1-.224.377c-.166.09-.114.034-2.284.051a.666.666,0,0,0,0,1.331c1.98-.055,2.6.211,3.324-.515a1.747,1.747,0,0,0,.515-1.244V21.445A1.759,1.759,0,0,0,43.715,19.686ZM17.861,40.408a4.378,4.378,0,0,0-3.426,2.05,4.379,4.379,0,0,0-3.415-2.049,1.928,1.928,0,0,0-.484-.612,4.951,4.951,0,0,0,1.51-2.849h4.778A4.947,4.947,0,0,0,18.34,39.8,1.926,1.926,0,0,0,17.861,40.408ZM14.322,27.949l-1.077-2.781a4.693,4.693,0,0,0,2.417,0l-1.1,2.783a.119.119,0,0,1-.122.083C14.355,28.037,14.344,28,14.322,27.949Zm2.282-6.59v1.419l-.251.639a3.388,3.388,0,0,1-3.785,0l-.314-.812V21.384A7.442,7.442,0,0,0,16.6,21.359Zm2.983,2.483-2.871,2.287c1.252-3.183,1.235-3.059,1.219-3.291Zm2.332-11.019V10.861A1,1,0,0,1,21.919,12.822ZM6.973,10.861c-.009.52-.017,1.225-.01,1.957A1,1,0,0,1,6.973,10.861Zm2.811,7.358c-1.829-2.13-1.431-4.09-1.48-7.181a12.015,12.015,0,0,0,9.755-1.571,3.476,3.476,0,0,0,2.529,1.289c0,.324,0,1.537,0,3.465A6.151,6.151,0,0,1,9.784,18.219Zm1.143,4.6c.023.186.093.247,1.252,3.288L9.306,23.772Zm-5.618.965-.055.022A.474.474,0,0,1,5.309,23.781ZM1.4,41.547,3.741,27.01c.414-2.03,2.316-1.942,4.248-2.591l2.268,1.84v4.275a.666.666,0,1,0,1.331,0V27.339l1.58,1.282a1.463,1.463,0,0,0,2.55,0l1.582-1.26v3.17a.666.666,0,1,0,1.331,0V26.3l1.124-.895c.006,14.424-.014,13.5.015,13.732a2.519,2.519,0,0,1-1.247-1.252,4.728,4.728,0,0,1-.455-1.64.665.665,0,0,0-.665-.632H11.465a.667.667,0,0,0-.665.63,4.728,4.728,0,0,1-.455,1.642c-.983,1.954-2.769,1.35-3.469,1.463l1.272-8.6a.666.666,0,1,0-1.317-.195l-1.3,8.794H4.844a.666.666,0,1,0,0,1.331H9.309a.586.586,0,0,1,.585.583v2.842H3.584A2.21,2.21,0,0,1,1.4,41.547Zm9.823,2.561V41.77a3.054,3.054,0,0,1,2.47,2.338Zm6.429-2.34v2.34H15.173A3.054,3.054,0,0,1,17.654,41.768Zm19,1.8a.539.539,0,0,1-.539.539H29.112a.539.539,0,1,1,0-1.078h7.006A.539.539,0,0,1,36.657,43.57ZM30.862,41.7v-11h3.666v11Zm-1.331,0a4.324,4.324,0,0,0-.715.026c-.02-.28-.047-.36-.153-1.043h.868Zm-2.216-1.017.152.947a2.14,2.14,0,0,1-2.112,2.479h-6.37V41.266a.586.586,0,0,1,.585-.583Z" transform="translate(0 0)"/>
      <path id="Trazado_982508" data-name="Trazado 982508" d="M293.789,83.085H306.3c.33,0,.4.233,1.376,1.074a1.23,1.23,0,0,0,2.057-.91V79.4a.666.666,0,0,0-1.331,0V83.02c-.644-.5-1.067-1.266-2.1-1.266H293.789a.4.4,0,0,1-.4-.4V74.167a.4.4,0,0,1,.4-.4h14.216a.4.4,0,0,1,.4.4V76.3a.666.666,0,0,0,1.331,0V74.167a1.732,1.732,0,0,0-1.73-1.73H293.789a1.732,1.732,0,0,0-1.73,1.73v7.187A1.732,1.732,0,0,0,293.789,83.085Z" transform="translate(-266.1 -66.008)"/>
    </g>
  </g>
</svg>
