<svg xmlns="http://www.w3.org/2000/svg" xmlns:xlink="http://www.w3.org/1999/xlink" width="108" height="108" viewBox="0 0 108 108">
  <defs>
    <filter id="Elipse_11513" x="0" y="0" width="108" height="108" filterUnits="userSpaceOnUse">
      <feOffset dy="3" input="SourceAlpha"/>
      <feGaussianBlur stdDeviation="3" result="blur"/>
      <feFlood flood-opacity="0.161"/>
      <feComposite operator="in" in2="blur"/>
      <feComposite in="SourceGraphic"/>
    </filter>
  </defs>
  <g id="Grupo_1147208" data-name="Grupo 1147208" transform="translate(-326.156 -1022.857)">
    <g id="Grupo_1144901" data-name="Grupo 1144901" transform="translate(1.063 -4744.441)">
      <g id="Grupo_1144069" data-name="Grupo 1144069" transform="translate(-1.907 984.906)">
        <g id="Grupo_1143620" data-name="Grupo 1143620" transform="translate(1.001 4218.393)">
          <g id="Grupo_1143497" data-name="Grupo 1143497" transform="translate(139 -593)">
            <g transform="matrix(1, 0, 0, 1, 187, 1157)" filter="url(#Elipse_11513)">
              <g id="Elipse_11513-2" data-name="Elipse 11513" transform="translate(9 6)" fill="#ebf0f7" stroke="#391847" stroke-width="3">
                <circle cx="45" cy="45" r="45" stroke="none"/>
                <circle cx="45" cy="45" r="43.5" fill="none"/>
              </g>
            </g>
          </g>
        </g>
      </g>
    </g>
    <g id="libro-abierto" transform="translate(347.983 1036.871)">
      <g id="Grupo_1147206" data-name="Grupo 1147206" transform="translate(0.956 10.836)">
        <path id="Trazado_982840" data-name="Trazado 982840" d="M273.016,148.093H243.605v44.234a.5.5,0,0,0,.431-.253,3.142,3.142,0,0,1,2.713-1.555h26.267Z" transform="translate(-213.492 -138.183)" fill="#0078c8"/>
        <g id="Grupo_1147204" data-name="Grupo 1147204" transform="translate(54.089 9.909)">
          <path id="Trazado_982841" data-name="Trazado 982841" d="M437.005,148.092H431.6a.727.727,0,0,1,.727.727v40.972a.727.727,0,0,1-.727.727h5.409a.727.727,0,0,0,.727-.727V148.819A.727.727,0,0,0,437.005,148.092Z" transform="translate(-431.596 -148.092)" fill="#0268b4"/>
        </g>
        <path id="Trazado_982842" data-name="Trazado 982842" d="M268.627,129.239h-23.2a1.818,1.818,0,0,0-1.818,1.818v39.108h.295a1.815,1.815,0,0,1,1.523-.827h23.2Z" transform="translate(-213.492 -121.735)" fill="#d5e3f4"/>
        <path id="Trazado_982843" data-name="Trazado 982843" d="M37.613,192.326V148.092H8.227a.727.727,0,0,0-.727.727v40.972a.727.727,0,0,0,.727.727H34.469a3.142,3.142,0,0,1,2.713,1.555A.5.5,0,0,0,37.613,192.326Z" transform="translate(-7.5 -138.183)" fill="#0268b4"/>
        <path id="Trazado_982844" data-name="Trazado 982844" d="M301.875,334.842h-12.79a.987.987,0,0,1-.987-.987v-9.593a.987.987,0,0,1,.987-.987h12.79a.987.987,0,0,1,.987.987v9.593A.987.987,0,0,1,301.875,334.842Z" transform="translate(-252.31 -291.023)" fill="#f47c7c"/>
        <path id="Trazado_982845" data-name="Trazado 982845" d="M64.673,170.165h.295V131.057a1.818,1.818,0,0,0-1.818-1.818H39.7a.848.848,0,0,0-.848.848v38.4a.848.848,0,0,0,.848.848H63.15A1.815,1.815,0,0,1,64.673,170.165Z" transform="translate(-34.855 -121.735)" fill="#b3dafe"/>
        <path id="Trazado_982846" data-name="Trazado 982846" d="M155.584,292.12v7.053l4.189-2.95a.705.705,0,0,0,0-1.153Z" transform="translate(-136.697 -263.842)" fill="#e5eef9"/>
        <g id="Grupo_1147205" data-name="Grupo 1147205" transform="translate(51.051 7.504)">
          <path id="Trazado_982847" data-name="Trazado 982847" d="M412.1,129.239h-4.328a.848.848,0,0,1,.848.848v38.4a.848.848,0,0,1-.848.848H412.1a.848.848,0,0,0,.848-.848v-38.4A.848.848,0,0,0,412.1,129.239Z" transform="translate(-407.775 -129.239)" fill="#b3dafe"/>
        </g>
        <path id="Trazado_982848" data-name="Trazado 982848" d="M329.048,87.8h7.107a9.706,9.706,0,0,1,2.245-3.677,8.088,8.088,0,1,0-11.6,0,9.7,9.7,0,0,1,2.244,3.676Z" transform="translate(-284.082 -70.399)" fill="#fdb97e"/>
        <path id="Trazado_982849" data-name="Trazado 982849" d="M360.063,206.83h7.107v2.91a3.553,3.553,0,1,1-7.107,0Z" transform="translate(-315.097 -189.43)" fill="#678d98"/>
        <path id="Trazado_982850" data-name="Trazado 982850" d="M383.642,78.136a8.091,8.091,0,0,0-9.887-7.532,8.084,8.084,0,0,1,4,13.52,9.706,9.706,0,0,0-2.245,3.677h3.606a9.707,9.707,0,0,1,2.245-3.677A8.059,8.059,0,0,0,383.642,78.136Z" transform="translate(-327.043 -70.4)" fill="#fea95c"/>
        <path id="Trazado_982851" data-name="Trazado 982851" d="M375.537,206.83v2.91a3.551,3.551,0,0,1-1.75,3.062,3.553,3.553,0,0,0,5.357-3.062v-2.91Z" transform="translate(-327.071 -189.43)" fill="#537983"/>
        <path id="Trazado_982852" data-name="Trazado 982852" d="M155.584,292.12v7.053l4.189-2.95a.705.705,0,0,0,0-1.153Z" transform="translate(-136.697 -263.842)" fill="#f9c6c6"/>
        <path id="Trazado_982853" data-name="Trazado 982853" d="M159.772,296.223a.705.705,0,0,0,0-1.153l-4.189-2.95v3.246l2.7,1.9Z" transform="translate(-136.697 -263.842)" fill="#f9b1b1"/>
        <path id="Trazado_982854" data-name="Trazado 982854" d="M8.629,292.079A1.129,1.129,0,0,0,7.5,293.208v3.251a1.129,1.129,0,0,1,1.129-1.129h4.5v-3.251Z" transform="translate(-7.5 -263.806)" fill="#e94444"/>
        <path id="Trazado_982855" data-name="Trazado 982855" d="M51.614,297.776h13.26v6.332H51.614Z" transform="translate(-45.988 -268.776)" fill="#d83131"/>
        <path id="Trazado_982856" data-name="Trazado 982856" d="M7.5,298.9v4.075a1.129,1.129,0,0,0,1.129,1.129h4.5v-6.332h-4.5A1.128,1.128,0,0,0,7.5,298.9Z" transform="translate(-7.5 -268.776)" fill="#f47c7c"/>
        <path id="Trazado_982857" data-name="Trazado 982857" d="M51.614,292.12h13.26v3.246H51.614Z" transform="translate(-45.988 -263.842)" fill="#ca2c2c"/>
        <path id="Trazado_982858" data-name="Trazado 982858" d="M7.5,293.249v3.246a1.129,1.129,0,0,1,1.129-1.129h4.5V292.12h-4.5A1.129,1.129,0,0,0,7.5,293.249Z" transform="translate(-7.5 -263.842)" fill="#ee6161"/>
      </g>
      <g id="Grupo_1147207" data-name="Grupo 1147207" transform="translate(0 2.129)">
        <path id="Trazado_982859" data-name="Trazado 982859" d="M279.2,281.016h15.188a1.058,1.058,0,0,0,0-2.116H279.2a1.058,1.058,0,0,0,0,2.116Z" transform="translate(-242.669 -243.601)"/>
        <path id="Trazado_982860" data-name="Trazado 982860" d="M295.331,315.774h-12.79a1.946,1.946,0,0,0-1.944,1.944v9.593a1.946,1.946,0,0,0,1.944,1.944h12.79a1.946,1.946,0,0,0,1.944-1.944v-9.593A1.946,1.946,0,0,0,295.331,315.774Zm.031,11.537a.031.031,0,0,1-.031.031h-12.79a.031.031,0,0,1-.031-.031v-9.593a.031.031,0,0,1,.031-.031h12.79a.031.031,0,0,1,.031.031v9.593Z" transform="translate(-244.81 -275.772)"/>
        <path id="Trazado_982861" data-name="Trazado 982861" d="M381.383,6.861a.957.957,0,0,0,.957-.957V3.086a.957.957,0,1,0-1.913,0V5.9A.957.957,0,0,0,381.383,6.861Z" transform="translate(-331.907 -2.129)"/>
        <path id="Trazado_982862" data-name="Trazado 982862" d="M315.216,26.939a.956.956,0,0,0,1.353-1.353l-1.993-1.993a.956.956,0,0,0-1.353,1.353Z" transform="translate(-273.031 -20.611)"/>
        <path id="Trazado_982863" data-name="Trazado 982863" d="M433.24,27.22a.953.953,0,0,0,.676-.28l1.993-1.993a.956.956,0,1,0-1.353-1.353l-1.993,1.993a.957.957,0,0,0,.676,1.633Z" transform="translate(-377.15 -20.612)"/>
        <path id="Trazado_982864" data-name="Trazado 982864" d="M471.2,82.627h-2.818a.957.957,0,0,0,0,1.913H471.2a.957.957,0,0,0,0-1.913Z" transform="translate(-407.806 -72.36)"/>
        <path id="Trazado_982865" data-name="Trazado 982865" d="M272.289,84.54h2.818a.957.957,0,0,0,0-1.913h-2.818a.957.957,0,1,0,0,1.913Z" transform="translate(-236.726 -72.36)"/>
        <path id="Trazado_982866" data-name="Trazado 982866" d="M74.45,168.145H89.638a1.058,1.058,0,0,0,0-2.116H74.45a1.058,1.058,0,0,0,0,2.116Z" transform="translate(-64.032 -145.125)"/>
        <path id="Trazado_982867" data-name="Trazado 982867" d="M74.45,205.77H89.638a1.058,1.058,0,0,0,0-2.116H74.45a1.058,1.058,0,0,0,0,2.116Z" transform="translate(-64.032 -177.952)"/>
        <path id="Trazado_982868" data-name="Trazado 982868" d="M90.7,242.334a1.058,1.058,0,0,0-1.058-1.058H74.45a1.058,1.058,0,0,0,0,2.116H89.638A1.058,1.058,0,0,0,90.7,242.334Z" transform="translate(-64.032 -210.775)"/>
        <path id="Trazado_982869" data-name="Trazado 982869" d="M74.45,384.48H89.638a1.058,1.058,0,0,0,0-2.116H74.45a1.058,1.058,0,0,0,0,2.116Z" transform="translate(-64.032 -333.869)"/>
        <path id="Trazado_982870" data-name="Trazado 982870" d="M59.655,72.81H58.479q.041-.429.041-.865a8.981,8.981,0,0,0-1.442-4.885A.957.957,0,0,0,55.471,68.1a7.088,7.088,0,0,1,.8,6.006,7.99,7.99,0,0,1-2,3.147l-.052.058A10.785,10.785,0,0,0,52.366,80.3h-5.78a10.782,10.782,0,0,0-2.221-3.387,7.129,7.129,0,0,1,5.112-12.1q.14,0,.281.005a6.993,6.993,0,0,1,2.8.7A.957.957,0,0,0,53.39,63.8a8.9,8.9,0,0,0-3.56-.89,9.061,9.061,0,0,0-9.264,7.5H32.887a2.761,2.761,0,0,0-1.818.681,2.762,2.762,0,0,0-1.818-.681H5.8A1.807,1.807,0,0,0,4,72.21v.6H2.483A2.486,2.486,0,0,0,0,75.293v25.758a.957.957,0,1,0,1.913,0v-.913q.085.007.172.007H4c0,11.308-.016,10.572.037,10.83A1.808,1.808,0,0,0,5.8,112.417H29.252c.537,0,.692.4.861.561v2.893a4.1,4.1,0,0,0-2.187-.635H2.483a.571.571,0,0,1-.57-.57v-9.15a.957.957,0,0,0-1.913,0v9.15a2.486,2.486,0,0,0,2.483,2.483H27.925a2.2,2.2,0,0,1,1.888,1.083,1.454,1.454,0,0,0,2.512,0,2.2,2.2,0,0,1,1.888-1.083H59.655a2.486,2.486,0,0,0,2.483-2.483V75.293a2.486,2.486,0,0,0-2.483-2.483ZM49.476,86.765a2.6,2.6,0,0,1-2.6-2.6V82.214h5.194v1.954A2.6,2.6,0,0,1,49.476,86.765ZM32.887,72.319H40.44a9.1,9.1,0,0,0,.979,3.736H36.532a1.058,1.058,0,1,0,0,2.116H42.92a8.69,8.69,0,0,1,1.818,2.683H36.532a1.058,1.058,0,1,0,0,2.116h8.434v1.2a4.486,4.486,0,0,0,.252,1.483H36.532a1.058,1.058,0,1,0,0,2.116l10.184-.036a4.506,4.506,0,0,0,7.27-3.563V81.427a9.226,9.226,0,0,1,2.241-3.466V110.5H32.882a2.933,2.933,0,0,0-.856.136V73.18a.862.862,0,0,1,.861-.861ZM1.913,75.293a.571.571,0,0,1,.57-.57H4V91.179H2.085q-.087,0-.172.007Zm.172,22.939a.172.172,0,0,1-.172-.172v-4.8a.172.172,0,0,1,.172-.172H5.626v5.14H2.085Zm4.5,1.913h13.26a.975.975,0,0,0,.546-.171l.005,0,4.189-2.95a1.662,1.662,0,0,0,0-2.717l-4.189-2.95-.006,0a.956.956,0,0,0-.5-.169l-.043,0H5.912V72.319h23.34a.862.862,0,0,1,.861.861v37.461a2.95,2.95,0,0,0-.856-.136H5.912V100.146Zm12.3-1.913H7.539v-5.14H18.886Zm4.3-2.57L20.8,97.346V93.979Zm37.036,19a.571.571,0,0,1-.57.57H34.213a4.1,4.1,0,0,0-2.187.635v-2.893c.174-.167.319-.561.861-.561H56.335a1.807,1.807,0,0,0,1.8-1.8V74.723h1.516a.571.571,0,0,1,.57.57v39.373Z" transform="translate(0 -55.15)"/>
      </g>
    </g>
  </g>
</svg>
