<svg xmlns="http://www.w3.org/2000/svg" xmlns:xlink="http://www.w3.org/1999/xlink" width="108" height="108" viewBox="0 0 108 108">
  <defs>
    <filter id="Elipse_11513" x="0" y="0" width="108" height="108" filterUnits="userSpaceOnUse">
      <feOffset dy="3" input="SourceAlpha"/>
      <feGaussianBlur stdDeviation="3" result="blur"/>
      <feFlood flood-opacity="0.161"/>
      <feComposite operator="in" in2="blur"/>
      <feComposite in="SourceGraphic"/>
    </filter>
  </defs>
  <g id="Grupo_1147210" data-name="Grupo 1147210" transform="translate(-746.156 -1022.857)">
    <g id="Grupo_1144902" data-name="Grupo 1144902" transform="translate(1.063 -4744.049)">
      <g id="Grupo_1144070" data-name="Grupo 1144070" transform="translate(-1.907 984.906)">
        <g id="Grupo_1143619" data-name="Grupo 1143619" transform="translate(1 4218)">
          <g id="Grupo_1143495" data-name="Grupo 1143495" transform="translate(559 -593)">
            <g transform="matrix(1, 0, 0, 1, 187, 1157)" filter="url(#Elipse_11513)">
              <g id="Elipse_11513-2" data-name="Elipse 11513" transform="translate(9 6)" fill="#ebf0f7" stroke="#13de61" stroke-width="3">
                <circle cx="45" cy="45" r="45" stroke="none"/>
                <circle cx="45" cy="45" r="43.5" fill="none"/>
              </g>
            </g>
          </g>
        </g>
      </g>
    </g>
    <g id="sitio-web" transform="translate(770.517 1026.428)">
      <path id="Trazado_982871" data-name="Trazado 982871" d="M17.544,82.108h-3.9a3.659,3.659,0,0,1-3.659-3.659V30.426H61.663V78.449A3.659,3.659,0,0,1,58,82.108H17.544Z" transform="translate(-8.838 -8.838)" fill="#fff"/>
      <path id="Trazado_982872" data-name="Trazado 982872" d="M58,30.426H13.64a3.659,3.659,0,0,0-3.659,3.659v4.574H61.663V34.085A3.659,3.659,0,0,0,58,30.426Z" transform="translate(-8.838 -8.838)" fill="#a5dc69"/>
      <g id="Grupo_1147209" data-name="Grupo 1147209" transform="translate(7.318 37.824)">
        <rect id="Rectángulo_408587" data-name="Rectángulo 408587" width="23.603" height="16.008" transform="translate(0 0)" fill="#78d2fa"/>
        <path id="Trazado_982873" data-name="Trazado 982873" d="M426.2,333.054l-9.81-9.81,4.443-4.443,5.255,5.255Z" transform="translate(-376.004 -302.002)" fill="#78d2fa"/>
      </g>
      <path id="Trazado_982874" data-name="Trazado 982874" d="M20.071,102.29H70.026" transform="translate(-17.772 -72.469)" fill="#231f20"/>
      <circle id="Elipse_11642" data-name="Elipse 11642" cx="12.247" cy="12.247" r="12.247" transform="translate(26.752 33.676)" fill="#ff5a5a"/>
      <path id="Trazado_982875" data-name="Trazado 982875" d="M195.6,58.664h23.733a1.143,1.143,0,1,0,0-2.287H195.6a1.143,1.143,0,1,0,0,2.287Z" transform="translate(-172.18 -31.816)"/>
      <path id="Trazado_982876" data-name="Trazado 982876" d="M87.339,58.664a1.144,1.144,0,1,0-.808-.335A1.152,1.152,0,0,0,87.339,58.664Z" transform="translate(-76.322 -31.816)"/>
      <path id="Trazado_982877" data-name="Trazado 982877" d="M50.659,58.664a1.144,1.144,0,1,0-.808-.335A1.152,1.152,0,0,0,50.659,58.664Z" transform="translate(-43.844 -31.816)"/>
      <path id="Trazado_982878" data-name="Trazado 982878" d="M124.011,58.664a1.144,1.144,0,1,0-.808-.335A1.155,1.155,0,0,0,124.011,58.664Z" transform="translate(-108.793 -31.816)"/>
      <path id="Trazado_982879" data-name="Trazado 982879" d="M58.318,68.068l-9-9,1.412-1.412h0l1.412-1.412,4.447,4.447a1.143,1.143,0,1,0,1.617-1.617l-5.255-5.255a1.144,1.144,0,0,0-1.617,0l-1.413,1.413-.684-.684A13.383,13.383,0,0,0,29.318,36.683l-.032,0H7.318a1.144,1.144,0,0,0-1.143,1.143V53.833a1.144,1.144,0,0,0,1.143,1.143H29.143A13.366,13.366,0,0,0,47.62,56.161l.684.684-1.413,1.413a1.144,1.144,0,0,0,0,1.617l4.791,4.791v4.945a2.518,2.518,0,0,1-2.515,2.515H4.8a2.518,2.518,0,0,1-2.515-2.515V30.964h49.4v5.154a1.143,1.143,0,0,0,2.287,0V25.247a4.808,4.808,0,0,0-4.8-4.8H4.8a4.808,4.808,0,0,0-4.8,4.8V69.612a4.808,4.808,0,0,0,4.8,4.8H49.167a4.808,4.808,0,0,0,4.8-4.8V66.953L56.7,69.685a1.143,1.143,0,1,0,1.617-1.617ZM8.461,52.689V38.968h19.1a13.309,13.309,0,0,0-1.952,6.955q0,.175,0,.348l-1.441-2.783a1.144,1.144,0,0,0-2.031,1.052l2.685,5.187a1.138,1.138,0,0,0,1.5.51,13.325,13.325,0,0,0,1.127,2.453H8.461ZM27.9,45.923c0-.087,0-.174,0-.261L30,49.726a1.143,1.143,0,0,0,1.015.618h.017a1.143,1.143,0,0,0,1.014-.648l2.491-5.187a1.143,1.143,0,0,0-2.062-.99l-1.5,3.12-1.631-3.151a1.143,1.143,0,0,0-1.026-.617,11.107,11.107,0,1,1-.427,3.052ZM4.8,22.732H49.167a2.518,2.518,0,0,1,2.515,2.515v3.43H2.287V25.247A2.518,2.518,0,0,1,4.8,22.732Z" transform="translate(0)"/>
      <path id="Trazado_982880" data-name="Trazado 982880" d="M89.8,216.311a1.144,1.144,0,0,0-1.526.536l-1.5,3.12-1.631-3.151a1.143,1.143,0,0,0-2.046.031l-1.5,3.12-1.631-3.151a1.143,1.143,0,1,0-2.031,1.051l2.685,5.187a1.143,1.143,0,0,0,2.046-.031l1.5-3.12,1.631,3.151a1.143,1.143,0,0,0,1.015.618h.017a1.143,1.143,0,0,0,1.014-.648l2.491-5.187A1.143,1.143,0,0,0,89.8,216.311Z" transform="translate(-68.894 -173.328)"/>
      <path id="Trazado_982881" data-name="Trazado 982881" d="M318.519,216.312a1.144,1.144,0,0,0-1.526.536l-1.5,3.12-1.631-3.151a1.143,1.143,0,0,0-2.046.031l-1.5,3.12-1.631-3.151a1.144,1.144,0,1,0-2.031,1.052l2.685,5.187a1.143,1.143,0,0,0,1.015.618h.017a1.143,1.143,0,0,0,1.014-.648l1.5-3.12,1.631,3.151a1.144,1.144,0,0,0,1.015.618h.017a1.143,1.143,0,0,0,1.014-.648l2.491-5.187A1.144,1.144,0,0,0,318.519,216.312Z" transform="translate(-271.414 -173.329)"/>
      <path id="Trazado_982882" data-name="Trazado 982882" d="M54.234,398.067a1.143,1.143,0,1,0,.808-.335A1.152,1.152,0,0,0,54.234,398.067Z" transform="translate(-47.724 -334.066)"/>
      <path id="Trazado_982883" data-name="Trazado 982883" d="M88.166,398.885a1.144,1.144,0,0,0,1.143,1.143h22.266a1.143,1.143,0,0,0,0-2.287H89.309A1.143,1.143,0,0,0,88.166,398.885Z" transform="translate(-78.066 -334.075)"/>
      <path id="Trazado_982884" data-name="Trazado 982884" d="M194.537,352.115a1.143,1.143,0,1,0,0-2.287H187.79a1.143,1.143,0,1,0,0,2.287Z" transform="translate(-165.265 -291.65)"/>
      <path id="Trazado_982885" data-name="Trazado 982885" d="M65.114,349.827H55.041a1.143,1.143,0,1,0,0,2.287H65.114a1.143,1.143,0,1,0,0-2.287Z" transform="translate(-47.724 -291.649)"/>
    </g>
  </g>
</svg>
