<svg xmlns="http://www.w3.org/2000/svg" xmlns:xlink="http://www.w3.org/1999/xlink" width="108" height="108" viewBox="0 0 108 108">
  <defs>
    <filter id="Elipse_11513" x="0" y="0" width="108" height="108" filterUnits="userSpaceOnUse">
      <feOffset dy="3" input="SourceAlpha"/>
      <feGaussianBlur stdDeviation="3" result="blur"/>
      <feFlood flood-opacity="0.161"/>
      <feComposite operator="in" in2="blur"/>
      <feComposite in="SourceGraphic"/>
    </filter>
  </defs>
  <g id="Grupo_1147211" data-name="Grupo 1147211" transform="translate(-1166.156 -1023.25)">
    <g id="Grupo_1144903" data-name="Grupo 1144903" transform="translate(1.063 -4744.049)">
      <g id="Grupo_1144071" data-name="Grupo 1144071" transform="translate(-1.907 984.906)">
        <g id="Grupo_1143621" data-name="Grupo 1143621" transform="translate(1 4218.393)">
          <g id="Grupo_1143499" data-name="Grupo 1143499" transform="translate(979 -593)">
            <g transform="matrix(1, 0, 0, 1, 187, 1157)" filter="url(#Elipse_11513)">
              <g id="Elipse_11513-2" data-name="Elipse 11513" transform="translate(9 6)" fill="#f5f7fb" stroke="#13de61" stroke-width="3">
                <circle cx="45" cy="45" r="45" stroke="none"/>
                <circle cx="45" cy="45" r="43.5" fill="none"/>
              </g>
            </g>
          </g>
        </g>
      </g>
    </g>
    <g id="periodico" transform="translate(1194.855 1045.201)">
      <path id="Trazado_982886" data-name="Trazado 982886" d="M363.748,97.371V88H360v43.105a3.736,3.736,0,0,0,3.608,3.739.726.726,0,0,0,.141.009,3.743,3.743,0,0,0,3.748-3.748V97.371Zm0,0" transform="translate(-317.832 -77.692)" fill="#ff826e"/>
      <path id="Trazado_982887" data-name="Trazado 982887" d="M8,60.476V8H49.231V60.476a3.736,3.736,0,0,0,3.608,3.739.725.725,0,0,0,.14.009H11.748A3.747,3.747,0,0,1,8,60.476Zm0,0" transform="translate(-7.063 -7.063)" fill="#e6e9ed"/>
      <path id="Trazado_982888" data-name="Trazado 982888" d="M144.364,248v24.364H120V248Zm0,0" transform="translate(-105.944 -218.951)" fill="#fcd770"/>
      <path id="Trazado_982889" data-name="Trazado 982889" d="M168.867,295.018v1.855H152v-1.855a3.745,3.745,0,0,1,2.717-3.608l3.842-1.1v-1.452a3.746,3.746,0,0,1-1.874-3.233v-1.874a3.747,3.747,0,0,1,4.114-3.73,3.857,3.857,0,0,1,3.383,3.889v1.715a3.746,3.746,0,0,1-1.874,3.233v1.452l3.842,1.1A3.745,3.745,0,0,1,168.867,295.018Zm0,0" transform="translate(-134.196 -247.208)" fill="#f0d0b4"/>
      <path id="Trazado_982890" data-name="Trazado 982890" d="M47.368,41.574A10.3,10.3,0,0,1,52.85,40c.1,0,.206,0,.309.009v.01a4.318,4.318,0,0,0-.309,1.6,4.439,4.439,0,0,0,1.659,3.458l1.6,1.274a3.815,3.815,0,0,1,1.424,2.971,3.791,3.791,0,0,0,3.795,3.795,5.479,5.479,0,0,0,1.481-.206h.01a10.306,10.306,0,0,1-19.941.01h.01a3.131,3.131,0,0,0,1.068.2,5.616,5.616,0,0,1,3.983,1.649l.188.188a3.313,3.313,0,0,0,5.66-2.343v-.9a2.344,2.344,0,0,0-2.343-2.343A2.344,2.344,0,0,1,49.1,47.028V45.622a5.614,5.614,0,0,0-1.125-3.374,5.084,5.084,0,0,0-.6-.665Zm0,0" transform="translate(-37.856 -35.315)" fill="#69d6f4"/>
      <path id="Trazado_982891" data-name="Trazado 982891" d="M138.308,50.377a9.986,9.986,0,0,1-.337,2.6h-.01a5.479,5.479,0,0,1-1.481.206,3.791,3.791,0,0,1-3.795-3.795,3.815,3.815,0,0,0-1.424-2.971l-1.6-1.274A4.439,4.439,0,0,1,128,41.69a4.318,4.318,0,0,1,.309-1.6v-.01a10.293,10.293,0,0,1,10,10.3Zm0,0" transform="translate(-113.007 -35.384)" fill="#b4dd7f"/>
      <path id="Trazado_982892" data-name="Trazado 982892" d="M45.435,54.116a5.614,5.614,0,0,1,1.125,3.374V58.9A2.344,2.344,0,0,0,48.9,61.238a2.344,2.344,0,0,1,2.343,2.343v.9a3.313,3.313,0,0,1-5.66,2.343l-.188-.188a5.616,5.616,0,0,0-3.983-1.649,3.131,3.131,0,0,1-1.068-.2h-.01A10.062,10.062,0,0,1,40,62.175a10.311,10.311,0,0,1,4.826-8.733l.01.009a5.083,5.083,0,0,1,.6.665Zm0,0" transform="translate(-35.315 -47.182)" fill="#b4dd7f"/>
      <path id="Trazado_982893" data-name="Trazado 982893" d="M46.854,18.742V9.371H43.105V0H0V53.413A4.691,4.691,0,0,0,4.685,58.1H45.917A4.691,4.691,0,0,0,50.6,53.413V18.742ZM4.685,56.225a2.815,2.815,0,0,1-2.811-2.811V1.874H41.231V53.413a4.661,4.661,0,0,0,.939,2.811Zm44.043-2.811a2.811,2.811,0,0,1-5.622,0V11.245H44.98V50.6h1.874V20.616h1.874Zm0,0"/>
      <path id="Trazado_982894" data-name="Trazado 982894" d="M384,448h1.874v1.874H384Zm0,0" transform="translate(-339.02 -395.524)"/>
      <path id="Trazado_982895" data-name="Trazado 982895" d="M159.342,283.443l-3.161-.9v-.25a4.69,4.69,0,0,0,1.874-3.729v-1.713a4.809,4.809,0,0,0-4.229-4.824,4.684,4.684,0,0,0-5.142,4.663v1.874a4.69,4.69,0,0,0,1.874,3.729v.25l-3.162.9a4.707,4.707,0,0,0-3.4,4.507v2.794h18.742v-2.794a4.707,4.707,0,0,0-3.4-4.507Zm1.525,5.427H145.874v-.92a2.825,2.825,0,0,1,2.039-2.7l4.521-1.292v-2.7l-.466-.271a2.781,2.781,0,0,1-1.408-2.419v-1.874a2.811,2.811,0,0,1,3.089-2.8,2.923,2.923,0,0,1,2.533,2.96v1.713a2.781,2.781,0,0,1-1.408,2.419l-.466.271v2.7l4.52,1.292a2.824,2.824,0,0,1,2.04,2.7Zm0,0" transform="translate(-127.132 -240.141)"/>
      <path id="Trazado_982896" data-name="Trazado 982896" d="M112,266.238h26.238V240H112Zm1.874-24.364h22.49v22.49h-22.49Zm0,0" transform="translate(-98.881 -211.888)"/>
      <path id="Trazado_982897" data-name="Trazado 982897" d="M43.245,54.49A11.245,11.245,0,1,0,32,43.245,11.257,11.257,0,0,0,43.245,54.49Zm0-1.874a9.381,9.381,0,0,1-8.568-5.591,4.638,4.638,0,0,1,2.991,1.339l.2.2a4.25,4.25,0,0,0,7.255-3.005v-.9a3.283,3.283,0,0,0-3.28-3.28,1.407,1.407,0,0,1-1.406-1.406V38.56a6.576,6.576,0,0,0-1.207-3.767,9.275,9.275,0,0,1,3.142-.873,5.25,5.25,0,0,0-.061.637,5.342,5.342,0,0,0,2.014,4.192l1.6,1.277a2.847,2.847,0,0,1,1.074,2.233,4.741,4.741,0,0,0,4.735,4.735c.033,0,.069-.006.1-.007a9.381,9.381,0,0,1-8.587,5.63Zm9.371-9.371a9.383,9.383,0,0,1-.179,1.811,4.571,4.571,0,0,1-.708.063,2.864,2.864,0,0,1-2.861-2.861,4.71,4.71,0,0,0-1.777-3.7l-1.6-1.278a3.474,3.474,0,0,1-1.31-2.727,3.249,3.249,0,0,1,.062-.627,9.382,9.382,0,0,1,8.372,9.315ZM37.63,35.761a4.711,4.711,0,0,1,.93,2.8v1.406a3.283,3.283,0,0,0,3.28,3.28,1.407,1.407,0,0,1,1.406,1.406v.9a2.376,2.376,0,0,1-4.054,1.682l-.2-.2a6.52,6.52,0,0,0-4.638-1.921,2.123,2.123,0,0,1-.3-.028,9.335,9.335,0,0,1,3.571-9.33Zm0,0" transform="translate(-28.252 -28.252)"/>
      <path id="Trazado_982898" data-name="Trazado 982898" d="M240,32h11.245v1.874H240Zm0,0" transform="translate(-211.888 -28.252)"/>
      <path id="Trazado_982899" data-name="Trazado 982899" d="M240,64h1.874v1.874H240Zm0,0" transform="translate(-211.888 -56.503)"/>
      <path id="Trazado_982900" data-name="Trazado 982900" d="M272,64h7.5v1.874H272Zm0,0" transform="translate(-240.139 -56.503)"/>
      <path id="Trazado_982901" data-name="Trazado 982901" d="M240,96h11.245v1.874H240Zm0,0" transform="translate(-211.888 -84.755)"/>
      <path id="Trazado_982902" data-name="Trazado 982902" d="M240,128h11.245v1.874H240Zm0,0" transform="translate(-211.888 -113.007)"/>
      <path id="Trazado_982903" data-name="Trazado 982903" d="M240,160h7.5v1.874H240Zm0,0" transform="translate(-211.888 -141.258)"/>
      <path id="Trazado_982904" data-name="Trazado 982904" d="M320,160h1.874v1.874H320Zm0,0" transform="translate(-282.517 -141.258)"/>
      <path id="Trazado_982905" data-name="Trazado 982905" d="M32,440h7.5v1.874H32Zm0,0" transform="translate(-28.252 -388.461)"/>
      <path id="Trazado_982906" data-name="Trazado 982906" d="M32,408h7.5v1.874H32Zm0,0" transform="translate(-28.252 -360.209)"/>
      <path id="Trazado_982907" data-name="Trazado 982907" d="M32,376h7.5v1.874H32Zm0,0" transform="translate(-28.252 -331.957)"/>
      <path id="Trazado_982908" data-name="Trazado 982908" d="M32,344h7.5v1.874H32Zm0,0" transform="translate(-28.252 -303.706)"/>
      <path id="Trazado_982909" data-name="Trazado 982909" d="M32,312h7.5v1.874H32Zm0,0" transform="translate(-28.252 -275.454)"/>
    </g>
  </g>
</svg>
