<svg xmlns="http://www.w3.org/2000/svg" width="82" height="82" viewBox="0 0 82 82">
  <g id="Grupo_1147784" data-name="Grupo 1147784" transform="translate(-718.369 -967)">
    <g id="Trazado_983017" data-name="Trazado 983017" transform="translate(718.369 967)" fill="#fff">
      <path d="M 41 80.5 C 35.6668701171875 80.5 30.49407005310059 79.45583343505859 25.62528228759766 77.39650726318359 C 20.92182350158691 75.40711975097656 16.6973762512207 72.55881500244141 13.06928253173828 68.93071746826172 C 9.441187858581543 65.30261993408203 6.59288215637207 61.07817459106445 4.603494167327881 56.37472915649414 C 2.544164657592773 51.50592803955078 1.5 46.3331298828125 1.5 41 C 1.5 35.6668701171875 2.544164657592773 30.49407005310059 4.603494167327881 25.62528228759766 C 6.59288215637207 20.92182350158691 9.441187858581543 16.6973762512207 13.06928253173828 13.06928253173828 C 16.6973762512207 9.441187858581543 20.92182350158691 6.59288215637207 25.62528228759766 4.603494167327881 C 30.49407005310059 2.544164657592773 35.6668701171875 1.5 41 1.5 C 46.3331298828125 1.5 51.50592803955078 2.544164657592773 56.37472915649414 4.603494167327881 C 61.07817459106445 6.59288215637207 65.30261993408203 9.441187858581543 68.93071746826172 13.06928253173828 C 72.55881500244141 16.6973762512207 75.40711975097656 20.92182350158691 77.39650726318359 25.62528228759766 C 79.45583343505859 30.49407005310059 80.5 35.6668701171875 80.5 41 C 80.5 46.3331298828125 79.45583343505859 51.50592803955078 77.39650726318359 56.37472915649414 C 75.40711975097656 61.07817459106445 72.55881500244141 65.30261993408203 68.93071746826172 68.93071746826172 C 65.30261993408203 72.55881500244141 61.07817459106445 75.40711975097656 56.37472915649414 77.39650726318359 C 51.50592803955078 79.45583343505859 46.3331298828125 80.5 41 80.5 Z" stroke="none"/>
      <path d="M 41 3 C 35.86870574951172 3 30.89250564575195 4.004295349121094 26.20959854125977 5.985000610351562 C 21.6849479675293 7.898757934570312 17.62075805664062 10.63912200927734 14.12994384765625 14.12994384765625 C 10.63912200927734 17.62075805664062 7.898757934570312 21.6849479675293 5.985000610351562 26.20959854125977 C 4.004295349121094 30.89250564575195 3 35.86870574951172 3 41 C 3 46.13129425048828 4.004295349121094 51.10749053955078 5.985000610351562 55.79039764404297 C 7.898757934570312 60.31505584716797 10.63912200927734 64.37924194335938 14.12994384765625 67.87005615234375 C 17.62075805664062 71.36087799072266 21.6849479675293 74.10124206542969 26.20959854125977 76.01499938964844 C 30.89250564575195 77.99570465087891 35.86870574951172 79 41 79 C 46.13129425048828 79 51.10749053955078 77.99570465087891 55.79039764404297 76.01499938964844 C 60.31505584716797 74.10124206542969 64.37924194335938 71.36087799072266 67.87005615234375 67.87005615234375 C 71.36087799072266 64.37924194335938 74.10124206542969 60.31505584716797 76.01499938964844 55.79039764404297 C 77.99570465087891 51.10749053955078 79 46.13129425048828 79 41 C 79 35.86870574951172 77.99570465087891 30.89250564575195 76.01499938964844 26.20959854125977 C 74.10124206542969 21.6849479675293 71.36087799072266 17.62075805664062 67.87005615234375 14.12994384765625 C 64.37924194335938 10.63912200927734 60.31505584716797 7.898757934570312 55.79039764404297 5.985000610351562 C 51.10749053955078 4.004295349121094 46.13129425048828 3 41 3 M 41 0 C 63.64368057250977 0 82 18.35631942749023 82 41 C 82 63.64368057250977 63.64368057250977 82 41 82 C 18.35631942749023 82 0 63.64368057250977 0 41 C 0 18.35631942749023 18.35631942749023 0 41 0 Z" stroke="none" fill="#5e3552"/>
    </g>
    <g id="expert_6601289" transform="translate(730.753 976.146)">
      <path id="Trazado_983017-2" data-name="Trazado 983017" d="M5,53.415V20.454A4.454,4.454,0,0,1,9.454,16h39.2a4.454,4.454,0,0,1,4.454,4.454V53.415Z" transform="translate(-0.437 -1.418)" fill="#a5badb"/>
      <path id="Trazado_983018" data-name="Trazado 983018" d="M48.87,16H11.454A4.454,4.454,0,0,0,7,20.454V53.415H53.324V20.454A4.454,4.454,0,0,0,48.87,16Z" transform="translate(-0.655 -1.418)" fill="#c1cfe8"/>
      <path id="Trazado_983019" data-name="Trazado 983019" d="M34.07,54v1.782H23.38V54H2a5.345,5.345,0,0,0,5.345,5.345h42.76A5.345,5.345,0,0,0,55.45,54Z" transform="translate(-0.109 -5.566)" fill="#0059be"/>
      <path id="Trazado_983020" data-name="Trazado 983020" d="M9,52.961V20H49.979V52.961" transform="translate(-0.873 -1.854)" fill="#66c3e9"/>
      <path id="Trazado_983021" data-name="Trazado 983021" d="M34.327,55.782H23.637V54H4.349a5.345,5.345,0,0,0,5.034,3.563h42.76a5.317,5.317,0,0,0,2.779-.785A5.317,5.317,0,0,0,55.707,54H34.327Z" transform="translate(-0.366 -5.566)" fill="#006bdb"/>
      <path id="Trazado_983022" data-name="Trazado 983022" d="M11,20V42.738a5.77,5.77,0,0,0,5.768,5.769H50.2V20Z" transform="translate(-1.092 -1.854)" fill="#8adef9"/>
      <path id="Trazado_983023" data-name="Trazado 983023" d="M45.07,14H14.782A1.782,1.782,0,0,0,13,15.782V44.289a1.782,1.782,0,0,0,1.782,1.782H45.07a1.782,1.782,0,0,0,1.782-1.782V15.782A1.782,1.782,0,0,0,45.07,14Z" transform="translate(-1.31 -1.199)" fill="#0059be"/>
      <path id="Trazado_983024" data-name="Trazado 983024" d="M45.4,14H16V41.616A1.782,1.782,0,0,0,17.782,43.4h29.4V15.782A1.782,1.782,0,0,0,45.4,14Z" transform="translate(-1.637 -1.199)" fill="#006bdb"/>
      <path id="Trazado_983025" data-name="Trazado 983025" d="M13,20V44.944a1.782,1.782,0,0,0,1.782,1.782H45.07a1.782,1.782,0,0,0,1.782-1.782V20Z" transform="translate(-1.31 -1.854)" fill="#f79b31"/>
      <path id="Trazado_983026" data-name="Trazado 983026" d="M16,42.271a1.782,1.782,0,0,0,1.782,1.782h29.4V20H16Z" transform="translate(-1.637 -1.854)" fill="#fcb732"/>
      <g id="Grupo_1147783" data-name="Grupo 1147783" transform="translate(15.253 26.061)">
        <path id="Trazado_983027" data-name="Trazado 983027" d="M17,28.885h1.782v7.127H17Z" transform="translate(-17 -28.885)" fill="#fff"/>
        <path id="Trazado_983028" data-name="Trazado 983028" d="M25.454,36.012H21.891A.891.891,0,0,1,21,35.121V29.776a.891.891,0,0,1,.891-.891h3.563a.891.891,0,0,1,.891.891v5.345A.891.891,0,0,1,25.454,36.012ZM22.782,34.23h1.782V30.667H22.782Z" transform="translate(-17.437 -28.885)" fill="#fff"/>
        <path id="Trazado_983029" data-name="Trazado 983029" d="M29,28.885h1.782v7.127H29Z" transform="translate(-18.31 -28.885)" fill="#fff"/>
        <path id="Trazado_983030" data-name="Trazado 983030" d="M33,28.885h1.782v7.127H33Z" transform="translate(-18.747 -28.885)" fill="#fff"/>
        <path id="Trazado_983031" data-name="Trazado 983031" d="M41.454,36.012H37.891A.891.891,0,0,1,37,35.121V29.776a.891.891,0,0,1,.891-.891h3.563a.891.891,0,0,1,.891.891v5.345A.891.891,0,0,1,41.454,36.012ZM38.782,34.23h1.782V30.667H38.782Z" transform="translate(-19.183 -28.885)" fill="#fff"/>
        <path id="Trazado_983032" data-name="Trazado 983032" d="M45,28.885h1.782v7.127H45Z" transform="translate(-20.056 -28.885)" fill="#fff"/>
        <path id="Trazado_983033" data-name="Trazado 983033" d="M17,38.885h1.782v7.127H17Z" transform="translate(-17 -29.977)" fill="#fff"/>
        <path id="Trazado_983034" data-name="Trazado 983034" d="M41.454,46.012H37.891A.891.891,0,0,1,37,45.121V39.776a.891.891,0,0,1,.891-.891h3.563a.891.891,0,0,1,.891.891v5.345A.891.891,0,0,1,41.454,46.012ZM38.782,44.23h1.782V40.667H38.782Z" transform="translate(-19.183 -29.977)" fill="#fff"/>
        <path id="Trazado_983035" data-name="Trazado 983035" d="M45,38.885h1.782v7.127H45Z" transform="translate(-20.056 -29.977)" fill="#fff"/>
        <path id="Trazado_983036" data-name="Trazado 983036" d="M33.454,46.012H29.891A.891.891,0,0,1,29,45.121V39.776a.891.891,0,0,1,.891-.891h3.563a.891.891,0,0,1,.891.891v5.345A.891.891,0,0,1,33.454,46.012ZM30.782,44.23h1.782V40.667H30.782Z" transform="translate(-18.31 -29.977)" fill="#fff"/>
        <path id="Trazado_983037" data-name="Trazado 983037" d="M21,38.885h1.782v7.127H21Z" transform="translate(-17.437 -29.977)" fill="#fff"/>
        <path id="Trazado_983038" data-name="Trazado 983038" d="M25,38.885h1.782v7.127H25Z" transform="translate(-17.873 -29.977)" fill="#fff"/>
      </g>
      <circle id="Elipse_11647" data-name="Elipse 11647" cx="9.799" cy="9.799" r="9.799" transform="translate(18.817 3.892)" fill="#66c3e9"/>
      <path id="Trazado_983039" data-name="Trazado 983039" d="M31.018,4a9.746,9.746,0,0,0-5.974,2.044,9.788,9.788,0,0,0,13.73,13.73A9.788,9.788,0,0,0,31.018,4Z" transform="translate(-2.402 -0.108)" fill="#8adef9"/>
      <path id="Trazado_983040" data-name="Trazado 983040" d="M26.934,17.9l-2.673-2.673a.891.891,0,0,1,0-1.26l2.673-2.673,1.26,1.26L26.151,14.6l2.043,2.043Z" transform="translate(-2.511 -0.904)" fill="#fff"/>
      <path id="Trazado_983041" data-name="Trazado 983041" d="M0,0H7.968V1.782H0Z" transform="translate(26.027 16.864) rotate(-63.435)" fill="#fff"/>
      <path id="Trazado_983042" data-name="Trazado 983042" d="M36.553,17.9l-1.26-1.26L37.336,14.6l-2.043-2.043,1.26-1.26,2.673,2.673a.891.891,0,0,1,0,1.26Z" transform="translate(-3.743 -0.904)" fill="#fff"/>
      <path id="Trazado_983043" data-name="Trazado 983043" d="M7.236,54.569H50a6.244,6.244,0,0,0,6.236-6.236.891.891,0,0,0-.891-.891H53.56V18.935a5.35,5.35,0,0,0-5.345-5.345H46.269a2.673,2.673,0,0,0-2.509-1.782H39.128a10.679,10.679,0,0,0-21.024,0H13.472a2.673,2.673,0,0,0-2.509,1.782H9.018a5.35,5.35,0,0,0-5.345,5.345V47.442H1.891A.891.891,0,0,0,1,48.333a6.244,6.244,0,0,0,6.236,6.236ZM51.778,18.935V47.442H50v-29.4a.891.891,0,0,0-.891-.891H46.433V15.372h1.782A3.563,3.563,0,0,1,51.778,18.935ZM23.271,47.442H9.018V18.935H10.8V42.988a2.673,2.673,0,0,0,2.673,2.673H43.76a2.677,2.677,0,0,0,2.673-2.673V18.935h1.782V47.442H33.961a.891.891,0,0,0-.891.891v.891H24.162v-.891A.891.891,0,0,0,23.271,47.442Zm5.345-23.06a10.69,10.69,0,0,0,9.306-5.447h6.729V42.988a.891.891,0,0,1-.891.891H13.472a.891.891,0,0,1-.891-.891V18.935h6.73A10.69,10.69,0,0,0,28.616,24.382ZM43.76,13.589a.891.891,0,0,1,.891.891v2.673H38.72a10.639,10.639,0,0,0,.586-3.461c0-.035,0-.068-.005-.1ZM28.616,4.783a8.908,8.908,0,1,1-8.908,8.908,8.908,8.908,0,0,1,8.908-8.908ZM13.472,13.589h4.46c0,.035-.005.068-.005.1a10.639,10.639,0,0,0,.586,3.462H12.581V14.481a.891.891,0,0,1,.891-.892ZM5.454,18.934a3.563,3.563,0,0,1,3.563-3.563H10.8v1.782H8.127a.891.891,0,0,0-.891.891v29.4H5.454ZM22.38,49.223v.891a.891.891,0,0,0,.891.891h10.69a.891.891,0,0,0,.891-.891v-.891H54.361A4.461,4.461,0,0,1,50,52.786H7.236a4.461,4.461,0,0,1-4.365-3.563Z" transform="translate(0)"/>
      <path id="Trazado_983044" data-name="Trazado 983044" d="M17,28.885h1.782v7.127H17Z" transform="translate(-1.747 -2.824)"/>
      <path id="Trazado_983045" data-name="Trazado 983045" d="M21.891,36.012h3.563a.891.891,0,0,0,.891-.891V29.776a.891.891,0,0,0-.891-.891H21.891a.891.891,0,0,0-.891.891v5.345A.891.891,0,0,0,21.891,36.012Zm.891-5.345h1.782V34.23H22.782Z" transform="translate(-2.183 -2.824)"/>
      <path id="Trazado_983046" data-name="Trazado 983046" d="M29,28.885h1.782v7.127H29Z" transform="translate(-3.056 -2.824)"/>
      <path id="Trazado_983047" data-name="Trazado 983047" d="M33,28.885h1.782v7.127H33Z" transform="translate(-3.493 -2.824)"/>
      <path id="Trazado_983048" data-name="Trazado 983048" d="M37.891,36.012h3.563a.891.891,0,0,0,.891-.891V29.776a.891.891,0,0,0-.891-.891H37.891a.891.891,0,0,0-.891.891v5.345A.891.891,0,0,0,37.891,36.012Zm.891-5.345h1.782V34.23H38.782Z" transform="translate(-3.93 -2.824)"/>
      <path id="Trazado_983049" data-name="Trazado 983049" d="M45,28.885h1.782v7.127H45Z" transform="translate(-4.803 -2.824)"/>
      <path id="Trazado_983050" data-name="Trazado 983050" d="M17,38.885h1.782v7.127H17Z" transform="translate(-1.747 -3.916)"/>
      <path id="Trazado_983051" data-name="Trazado 983051" d="M37.891,46.012h3.563a.891.891,0,0,0,.891-.891V39.776a.891.891,0,0,0-.891-.891H37.891a.891.891,0,0,0-.891.891v5.345A.891.891,0,0,0,37.891,46.012Zm.891-5.345h1.782V44.23H38.782Z" transform="translate(-3.93 -3.916)"/>
      <path id="Trazado_983052" data-name="Trazado 983052" d="M45,38.885h1.782v7.127H45Z" transform="translate(-4.803 -3.916)"/>
      <path id="Trazado_983053" data-name="Trazado 983053" d="M29.891,46.012h3.563a.891.891,0,0,0,.891-.891V39.776a.891.891,0,0,0-.891-.891H29.891a.891.891,0,0,0-.891.891v5.345A.891.891,0,0,0,29.891,46.012Zm.891-5.345h1.782V44.23H30.782Z" transform="translate(-3.056 -3.916)"/>
      <path id="Trazado_983054" data-name="Trazado 983054" d="M21,38.885h1.782v7.127H21Z" transform="translate(-2.183 -3.916)"/>
      <path id="Trazado_983055" data-name="Trazado 983055" d="M25,38.885h1.782v7.127H25Z" transform="translate(-2.62 -3.916)"/>
      <path id="Trazado_983056" data-name="Trazado 983056" d="M28.193,16.638,26.151,14.6l2.043-2.043-1.26-1.26-2.673,2.673a.891.891,0,0,0,0,1.26L26.934,17.9Z" transform="translate(-2.511 -0.904)"/>
      <path id="Trazado_983057" data-name="Trazado 983057" d="M0,0H7.968V1.782H0Z" transform="translate(26.027 16.864) rotate(-63.435)"/>
      <path id="Trazado_983058" data-name="Trazado 983058" d="M36.553,17.9l2.673-2.673a.891.891,0,0,0,0-1.26l-2.673-2.673-1.26,1.26L37.336,14.6l-2.043,2.043Z" transform="translate(-3.743 -0.904)"/>
    </g>
  </g>
</svg>
