<svg xmlns="http://www.w3.org/2000/svg" width="82" height="82" viewBox="0 0 82 82">
  <g id="Grupo_1147774" data-name="Grupo 1147774" transform="translate(-220.369 -1745)">
    <g id="Elipse_11646" data-name="Elipse 11646" transform="translate(220.369 1745)" fill="#fff" stroke="#5e3552" stroke-width="3">
      <circle cx="41" cy="41" r="41" stroke="none"/>
      <circle cx="41" cy="41" r="39.5" fill="none"/>
    </g>
    <g id="ingeniero-de-software" transform="translate(237.291 1742.717)">
      <g id="Grupo_1147773" data-name="Grupo 1147773" transform="translate(0 13.87)">
        <g id="Grupo_1147739" data-name="Grupo 1147739" transform="translate(8.952 0.804)">
          <path id="Trazado_916612" data-name="Trazado 916612" d="M102.416,26.974c-3.6.943-5.241,3.762-4.577,7.845l.652,4.006h23.9l.581-4.006c1.753-12.117-17.184-16.069-20.552-7.845Z" transform="translate(-97.695 -22.639)" fill="#554e56" fill-rule="evenodd"/>
        </g>
        <g id="Grupo_1147740" data-name="Grupo 1147740" transform="translate(5.986 16.99)">
          <path id="Trazado_916613" data-name="Trazado 916613" d="M68.512,199.286c-4.791,0-3.974,6.762,1.071,6.384a6.427,6.427,0,0,0-.5-6.384Z" transform="translate(-65.325 -199.286)" fill="#f6a96c" fill-rule="evenodd"/>
        </g>
        <g id="Grupo_1147741" data-name="Grupo 1147741" transform="translate(32.025 16.99)">
          <path id="Trazado_916614" data-name="Trazado 916614" d="M351.118,199.286c-1.848,2.069-2.249,4.242-.5,6.384,5.045.378,5.862-6.384,1.071-6.384Z" transform="translate(-349.499 -199.286)" fill="#f6a96c" fill-rule="evenodd"/>
        </g>
        <g id="Grupo_1147742" data-name="Grupo 1147742" transform="translate(16.662 0.803)">
          <path id="Trazado_916615" data-name="Trazado 916615" d="M181.836,23.756c6.351-.461,14.311,3.762,13.611,11.54-.018.2-.043.4-.07.607l-.422,2.917h3.864l.581-4.006c1.447-10.006-11.209-14.442-17.564-11.058Z" transform="translate(-181.836 -22.634)" fill="#433f43" fill-rule="evenodd"/>
        </g>
        <g id="Grupo_1147743" data-name="Grupo 1147743" transform="translate(9.748 13.31)">
          <path id="Trazado_916616" data-name="Trazado 916616" d="M118.294,159.125l-6.623.012c-2.906,0-3.524.366-5.29,3.668v3.616a8.649,8.649,0,0,0,.5,2.768,13.427,13.427,0,0,0,1.906,3.576l9.365,2.511,9.729-2.511a13.429,13.429,0,0,0,1.906-3.576,8.648,8.648,0,0,0,.5-2.768v-3.616c-1.765-3.3-2.457-3.665-5.36-3.668Z" transform="translate(-106.381 -159.125)" fill="#fed2a4" fill-rule="evenodd"/>
        </g>
        <g id="Grupo_1147744" data-name="Grupo 1147744" transform="translate(25.929 13.319)">
          <path id="Trazado_916617" data-name="Trazado 916617" d="M282.965,159.225c5.77.015,6.317,5.663,4.824,10.051-.3.888-.734,2.389-1.273,3.579-.083.183-.168.357-.254.522l1.842-.476.174-.046a13.426,13.426,0,0,0,1.906-3.576,8.649,8.649,0,0,0,.5-2.768V162.9c-1.765-3.3-2.457-3.665-5.36-3.668Z" transform="translate(-282.965 -159.225)" fill="#ffbd86" fill-rule="evenodd"/>
        </g>
        <g id="Grupo_1147745" data-name="Grupo 1147745" transform="translate(8.149 0)">
          <path id="Trazado_916618" data-name="Trazado 916618" d="M114.424,31.663a.8.8,0,0,1-.707-.424c-1.685-3.151-2.148-3.241-4.653-3.244l-6.624-.012-6.62.012c-2.528,0-2.915.123-4.583,3.244a.8.8,0,0,1-1.5-.25l-.652-4.006h0c-.71-4.365,1.032-7.493,4.788-8.643a7.691,7.691,0,0,1,5.082-4.006,14.287,14.287,0,0,1,7.555.1,13.947,13.947,0,0,1,7,4.277,10.212,10.212,0,0,1,2.292,8.264l-.581,4.007a.8.8,0,0,1-.656.675A.793.793,0,0,1,114.424,31.663ZM90.669,26.725l.3,1.815c1.233-1.8,2.309-2.147,4.853-2.149l6.623-.012,6.626.012c2.538,0,3.661.365,4.889,2.114l.256-1.765c.878-6.068-3.828-9.59-8.125-10.762-4.257-1.161-9.365-.388-10.89,3.336a.8.8,0,0,1-.539.472c-4.056,1.063-4.407,4.361-3.988,6.94Z" transform="translate(-88.929 -13.87)"/>
        </g>
        <g id="Grupo_1147746" data-name="Grupo 1147746" transform="translate(18.943 18.317)">
          <path id="Trazado_916619" data-name="Trazado 916619" d="M207.534,215.857a.8.8,0,0,1-.349-1.526,5.01,5.01,0,0,1,4.6,0,.8.8,0,1,1-.7,1.446,3.408,3.408,0,0,0-3.2,0A.8.8,0,0,1,207.534,215.857Z" transform="translate(-206.731 -213.773)"/>
        </g>
        <g id="Grupo_1147747" data-name="Grupo 1147747" transform="translate(32.346 16.187)">
          <path id="Trazado_916620" data-name="Trazado 916620" d="M354.2,198.532q-.227,0-.459-.017a.8.8,0,0,1,.12-1.6,3.022,3.022,0,0,0,2.965-1.289,2.44,2.44,0,0,0,.184-2.446,2.248,2.248,0,0,0-2.138-1.046H354.3a.8.8,0,1,1,0-1.6h.575a3.8,3.8,0,0,1,3.548,1.883,4.061,4.061,0,0,1-.245,4.084A4.568,4.568,0,0,1,354.2,198.532Z" transform="translate(-353.002 -190.528)"/>
        </g>
        <g id="Grupo_1147748" data-name="Grupo 1147748" transform="translate(5.187 16.187)">
          <path id="Trazado_916621" data-name="Trazado 916621" d="M61.264,198.532a4.566,4.566,0,0,1-3.973-2.035,4.062,4.062,0,0,1-.245-4.085,3.8,3.8,0,0,1,3.546-1.883h.575a.8.8,0,1,1,0,1.6h-.575a2.247,2.247,0,0,0-2.137,1.046,2.441,2.441,0,0,0,.184,2.447,3.021,3.021,0,0,0,2.964,1.288.8.8,0,1,1,.12,1.6Q61.491,198.532,61.264,198.532Z" transform="translate(-56.607 -190.528)"/>
        </g>
        <g id="Grupo_1147749" data-name="Grupo 1147749" transform="translate(8.945 16.188)">
          <path id="Trazado_916622" data-name="Trazado 916622" d="M119.92,202.094a.8.8,0,0,1-.646-1.278,10.489,10.489,0,0,0,2.246-5.869v-3.616a.8.8,0,0,1,1.6,0v3.616a11.931,11.931,0,0,1-2.557,6.819A.8.8,0,0,1,119.92,202.094Zm-19.092,0a.8.8,0,0,1-.647-.328,11.932,11.932,0,0,1-2.557-6.819v-3.616a.8.8,0,1,1,1.6,0v3.616a10.491,10.491,0,0,0,2.246,5.869.8.8,0,0,1-.646,1.277Z" transform="translate(-97.624 -190.529)"/>
        </g>
        <g id="Grupo_1147750" data-name="Grupo 1147750" transform="translate(23.646 16.99)">
          <path id="Trazado_916623" data-name="Trazado 916623" d="M259.787,199.286a1.73,1.73,0,0,0-1.729,1.724v1.877a1.73,1.73,0,0,0,1.729,1.724h1.591a1.73,1.73,0,0,0,1.729-1.724V201.01a1.73,1.73,0,0,0-1.729-1.724Z" transform="translate(-258.058 -199.286)" fill="#99e6fc" fill-rule="evenodd"/>
        </g>
        <g id="Grupo_1147751" data-name="Grupo 1147751" transform="translate(14.698 16.99)">
          <path id="Trazado_916624" data-name="Trazado 916624" d="M162.13,199.286a1.73,1.73,0,0,0-1.729,1.724v1.877a1.73,1.73,0,0,0,1.729,1.724h1.591a1.73,1.73,0,0,0,1.729-1.724V201.01a1.73,1.73,0,0,0-1.729-1.724Z" transform="translate(-160.401 -199.286)" fill="#99e6fc" fill-rule="evenodd"/>
        </g>
        <g id="Grupo_1147752" data-name="Grupo 1147752" transform="translate(0.802 37.077)">
          <path id="Trazado_916625" data-name="Trazado 916625" d="M13.667,419.3c-4.109,1.443-4.91,4.66-4.91,8.007v4.916a.64.64,0,0,0,.639.635h6.669l3.185-6.274-3.3-8.083Z" transform="translate(-8.757 -418.505)" fill="#99e6fc" fill-rule="evenodd"/>
        </g>
        <g id="Grupo_1147753" data-name="Grupo 1147753" transform="translate(31.622 37.077)">
          <path id="Trazado_916626" data-name="Trazado 916626" d="M348.877,418.505l-3.778,8.3,3.662,6.06h6.666a.64.64,0,0,0,.639-.635v-4.916c0-3.347-.8-6.564-4.91-8.007Z" transform="translate(-345.099 -418.505)" fill="#99e6fc" fill-rule="evenodd"/>
        </g>
        <g id="Grupo_1147754" data-name="Grupo 1147754" transform="translate(7.992 26.95)">
          <path id="Trazado_916627" data-name="Trazado 916627" d="M110.468,307.979H88.838a1.627,1.627,0,0,0-1.621,1.62v18.467h27.408V309.6a1.627,1.627,0,0,0-1.621-1.62Z" transform="translate(-87.217 -307.979)" fill="#7a6d79" fill-rule="evenodd"/>
        </g>
        <g id="Grupo_1147755" data-name="Grupo 1147755" transform="translate(5.7 47.037)">
          <path id="Trazado_916628" data-name="Trazado 916628" d="M91.91,527.2H62.993a.786.786,0,0,0-.783.781v1.211a2.414,2.414,0,0,0,2.411,2.4H91.793a2.414,2.414,0,0,0,2.411-2.4v-1.211a.786.786,0,0,0-.786-.781Z" transform="translate(-62.21 -527.198)" fill="#554e56" fill-rule="evenodd"/>
        </g>
        <g id="Grupo_1147756" data-name="Grupo 1147756" transform="translate(30.689 26.95)">
          <path id="Trazado_916629" data-name="Trazado 916629" d="M336.536,318.108v9.96h3.09V309.6a1.627,1.627,0,0,0-1.621-1.62h-3.09a1.627,1.627,0,0,1,1.621,1.62v8.507Z" transform="translate(-334.915 -307.981)" fill="#685e68" fill-rule="evenodd"/>
        </g>
        <g id="Grupo_1147757" data-name="Grupo 1147757" transform="translate(32.194 47.037)">
          <path id="Trazado_916630" data-name="Trazado 916630" d="M354.548,527.2H352.97a.786.786,0,0,1,.783.781v1.211a2.414,2.414,0,0,1-2.411,2.4h3.09a2.414,2.414,0,0,0,2.411-2.4v-1.211a.786.786,0,0,0-.786-.781Z" transform="translate(-351.342 -527.198)" fill="#433f43" fill-rule="evenodd"/>
        </g>
        <g id="Grupo_1147758" data-name="Grupo 1147758" transform="translate(35.4 37.077)">
          <path id="Trazado_916631" data-name="Trazado 916631" d="M386.332,418.505v2.49c3.46,1.556,4.589,2.835,4.589,5.6v6.264h1.961a.64.64,0,0,0,.639-.635v-4.916c0-3.347-.8-6.564-4.91-8.007Z" transform="translate(-386.332 -418.505)" fill="#62dbfb" fill-rule="evenodd"/>
        </g>
        <g id="Grupo_1147759" data-name="Grupo 1147759" transform="translate(15.044 30.05)">
          <path id="Trazado_916632" data-name="Trazado 916632" d="M169.21,343.273a5.707,5.707,0,0,0-2.325,1.343l-.817-.473a.525.525,0,0,0-.716.192l-1.1,1.9a.52.52,0,0,0,.193.711l.814.47a5.831,5.831,0,0,0,0,2.679l-.814.47a.52.52,0,0,0-.193.711l1.1,1.9a.527.527,0,0,0,.716.189l.817-.47a5.7,5.7,0,0,0,2.325,1.339v.94a.522.522,0,0,0,.52.522h2.206a.522.522,0,0,0,.52-.522v-.94a5.7,5.7,0,0,0,2.325-1.339l.82.47a.524.524,0,0,0,.713-.189l1.1-1.9a.52.52,0,0,0-.193-.711l-.814-.47a5.831,5.831,0,0,0,0-2.679l.814-.47a.52.52,0,0,0,.193-.711l-1.1-1.9a.523.523,0,0,0-.713-.192l-.82.473a5.706,5.706,0,0,0-2.325-1.343v-.94a.519.519,0,0,0-.52-.519H169.73a.519.519,0,0,0-.52.519v.94Zm1.624,3.018a2.469,2.469,0,1,1-2.478,2.469,2.473,2.473,0,0,1,2.478-2.469Z" transform="translate(-164.181 -341.815)" fill="#e5e1e5" fill-rule="evenodd"/>
        </g>
        <g id="Grupo_1147760" data-name="Grupo 1147760" transform="translate(18.417 33.724)">
          <path id="Trazado_916633" data-name="Trazado 916633" d="M204.27,388.45a3.271,3.271,0,1,1,3.277-3.271A3.279,3.279,0,0,1,204.27,388.45Zm0-4.937a1.666,1.666,0,1,0,1.673,1.666A1.673,1.673,0,0,0,204.27,383.513Z" transform="translate(-200.99 -381.908)"/>
        </g>
        <g id="Grupo_1147761" data-name="Grupo 1147761" transform="translate(14.241 29.248)">
          <path id="Trazado_916634" data-name="Trazado 916634" d="M163.973,348.551h-2.206a1.325,1.325,0,0,1-1.323-1.324v-.369a6.557,6.557,0,0,1-1.616-.931l-.324.186a1.332,1.332,0,0,1-1.81-.481l-1.1-1.906a1.322,1.322,0,0,1,.489-1.809l.319-.184a6.6,6.6,0,0,1,0-1.857l-.322-.186a1.322,1.322,0,0,1-.485-1.809l1.1-1.9a1.328,1.328,0,0,1,1.809-.487l.327.189a6.564,6.564,0,0,1,1.614-.933v-.369a1.323,1.323,0,0,1,1.323-1.321h2.206a1.323,1.323,0,0,1,1.323,1.321v.369a6.561,6.561,0,0,1,1.615.933l.326-.188a1.325,1.325,0,0,1,1.81.487l1.1,1.9a1.322,1.322,0,0,1-.489,1.809l-.319.184a6.6,6.6,0,0,1,0,1.857l.322.186a1.322,1.322,0,0,1,.485,1.809l-1.1,1.9a1.327,1.327,0,0,1-1.809.482l-.324-.186a6.555,6.555,0,0,1-1.616.932v.369A1.324,1.324,0,0,1,163.973,348.551Zm-1.923-1.6h1.641v-.659a.8.8,0,0,1,.577-.77,4.927,4.927,0,0,0,2-1.151.8.8,0,0,1,.952-.115l.58.332.819-1.416-.571-.33a.8.8,0,0,1-.38-.878,5.029,5.029,0,0,0,0-2.313.8.8,0,0,1,.38-.878l.571-.33-.82-1.417-.577.333a.8.8,0,0,1-.954-.113,4.931,4.931,0,0,0-2-1.155.8.8,0,0,1-.576-.77v-.656h-1.641v.656a.8.8,0,0,1-.576.77,4.929,4.929,0,0,0-2,1.155.8.8,0,0,1-.955.113l-.575-.333-.82,1.418.571.33a.8.8,0,0,1,.38.878,5.027,5.027,0,0,0,0,2.312.8.8,0,0,1-.38.878l-.571.33.819,1.417.578-.332a.8.8,0,0,1,.953.114,4.926,4.926,0,0,0,2,1.151.8.8,0,0,1,.577.77v.659Zm5.985-2.226h0Zm.824-1.411h0Zm-11.976,0h0Zm11.874-.385h0Zm-11.776,0h0Zm11.777-4.235h0Zm-11.775,0h0Zm11.875-.385h0Zm-11.979,0h0Zm11.161-1.416h0Zm-.384-.1h0Zm-9.571,0h0Z" transform="translate(-155.415 -333.057)"/>
        </g>
        <g id="Grupo_1147762" data-name="Grupo 1147762" transform="translate(7.189 26.147)">
          <path id="Trazado_916635" data-name="Trazado 916635" d="M106.67,320.914H79.261a.8.8,0,0,1-.8-.8V301.645a2.426,2.426,0,0,1,2.424-2.423H90.7a.8.8,0,1,1,0,1.6H80.883a.829.829,0,0,0-.819.818v17.665h25.8V301.645a.819.819,0,0,0-.819-.818H94.436a.8.8,0,0,1,0-1.6h10.613a2.426,2.426,0,0,1,2.424,2.423v18.467A.8.8,0,0,1,106.67,320.914Z" transform="translate(-78.459 -299.222)"/>
        </g>
        <g id="Grupo_1147763" data-name="Grupo 1147763" transform="translate(4.898 46.235)">
          <path id="Trazado_916636" data-name="Trazado 916636" d="M83.839,524.446a.8.8,0,0,1,0-1.6,1.607,1.607,0,0,0,1.608-1.6v-1.19H55.058v1.19a1.607,1.607,0,0,0,1.608,1.6.8.8,0,0,1,0,1.6,3.214,3.214,0,0,1-3.213-3.207v-1.212a1.586,1.586,0,0,1,1.586-1.583H85.463a1.588,1.588,0,0,1,1.589,1.583v1.212A3.214,3.214,0,0,1,83.839,524.446Z" transform="translate(-53.453 -518.444)"/>
        </g>
        <g id="Grupo_1147764" data-name="Grupo 1147764" transform="translate(13.895 16.187)">
          <path id="Trazado_916637" data-name="Trazado 916637" d="M155.766,197.458h-1.591a2.532,2.532,0,0,1-2.531-2.526v-1.877a2.532,2.532,0,0,1,2.531-2.527h1.591a2.532,2.532,0,0,1,2.531,2.527v1.877A2.531,2.531,0,0,1,155.766,197.458Zm-1.591-5.325a.925.925,0,0,0-.926.922v1.877a.925.925,0,0,0,.926.922h1.591a.925.925,0,0,0,.926-.922v-1.877a.925.925,0,0,0-.926-.922Z" transform="translate(-151.644 -190.528)"/>
        </g>
        <g id="Grupo_1147765" data-name="Grupo 1147765" transform="translate(22.844 16.187)">
          <path id="Trazado_916638" data-name="Trazado 916638" d="M253.423,197.458h-1.591a2.532,2.532,0,0,1-2.531-2.526v-1.877a2.532,2.532,0,0,1,2.531-2.527h1.591a2.532,2.532,0,0,1,2.531,2.526v1.877A2.531,2.531,0,0,1,253.423,197.458Zm-1.591-5.325a.925.925,0,0,0-.926.922v1.877a.925.925,0,0,0,.926.922h1.591a.925.925,0,0,0,.926-.922v-1.877a.925.925,0,0,0-.926-.922Z" transform="translate(-249.301 -190.528)"/>
        </g>
        <g id="Grupo_1147766" data-name="Grupo 1147766" transform="translate(0 36.275)">
          <path id="Trazado_916639" data-name="Trazado 916639" d="M41.95,425.708H1.442A1.441,1.441,0,0,1,0,424.271v-4.916c0-2.941.565-7.049,5.447-8.764l2.28-.8a.8.8,0,0,1,.531,1.514l-2.279.8c-3.065,1.077-4.373,3.245-4.373,7.25V424.1H41.787v-4.748c0-4-1.308-6.173-4.374-7.25l-2.279-.8a.8.8,0,0,1,.531-1.514l2.279.8c4.882,1.715,5.447,5.823,5.447,8.764v4.916A1.441,1.441,0,0,1,41.95,425.708Z" transform="translate(0 -409.746)"/>
        </g>
        <g id="Grupo_1147767" data-name="Grupo 1147767" transform="translate(31.371 23.736)">
          <path id="Trazado_916640" data-name="Trazado 916640" d="M363.39,277.609a10.124,10.124,0,0,1-14.5,13.6l-2.818-.131-3.714-.174,1.426-3.427,1.083-2.6a10.134,10.134,0,0,1,18.521-7.271Z" transform="translate(-342.36 -272.913)" fill="#e5e1e5" fill-rule="evenodd"/>
        </g>
        <g id="Grupo_1147768" data-name="Grupo 1147768" transform="translate(42.427 23.736)">
          <path id="Trazado_916641" data-name="Trazado 916641" d="M470.44,277.643a10.114,10.114,0,0,1-7.144,15.422,10.111,10.111,0,1,0-.275-20.054,10.118,10.118,0,0,1,7.419,4.632Z" transform="translate(-463.021 -272.913)" fill="#d7d0d6" fill-rule="evenodd"/>
        </g>
        <g id="Grupo_1147769" data-name="Grupo 1147769" transform="translate(30.569 22.939)">
          <path id="Trazado_916642" data-name="Trazado 916642" d="M346.872,286.035a10.93,10.93,0,0,1-6.206-1.938l-6.3-.294a.8.8,0,0,1-.7-1.11l2.419-5.81A10.938,10.938,0,1,1,355.6,281.7a.8.8,0,0,1-1.279-.969,9.32,9.32,0,1,0-16.619-3.9.8.8,0,0,1-.048.457l-2.069,4.97,5.389.252a.8.8,0,0,1,.432.151,9.315,9.315,0,0,0,10.468.317.8.8,0,1,1,.857,1.357A10.954,10.954,0,0,1,346.872,286.035Z" transform="translate(-333.603 -264.21)"/>
        </g>
        <g id="Grupo_1147770" data-name="Grupo 1147770" transform="translate(37.152 30.721)">
          <path id="Trazado_916643" data-name="Trazado 916643" d="M407.822,356.033a.8.8,0,0,1-.695-.4l-1.566-2.7a.8.8,0,0,1,.007-.818l1.566-2.591a.8.8,0,0,1,1.373.83l-1.32,2.184,1.328,2.286a.8.8,0,0,1-.693,1.205Z" transform="translate(-405.453 -349.14)"/>
        </g>
        <g id="Grupo_1147771" data-name="Grupo 1147771" transform="translate(41.817 30.441)">
          <path id="Trazado_916644" data-name="Trazado 916644" d="M457.167,353.528a.8.8,0,0,1-.745-1.1l2.334-5.846a.8.8,0,1,1,1.491.6l-2.334,5.846A.8.8,0,0,1,457.167,353.528Z" transform="translate(-456.365 -346.077)"/>
        </g>
        <g id="Grupo_1147772" data-name="Grupo 1147772" transform="translate(47.496 30.721)">
          <path id="Trazado_916645" data-name="Trazado 916645" d="M519.135,356.032a.8.8,0,0,1-.693-1.206l1.328-2.286-1.32-2.184a.8.8,0,1,1,1.373-.83l1.566,2.591a.8.8,0,0,1,.007.818l-1.566,2.7A.8.8,0,0,1,519.135,356.032Z" transform="translate(-518.333 -349.139)"/>
        </g>
      </g>
    </g>
  </g>
</svg>
