<svg xmlns="http://www.w3.org/2000/svg" width="82" height="82" viewBox="0 0 82 82">
  <g id="Grupo_1147777" data-name="Grupo 1147777" transform="translate(-220.369 -2311)">
    <g id="Elipse_11645" data-name="Elipse 11645" transform="translate(220.369 2311)" fill="#fff" stroke="#5e3552" stroke-width="3">
      <circle cx="41" cy="41" r="41" stroke="none"/>
      <circle cx="41" cy="41" r="39.5" fill="none"/>
    </g>
    <g id="programmer_360487_1_" data-name="programmer_360487 (1)" transform="translate(235.227 2323.7)">
      <g id="Grupo_1147775" data-name="Grupo 1147775" transform="translate(42.042 23.533)">
        <path id="Trazado_982977" data-name="Trazado 982977" d="M420.875,231.634v1.279H411.7v-1.279a1.348,1.348,0,0,1,1.348-1.348h6.48a1.348,1.348,0,0,1,1.348,1.348Z" transform="translate(-411.7 -230.286)" fill="#ecebed"/>
        <path id="Trazado_982978" data-name="Trazado 982978" d="M413.1,347.646h7.779v1.641a1.348,1.348,0,0,1-1.348,1.348h-6.48a1.348,1.348,0,0,1-1.348-1.348v-1.641Z" transform="translate(-411.699 -335.661)" fill="#ecebed"/>
      </g>
      <g id="Grupo_1147776" data-name="Grupo 1147776" transform="translate(1.072 22.615)">
        <rect id="Rectángulo_408601" data-name="Rectángulo 408601" width="9.175" height="9.358" transform="translate(40.97 3.545)" fill="#27b5f7"/>
        <path id="Trazado_982979" data-name="Trazado 982979" d="M35.766,222.735V239.1H10.5V222.735a1.411,1.411,0,0,1,1.377-1.443H34.389a1.411,1.411,0,0,1,1.377,1.443Z" transform="translate(-10.499 -221.292)" fill="#27b5f7"/>
      </g>
      <path id="Trazado_982980" data-name="Trazado 982980" d="M123.12,319.126V321.2a1.72,1.72,0,0,1-1.058,1.588l-6.867,2.861a4.214,4.214,0,0,0-2.4,3.819v8.281h29.242v-8.281a4.214,4.214,0,0,0-2.4-3.819l-6.866-2.861a1.72,1.72,0,0,1-1.058-1.588v-2.078Z" transform="translate(-101.28 -286.521)" fill="#febba0"/>
      <path id="Trazado_982981" data-name="Trazado 982981" d="M139.643,345.713l-6.866-2.861a1.719,1.719,0,0,1-1.045-1.385v1.309a4.328,4.328,0,0,1-4.315,4.315h0a4.328,4.328,0,0,1-4.315-4.315v-1.282a1.719,1.719,0,0,1-1.042,1.358l-6.866,2.861a4.214,4.214,0,0,0-2.4,3.819v8.281h29.242v-8.281A4.213,4.213,0,0,0,139.643,345.713Z" transform="translate(-101.278 -306.58)" fill="#89cd37"/>
      <path id="Trazado_982982" data-name="Trazado 982982" d="M160.134,87.572V84.464a9.584,9.584,0,1,0-19.167,0h-.038v3.109a2.39,2.39,0,0,0,0,4.78v1.784a4.687,4.687,0,0,0,1.96,3.578l5.777,3.3a3.315,3.315,0,0,0,3.731,0l5.76-3.3a4.7,4.7,0,0,0,1.977-3.578V92.352a2.39,2.39,0,1,0,0-4.78Z" transform="translate(-124.392 -67.216)" fill="#febba0"/>
      <path id="Trazado_982983" data-name="Trazado 982983" d="M164.318,34.566c-1.808-2.3-3.72-2.8-5.139-2.1a8.167,8.167,0,0,0-5.628-1.923,9.426,9.426,0,0,0-9.843,9.219,15.252,15.252,0,0,0,1.862,7.579s.694-4.869,5.461-4.869a7.948,7.948,0,0,0,6.447-2.818c.57,1.484,3.327,2.107,4.411,3.065a12.8,12.8,0,0,1,2.885,3.378S168.152,39.451,164.318,34.566Z" transform="translate(-129.033 -27.403)" fill="#703e41"/>
      <path id="Trazado_982984" data-name="Trazado 982984" d="M104.062,251.872h-.014a1.067,1.067,0,0,1,0-2.134h.014a1.067,1.067,0,0,1,0,2.134Z" transform="translate(-92.465 -224.218)"/>
      <path id="Trazado_982985" data-name="Trazado 982985" d="M43.479,251.872H40.435a1.067,1.067,0,1,1,0-2.134h3.044a1.067,1.067,0,1,1,0,2.134Z" transform="translate(-35.348 -224.218)"/>
      <path id="Trazado_982986" data-name="Trazado 982986" d="M49.054,312.818H40.435a1.067,1.067,0,0,1,0-2.134h8.619a1.067,1.067,0,1,1,0,2.134Z" transform="translate(-35.348 -278.941)"/>
      <path id="Trazado_982987" data-name="Trazado 982987" d="M104.062,282.344h-.014a1.067,1.067,0,0,1,0-2.134h.014a1.067,1.067,0,0,1,0,2.134Z" transform="translate(-92.465 -251.579)"/>
      <path id="Trazado_982988" data-name="Trazado 982988" d="M43.479,282.345H40.435a1.067,1.067,0,0,1,0-2.134h3.044a1.067,1.067,0,1,1,0,2.134Z" transform="translate(-35.348 -251.579)"/>
      <path id="Trazado_982989" data-name="Trazado 982989" d="M134.566,282.345h-.1a1.067,1.067,0,1,1,0-2.134h.1a1.067,1.067,0,1,1,0,2.134Z" transform="translate(-119.777 -251.579)"/>
      <path id="Trazado_982990" data-name="Trazado 982990" d="M1.081,493.219H1.067a1.067,1.067,0,1,1,0-2.134h.014a1.067,1.067,0,1,1,0,2.134Z" transform="translate(0 -440.919)"/>
      <path id="Trazado_982991" data-name="Trazado 982991" d="M492,493.219h-.014a1.067,1.067,0,1,1,0-2.134H492a1.067,1.067,0,0,1,0,2.134Z" transform="translate(-440.785 -440.919)"/>
      <path id="Trazado_982992" data-name="Trazado 982992" d="M283.591,214.51a1.193,1.193,0,1,1,1.193-1.193A1.194,1.194,0,0,1,283.591,214.51Z" transform="translate(-253.56 -190.446)"/>
      <path id="Trazado_982993" data-name="Trazado 982993" d="M207.386,214.51a1.193,1.193,0,1,1,1.193-1.193A1.194,1.194,0,0,1,207.386,214.51Z" transform="translate(-185.137 -190.446)"/>
      <path id="Trazado_982994" data-name="Trazado 982994" d="M237.47,264.526a2.112,2.112,0,0,1-2.11-2.11,1.067,1.067,0,0,1,1.067-1.067h2.085a1.067,1.067,0,0,1,1.067,1.067A2.112,2.112,0,0,1,237.47,264.526Z" transform="translate(-211.326 -234.644)"/>
      <path id="Trazado_982995" data-name="Trazado 982995" d="M192.47,418.217a1.064,1.064,0,0,1-.754-.312l-2.4-2.4a1.067,1.067,0,0,1,0-1.509l2.4-2.4a1.067,1.067,0,1,1,1.509,1.509l-1.642,1.642,1.642,1.642a1.067,1.067,0,0,1-.755,1.821Z" transform="translate(-169.706 -369.274)"/>
      <path id="Trazado_982996" data-name="Trazado 982996" d="M279.349,418.216a1.067,1.067,0,0,1-.754-1.821l1.642-1.642-1.642-1.642A1.067,1.067,0,1,1,280.1,411.6l2.4,2.4a1.067,1.067,0,0,1,0,1.509l-2.4,2.4A1.063,1.063,0,0,1,279.349,418.216Z" transform="translate(-249.865 -369.273)"/>
      <path id="Trazado_982997" data-name="Trazado 982997" d="M242.437,418a1.078,1.078,0,0,1-.194-.018,1.067,1.067,0,0,1-.856-1.242l.886-4.817a1.067,1.067,0,1,1,2.1.386l-.887,4.817A1.068,1.068,0,0,1,242.437,418Z" transform="translate(-216.721 -369.059)"/>
      <path id="Trazado_982998" data-name="Trazado 982998" d="M53.4,72.967a3.222,3.222,0,0,1-3.219-3.219v-2.1a3.219,3.219,0,0,1,6.437,0v2.1A3.222,3.222,0,0,1,53.4,72.967Zm0-6.4A1.086,1.086,0,0,0,52.32,67.65v2.1a1.085,1.085,0,0,0,2.169,0v-2.1A1.086,1.086,0,0,0,53.4,66.566Z" transform="translate(-45.061 -57.835)"/>
      <path id="Trazado_982999" data-name="Trazado 982999" d="M3.285,72.968A1.067,1.067,0,0,1,2.218,71.9V68.075l-.346.346A1.067,1.067,0,0,1,.362,66.913L2.53,64.745a1.067,1.067,0,0,1,1.821.755v6.4A1.067,1.067,0,0,1,3.285,72.968Z" transform="translate(-0.045 -57.836)"/>
      <path id="Trazado_983000" data-name="Trazado 983000" d="M402.555,8.554a3.222,3.222,0,0,1-3.219-3.219v-2.1a3.219,3.219,0,0,1,6.437,0v2.1A3.222,3.222,0,0,1,402.555,8.554Zm0-6.4a1.086,1.086,0,0,0-1.085,1.085v2.1a1.085,1.085,0,0,0,2.169,0v-2.1A1.086,1.086,0,0,0,402.555,2.153Z" transform="translate(-358.557)"/>
      <path id="Trazado_983001" data-name="Trazado 983001" d="M473.109,8.554a1.067,1.067,0,0,1-1.067-1.067V3.662l-.346.347A1.067,1.067,0,1,1,470.186,2.5L472.354.332a1.067,1.067,0,0,1,1.821.755v6.4A1.067,1.067,0,0,1,473.109,8.554Z" transform="translate(-421.892 0)"/>
      <path id="Trazado_983002" data-name="Trazado 983002" d="M410.146,219.838h-6.48a2.418,2.418,0,0,0-2.415,2.415v12.278a2.418,2.418,0,0,0,2.415,2.415h6.48a2.418,2.418,0,0,0,2.415-2.415V222.253A2.418,2.418,0,0,0,410.146,219.838Zm-6.761,4.76h7.042v7.224h-7.042Zm0-2.346a.281.281,0,0,1,.281-.281h6.48a.281.281,0,0,1,.281.281v.212h-7.042v-.212Zm7.042,12.278a.281.281,0,0,1-.281.281h-6.48a.281.281,0,0,1-.281-.281v-.574h7.042v.574Z" transform="translate(-360.276 -197.372)"/>
      <path id="Trazado_983003" data-name="Trazado 983003" d="M47.792,68.187H41.873V60.973a5.257,5.257,0,0,0-3.052-4.8l-6.866-2.861a.651.651,0,0,1-.394-.5c0-.005,0-.01,0-.015a.642.642,0,0,1-.006-.086V51.044l2.789-1.6.057-.035a5.762,5.762,0,0,0,2.453-4.387c0-.027,0-.054,0-.081v-.886a3.457,3.457,0,0,0,0-6.577v-.529c.609-1.325,3.136-7.557-.684-12.424-1.765-2.249-3.882-3.205-5.789-2.658a9.43,9.43,0,0,0-5.818-1.777,10.493,10.493,0,0,0-10.91,10.285,17.232,17.232,0,0,0,1.54,7.227,3.475,3.475,0,0,0-1.851,1.967H2.5a2.48,2.48,0,0,0-2.444,2.51V58.446a1.067,1.067,0,0,0,1.067,1.067H7.133v2.166H6.346a1.067,1.067,0,1,0,0,2.134H10.5v4.374H4.578a1.067,1.067,0,0,0,0,2.134H47.792a1.067,1.067,0,1,0,0-2.134ZM37.11,40.767a1.324,1.324,0,0,1-1.323,1.323,1.067,1.067,0,0,0-1.067,1.067V44.9a3.672,3.672,0,0,1-1.472,2.714L27.52,50.9l-.057.035a2.257,2.257,0,0,1-2.555,0l-.059-.036L19.1,47.611A3.616,3.616,0,0,1,17.65,44.9V43.157a1.067,1.067,0,0,0-1.067-1.067,1.322,1.322,0,0,1-.216-2.626l1.181.6A4.426,4.426,0,0,0,26.184,42a4.426,4.426,0,0,0,8.639-1.927l1.185-.61A1.324,1.324,0,0,1,37.11,40.767Zm-7.692,11.5v1.95a3.233,3.233,0,1,1-6.467,0V52.269l.811.464a4.388,4.388,0,0,0,4.846,0ZM30.5,36.592a4.433,4.433,0,0,0-4.315,3.443A4.423,4.423,0,0,0,18.5,38.152l-.786-.4a4.419,4.419,0,0,1,4.329-3.6,9.121,9.121,0,0,0,6.345-2.26,10.182,10.182,0,0,0,2.33,1.4,7.791,7.791,0,0,1,1.476.836A13.337,13.337,0,0,1,34.721,37v.73l-.845.435A4.417,4.417,0,0,0,30.5,36.592Zm2.293,4.426A2.292,2.292,0,1,1,30.5,38.726,2.3,2.3,0,0,1,32.791,41.018Zm-8.63,0a2.292,2.292,0,1,1-2.292-2.292A2.3,2.3,0,0,1,24.161,41.018Zm.4-18.794A7.064,7.064,0,0,1,29.5,23.891a1.067,1.067,0,0,0,1.16.148c1.1-.533,2.528.141,3.833,1.8h0c2.241,2.855,1.657,6.5,1.012,8.623a18.11,18.11,0,0,0-1.9-1.933,8.785,8.785,0,0,0-1.955-1.156c-.874-.426-1.961-.955-2.167-1.491a1.067,1.067,0,0,0-1.8-.315,6.931,6.931,0,0,1-5.639,2.448,6.112,6.112,0,0,0-5.42,2.932c-.037.059-.074.118-.109.177a15.653,15.653,0,0,1-.727-4.752A8.383,8.383,0,0,1,24.564,22.224ZM10.5,60.973v.706H9.267V59.513H10.7A5.332,5.332,0,0,0,10.5,60.973Zm1.377-3.594H2.185v-15.3A.353.353,0,0,1,2.5,41.7H13.258a3.47,3.47,0,0,0,2.258,2.352v.886c0,.027,0,.054,0,.081a5.755,5.755,0,0,0,2.436,4.387l.059.036,2.8,1.6v1.656a.652.652,0,0,1-.4.6L13.55,56.169A4.678,4.678,0,0,0,11.875,57.379ZM39.739,68.187H12.631V60.973a3.163,3.163,0,0,1,1.739-2.834L20.935,55.4a5.381,5.381,0,0,0,10.5,0L38,58.139a3.163,3.163,0,0,1,1.739,2.834v7.214Z" transform="translate(-0.046 -18.021)"/>
    </g>
  </g>
</svg>
