<svg id="Grupo_1145482" data-name="Grupo 1145482" xmlns="http://www.w3.org/2000/svg" xmlns:xlink="http://www.w3.org/1999/xlink" width="381.888" height="312.11" viewBox="0 0 381.888 312.11">
  <defs>
    <clipPath id="clip-path">
      <rect id="Rectángulo_406096" data-name="Rectángulo 406096" width="381.888" height="312.11" fill="none"/>
    </clipPath>
    <clipPath id="clip-path-3">
      <rect id="Rectángulo_406034" data-name="Rectángulo 406034" width="336.127" height="312.11" fill="none"/>
    </clipPath>
    <clipPath id="clip-path-4">
      <rect id="Rectángulo_406035" data-name="Rectángulo 406035" width="248.011" height="180.876" fill="none"/>
    </clipPath>
    <clipPath id="clip-path-5">
      <rect id="Rectángulo_406036" data-name="Rectángulo 406036" width="129.179" height="117.653" fill="none"/>
    </clipPath>
    <clipPath id="clip-path-6">
      <rect id="Rectángulo_406063" data-name="Rectángulo 406063" width="67.883" height="5.26" fill="none"/>
    </clipPath>
    <clipPath id="clip-path-7">
      <rect id="Rectángulo_406065" data-name="Rectángulo 406065" width="39.218" height="5.26" fill="none"/>
    </clipPath>
    <clipPath id="clip-path-8">
      <rect id="Rectángulo_406067" data-name="Rectángulo 406067" width="22.845" height="5.26" fill="none"/>
    </clipPath>
    <clipPath id="clip-path-9">
      <rect id="Rectángulo_406069" data-name="Rectángulo 406069" width="37.594" height="5.26" fill="none"/>
    </clipPath>
    <clipPath id="clip-path-10">
      <rect id="Rectángulo_406071" data-name="Rectángulo 406071" width="58.603" height="5.26" fill="none"/>
    </clipPath>
    <clipPath id="clip-path-12">
      <rect id="Rectángulo_406075" data-name="Rectángulo 406075" width="27.361" height="5.26" fill="none"/>
    </clipPath>
    <clipPath id="clip-path-13">
      <rect id="Rectángulo_406077" data-name="Rectángulo 406077" width="44.3" height="5.26" fill="none"/>
    </clipPath>
    <clipPath id="clip-path-14">
      <rect id="Rectángulo_406079" data-name="Rectángulo 406079" width="53.71" height="5.26" fill="none"/>
    </clipPath>
    <clipPath id="clip-path-16">
      <rect id="Rectángulo_406085" data-name="Rectángulo 406085" width="29.441" height="88.434" fill="none"/>
    </clipPath>
    <clipPath id="clip-path-17">
      <rect id="Rectángulo_406086" data-name="Rectángulo 406086" width="62.968" height="98.451" fill="none"/>
    </clipPath>
    <clipPath id="clip-path-18">
      <rect id="Rectángulo_406087" data-name="Rectángulo 406087" width="31.037" height="90.752" fill="none"/>
    </clipPath>
    <clipPath id="clip-path-19">
      <rect id="Rectángulo_406088" data-name="Rectángulo 406088" width="44.539" height="44.748" fill="none"/>
    </clipPath>
    <clipPath id="clip-path-20">
      <rect id="Rectángulo_406089" data-name="Rectángulo 406089" width="35.183" height="12.928" fill="none"/>
    </clipPath>
    <clipPath id="clip-path-21">
      <rect id="Rectángulo_406090" data-name="Rectángulo 406090" width="25.258" height="8.146" fill="none"/>
    </clipPath>
    <clipPath id="clip-path-22">
      <rect id="Rectángulo_406093" data-name="Rectángulo 406093" width="81.193" height="46.224" fill="none"/>
    </clipPath>
  </defs>
  <g id="Grupo_1145481" data-name="Grupo 1145481" clip-path="url(#clip-path)">
    <g id="Grupo_1145480" data-name="Grupo 1145480">
      <g id="Grupo_1145479" data-name="Grupo 1145479" clip-path="url(#clip-path)">
        <path id="Trazado_982295" data-name="Trazado 982295" d="M376.374,181.821A277.427,277.427,0,0,0,388.5,104.393c.424-27.02-2.51-56.241-20.4-76.5C350.609,8.086,322.538,1.317,296.134.169c-10.7-.465-21.616-.154-31.769,3.24-20.5,6.852-34.875,25.025-53.06,36.714C176.2,62.69,128.761,60.019,95.011,84.569A97.015,97.015,0,0,0,72.757,107.6c-24.606,35.241-26.526,84.063-7.749,122.727s56.55,66.711,98.286,76.982,86.787,3.546,125.457-15.22c45.078-21.876,73.142-63.755,87.624-110.267" transform="translate(-6.65 0)" fill="#60ffc8"/>
        <g id="Grupo_1145421" data-name="Grupo 1145421" transform="translate(45.761)" opacity="0.7">
          <g id="Grupo_1145420" data-name="Grupo 1145420">
            <g id="Grupo_1145419" data-name="Grupo 1145419" clip-path="url(#clip-path-3)">
              <path id="Trazado_982296" data-name="Trazado 982296" d="M376.374,181.821A277.427,277.427,0,0,0,388.5,104.393c.424-27.02-2.51-56.241-20.4-76.5C350.609,8.086,322.538,1.317,296.134.169c-10.7-.465-21.616-.154-31.769,3.24-20.5,6.852-34.875,25.025-53.06,36.714C176.2,62.69,128.761,60.019,95.011,84.569A97.015,97.015,0,0,0,72.757,107.6c-24.606,35.241-26.526,84.063-7.749,122.727s56.55,66.711,98.286,76.982,86.787,3.546,125.457-15.22c45.078-21.876,73.142-63.755,87.624-110.267" transform="translate(-52.411 0)" fill="#e6fbee"/>
            </g>
          </g>
        </g>
        <path id="Trazado_982297" data-name="Trazado 982297" d="M315.092,20.624V197.449a9.519,9.519,0,0,1-9.526,9.517H69.727a9.518,9.518,0,0,1-9.517-9.517V20.624A9.519,9.519,0,0,1,69.727,11.1H305.567a9.521,9.521,0,0,1,9.526,9.526" transform="translate(-7.639 -1.408)" fill="#fff"/>
        <path id="Trazado_982298" data-name="Trazado 982298" d="M316.091,28.268V199.627a9.519,9.519,0,0,1-9.526,9.517H70.726a9.45,9.45,0,0,1-2.646-.375Z" transform="translate(-8.638 -3.587)" fill="#322d38"/>
        <g id="Grupo_1145424" data-name="Grupo 1145424" transform="translate(59.442 24.681)" opacity="0.9">
          <g id="Grupo_1145423" data-name="Grupo 1145423">
            <g id="Grupo_1145422" data-name="Grupo 1145422" clip-path="url(#clip-path-4)">
              <path id="Trazado_982299" data-name="Trazado 982299" d="M316.091,28.268V199.627a9.519,9.519,0,0,1-9.526,9.517H70.726a9.45,9.45,0,0,1-2.646-.375Z" transform="translate(-68.08 -28.268)" fill="#fff"/>
            </g>
          </g>
        </g>
        <path id="Trazado_982300" data-name="Trazado 982300" d="M257.419,126.938l12.844-5.8-2.742-15.367-14.153-1.135a58.259,58.259,0,0,0-7.116-13.359l4.444-7.526,2.846-4.828-11.019-10.94L230.178,75.4a60.493,60.493,0,0,0-23.618-9.735l-3.554-14.145H187.395l-3.658,14.249a64.634,64.634,0,0,0-13.979,4.5l-11.185-9.639-12.765,8.7L151.116,83.1a58.037,58.037,0,0,0-8.7,11.639l-14.695-1.484-5.282,14.668,12.145,8.251a59.58,59.58,0,0,0-.864,10.425,32.447,32.447,0,0,0,0,4.322l-12.844,7.212,4.077,15.018h14.5a61.252,61.252,0,0,0,4.872,8.592q1.414,2.1,3,4.077l-6.252,12.94,11.979,10.05,11.56-8.661a61.145,61.145,0,0,0,13.979,5.9l2.323,13.979,15.559,1.38,4.671-13.184a65.317,65.317,0,0,0,14.939-3.309l9.884,9.875,13.533-7.806-3.728-13.464A60.959,60.959,0,0,0,246.2,162.265l13.708,2.462,6.6-14.127-10.774-8.688a62.627,62.627,0,0,0,1.685-14.974m-35.589,0a26.471,26.471,0,1,1-7.814-18.781c.48.48.943.969,1.371,1.484a26.311,26.311,0,0,1,6.444,17.131Z" transform="translate(-15.337 -6.536)" fill="#13de61"/>
        <path id="Trazado_982301" data-name="Trazado 982301" d="M257.419,126.938l12.844-5.8-2.742-15.367-14.153-1.135a58.259,58.259,0,0,0-7.116-13.359l4.444-7.526,2.846-4.828-11.019-10.94L230.178,75.4a60.493,60.493,0,0,0-23.618-9.735l-3.554-14.145H187.395l-3.658,14.249a64.634,64.634,0,0,0-13.979,4.5l-11.185-9.639-12.765,8.7L151.116,83.1a58.037,58.037,0,0,0-8.7,11.639l-14.695-1.484-5.282,14.668,12.145,8.251a59.58,59.58,0,0,0-.864,10.425,32.447,32.447,0,0,0,0,4.322l-12.844,7.212,4.077,15.018h14.5a61.252,61.252,0,0,0,4.872,8.592q1.414,2.1,3,4.077l-6.252,12.94,11.979,10.05,11.56-8.661a61.145,61.145,0,0,0,13.979,5.9l2.323,13.979,15.559,1.38,4.671-13.184a65.317,65.317,0,0,0,14.939-3.309l9.884,9.875,13.533-7.806-3.728-13.464A60.959,60.959,0,0,0,246.2,162.265l13.708,2.462,6.6-14.127-10.774-8.688A62.627,62.627,0,0,0,257.419,126.938Zm-35.589,0a26.471,26.471,0,1,1-7.814-18.781c.48.48.943.969,1.371,1.484a26.311,26.311,0,0,1,6.444,17.131Z" transform="translate(-15.337 -6.536)" fill="none" stroke="#322d38" stroke-miterlimit="10" stroke-width="1"/>
        <g id="Grupo_1145427" data-name="Grupo 1145427" transform="translate(125.747 77.217)" opacity="0.2">
          <g id="Grupo_1145426" data-name="Grupo 1145426">
            <g id="Grupo_1145425" data-name="Grupo 1145425" clip-path="url(#clip-path-5)">
              <path id="Trazado_982302" data-name="Trazado 982302" d="M258.67,146.6l10.774,8.688-6.6,14.127-13.708-2.462A60.959,60.959,0,0,1,238.719,178.2l3.728,13.464-13.533,7.806L219.03,189.6a65.318,65.318,0,0,1-14.939,3.309l-4.671,13.184-15.559-1.38-2.322-13.979a61.145,61.145,0,0,1-13.979-5.9L156,193.492l-11.979-10.05,6.252-12.94q-1.585-1.978-3-4.077l28.481-20.885a26.485,26.485,0,0,0,49.017-13.918v-.166a26.311,26.311,0,0,0-6.444-17.131l35.309-25.888-4.444,7.526a58.257,58.257,0,0,1,7.116,13.359l14.153,1.135,2.742,15.367-12.844,5.8A62.626,62.626,0,0,1,258.67,146.6" transform="translate(-144.02 -88.438)"/>
            </g>
          </g>
        </g>
        <path id="Trazado_982303" data-name="Trazado 982303" d="M333.946,88.708l.646-.3a1.746,1.746,0,0,0,1.013-1.921l-.131-.786a1.746,1.746,0,0,0-1.607-1.458l-.777-.061a1.747,1.747,0,0,1-1.449-1c-.21-.445-.437-.873-.681-1.292a1.747,1.747,0,0,1,0-1.746l.4-.681a1.8,1.8,0,0,0-.279-2.157l-.559-.559a1.747,1.747,0,0,0-2.165-.262l-.69.41a1.747,1.747,0,0,1-1.746,0,14.3,14.3,0,0,0-3.554-1.449,1.747,1.747,0,0,1-1.257-1.275l-.2-.812a1.747,1.747,0,0,0-1.746-1.345h-.786a1.748,1.748,0,0,0-1.746,1.336l-.218.873a1.747,1.747,0,0,1-1.231,1.257c-.437.122-.873.253-1.284.41a1.747,1.747,0,0,1-1.746-.323l-.7-.6a1.747,1.747,0,0,0-2.148-.122l-.62.419a1.747,1.747,0,0,0-.655,2.1l.314.821a1.747,1.747,0,0,1-.271,1.746,13,13,0,0,0-.786,1.039,1.745,1.745,0,0,1-1.624.751l-.873-.079a1.746,1.746,0,0,0-1.842,1.161l-.279.768a1.746,1.746,0,0,0,.637,2.043l.8.568a1.746,1.746,0,0,1,.733,1.6,11.973,11.973,0,0,0-.07,1.371,1.809,1.809,0,0,1-.873,1.484l-.821.454a1.746,1.746,0,0,0-.873,2.017l.2.76a1.746,1.746,0,0,0,1.746,1.31h.873a1.747,1.747,0,0,1,1.528.873c.236.419.489.821.76,1.214a1.746,1.746,0,0,1,.131,1.746l-.358.742a1.747,1.747,0,0,0,.463,2.13l.6.506a1.745,1.745,0,0,0,2.174.079l.62-.437a1.747,1.747,0,0,1,1.746-.166q.664.314,1.362.576a1.746,1.746,0,0,1,1.109,1.345l.131.76a1.746,1.746,0,0,0,1.607,1.458l.8.07a1.747,1.747,0,0,0,1.816-1.179l.244-.681a1.747,1.747,0,0,1,1.353-1.144,13.573,13.573,0,0,0,1.467-.314,1.745,1.745,0,0,1,1.694.463l.515.524a1.747,1.747,0,0,0,2.139.288l.69-.393a1.746,1.746,0,0,0,.873-2.017l-.192-.681a1.746,1.746,0,0,1,.445-1.746c.358-.358.707-.733,1.03-1.126a1.746,1.746,0,0,1,1.668-.594l.7.131a1.746,1.746,0,0,0,1.93-1l.332-.716a1.747,1.747,0,0,0-.5-2.13l-.524-.428a1.744,1.744,0,0,1-.646-1.624,13.774,13.774,0,0,0,.166-1.572,1.744,1.744,0,0,1,1.039-1.441m-6.269.454a13.942,13.942,0,1,1-.017-.052Z" transform="translate(-38.335 -9.138)" fill="#60ffc8"/>
        <path id="Trazado_982304" data-name="Trazado 982304" d="M333.946,88.708l.646-.3a1.746,1.746,0,0,0,1.013-1.921l-.131-.786a1.746,1.746,0,0,0-1.607-1.458l-.777-.061a1.747,1.747,0,0,1-1.449-1c-.21-.445-.437-.873-.681-1.292a1.747,1.747,0,0,1,0-1.746l.4-.681a1.8,1.8,0,0,0-.279-2.157l-.559-.559a1.747,1.747,0,0,0-2.165-.262l-.69.41a1.747,1.747,0,0,1-1.746,0,14.3,14.3,0,0,0-3.554-1.449,1.747,1.747,0,0,1-1.257-1.275l-.2-.812a1.747,1.747,0,0,0-1.746-1.345h-.786a1.748,1.748,0,0,0-1.746,1.336l-.218.873a1.747,1.747,0,0,1-1.231,1.257c-.437.122-.873.253-1.284.41a1.747,1.747,0,0,1-1.746-.323l-.7-.6a1.747,1.747,0,0,0-2.148-.122l-.62.419a1.747,1.747,0,0,0-.655,2.1l.314.821a1.747,1.747,0,0,1-.271,1.746,13,13,0,0,0-.786,1.039,1.745,1.745,0,0,1-1.624.751l-.873-.079a1.746,1.746,0,0,0-1.842,1.161l-.279.768a1.746,1.746,0,0,0,.637,2.043l.8.568a1.746,1.746,0,0,1,.733,1.6,11.973,11.973,0,0,0-.07,1.371,1.809,1.809,0,0,1-.873,1.484l-.821.454a1.746,1.746,0,0,0-.873,2.017l.2.76a1.746,1.746,0,0,0,1.746,1.31h.873a1.747,1.747,0,0,1,1.528.873c.236.419.489.821.76,1.214a1.746,1.746,0,0,1,.131,1.746l-.358.742a1.747,1.747,0,0,0,.463,2.13l.6.506a1.745,1.745,0,0,0,2.174.079l.62-.437a1.747,1.747,0,0,1,1.746-.166q.664.314,1.362.576a1.746,1.746,0,0,1,1.109,1.345l.131.76a1.746,1.746,0,0,0,1.607,1.458l.8.07a1.747,1.747,0,0,0,1.816-1.179l.244-.681a1.747,1.747,0,0,1,1.353-1.144,13.573,13.573,0,0,0,1.467-.314,1.745,1.745,0,0,1,1.694.463l.515.524a1.747,1.747,0,0,0,2.139.288l.69-.393a1.746,1.746,0,0,0,.873-2.017l-.192-.681a1.746,1.746,0,0,1,.445-1.746c.358-.358.707-.733,1.03-1.126a1.746,1.746,0,0,1,1.668-.594l.7.131a1.746,1.746,0,0,0,1.93-1l.332-.716a1.747,1.747,0,0,0-.5-2.13l-.524-.428a1.744,1.744,0,0,1-.646-1.624,13.774,13.774,0,0,0,.166-1.572A1.744,1.744,0,0,1,333.946,88.708Zm-6.269.454a13.942,13.942,0,1,1-.017-.052Z" transform="translate(-38.335 -9.138)" fill="none" stroke="#322d38" stroke-miterlimit="10" stroke-width="1"/>
        <path id="Trazado_982305" data-name="Trazado 982305" d="M315.1,20.626v.48H60.213v-.48A9.519,9.519,0,0,1,69.73,11.1H305.57a9.521,9.521,0,0,1,9.526,9.526" transform="translate(-7.64 -1.408)" fill="#322d38"/>
        <path id="Trazado_982306" data-name="Trazado 982306" d="M315.1,20.626V197.451a9.519,9.519,0,0,1-9.526,9.517H69.73a9.517,9.517,0,0,1-9.517-9.517V20.626A9.519,9.519,0,0,1,69.73,11.1H305.57A9.521,9.521,0,0,1,315.1,20.626Z" transform="translate(-7.64 -1.408)" fill="none" stroke="#322d38" stroke-linecap="round" stroke-linejoin="round" stroke-width="1"/>
        <line id="Línea_895" data-name="Línea 895" x2="254.882" transform="translate(52.573 19.217)" fill="none" stroke="#322d38" stroke-linecap="round" stroke-linejoin="round" stroke-width="1"/>
        <path id="Trazado_982307" data-name="Trazado 982307" d="M83.989,16.549a1.931,1.931,0,1,1-1.931-1.931,1.931,1.931,0,0,1,1.931,1.931" transform="translate(-10.166 -1.855)" fill="#60ffc8"/>
        <path id="Trazado_982308" data-name="Trazado 982308" d="M94.47,16.549a1.931,1.931,0,1,1-1.931-1.931,1.931,1.931,0,0,1,1.931,1.931" transform="translate(-11.496 -1.855)" fill="#60ffc8"/>
        <path id="Trazado_982309" data-name="Trazado 982309" d="M104.95,16.549a1.931,1.931,0,1,1-1.931-1.931,1.931,1.931,0,0,1,1.931,1.931" transform="translate(-12.826 -1.855)" fill="#60ffc8"/>
        <path id="Trazado_982310" data-name="Trazado 982310" d="M241.029,132.02a40.359,40.359,0,1,1,0-.257Z" transform="translate(-20.307 -11.613)" fill="none" stroke="#322d38" stroke-miterlimit="10" stroke-width="4"/>
        <path id="Trazado_982311" data-name="Trazado 982311" d="M402.589,84.4h-144.1a9.521,9.521,0,0,1-9.521-9.521V42.891a9.521,9.521,0,0,1,9.521-9.521h144.1a9.521,9.521,0,0,1,9.521,9.521V74.875a9.521,9.521,0,0,1-9.521,9.521" transform="translate(-31.589 -4.234)" fill="#fff"/>
        <rect id="Rectángulo_406037" data-name="Rectángulo 406037" width="163.136" height="51.025" rx="10.904" transform="translate(217.384 29.136)" fill="none" stroke="#322d38" stroke-miterlimit="10" stroke-width="1"/>
        <line id="Línea_896" data-name="Línea 896" x2="111.175" transform="translate(245.939 54.419)" fill="none" stroke="#322d38" stroke-miterlimit="10" stroke-width="1"/>
        <path id="Trazado_982312" data-name="Trazado 982312" d="M277.708,60.529l17.558-12.376h44.713l18.247,12.376" transform="translate(-35.235 -6.109)" fill="none" stroke="#322d38" stroke-miterlimit="10" stroke-width="1"/>
        <path id="Trazado_982313" data-name="Trazado 982313" d="M372.887,61.823a3.465,3.465,0,1,1-3.465-3.465,3.465,3.465,0,0,1,3.465,3.465" transform="translate(-46.431 -7.404)" fill="#60ffc8"/>
        <circle id="Elipse_11605" data-name="Elipse 11605" cx="3.465" cy="3.465" r="3.465" transform="translate(318.821 56.996) rotate(-76.718)" fill="none" stroke="#322d38" stroke-miterlimit="10" stroke-width="1"/>
        <path id="Trazado_982314" data-name="Trazado 982314" d="M300.779,47.649a3.465,3.465,0,1,1-3.465-3.465,3.465,3.465,0,0,1,3.465,3.465" transform="translate(-37.282 -5.606)" fill="#60ffc8"/>
        <circle id="Elipse_11606" data-name="Elipse 11606" cx="3.465" cy="3.465" r="3.465" transform="translate(255.862 44.62) rotate(-76.718)" fill="none" stroke="#322d38" stroke-miterlimit="10" stroke-width="1"/>
        <path id="Trazado_982315" data-name="Trazado 982315" d="M351.989,47.649a3.465,3.465,0,1,1-3.465-3.465,3.465,3.465,0,0,1,3.465,3.465" transform="translate(-43.78 -5.606)" fill="#60ffc8"/>
        <circle id="Elipse_11607" data-name="Elipse 11607" cx="3.465" cy="3.465" r="3.465" transform="translate(300.575 44.62) rotate(-76.718)" fill="none" stroke="#322d38" stroke-miterlimit="10" stroke-width="1"/>
        <path id="Trazado_982316" data-name="Trazado 982316" d="M277.708,62.327,295.266,74.7h82.412l14.67-12.375" transform="translate(-35.235 -7.908)" fill="none" stroke="#322d38" stroke-miterlimit="10" stroke-width="1"/>
        <path id="Trazado_982317" data-name="Trazado 982317" d="M331.527,76a3.465,3.465,0,1,1-3.465-3.465A3.465,3.465,0,0,1,331.527,76" transform="translate(-41.183 -9.202)" fill="#60ffc8"/>
        <circle id="Elipse_11608" data-name="Elipse 11608" cx="3.465" cy="3.465" r="3.465" transform="translate(282.709 69.371) rotate(-76.718)" fill="none" stroke="#322d38" stroke-miterlimit="10" stroke-width="1"/>
        <path id="Trazado_982318" data-name="Trazado 982318" d="M300.779,76a3.465,3.465,0,1,1-3.465-3.465A3.465,3.465,0,0,1,300.779,76" transform="translate(-37.282 -9.202)" fill="#60ffc8"/>
        <circle id="Elipse_11609" data-name="Elipse 11609" cx="3.465" cy="3.465" r="3.465" transform="translate(255.862 69.371) rotate(-76.718)" fill="none" stroke="#322d38" stroke-miterlimit="10" stroke-width="1"/>
        <path id="Trazado_982319" data-name="Trazado 982319" d="M395.167,76a3.465,3.465,0,1,1-3.465-3.465A3.465,3.465,0,0,1,395.167,76" transform="translate(-49.258 -9.202)" fill="#60ffc8"/>
        <circle id="Elipse_11610" data-name="Elipse 11610" cx="3.465" cy="3.465" r="3.465" transform="translate(338.275 69.371) rotate(-76.718)" fill="none" stroke="#322d38" stroke-miterlimit="10" stroke-width="1"/>
        <path id="Trazado_982320" data-name="Trazado 982320" d="M411.969,61.823a3.465,3.465,0,1,1-3.465-3.465,3.465,3.465,0,0,1,3.465,3.465" transform="translate(-51.39 -7.404)" fill="#60ffc8"/>
        <circle id="Elipse_11611" data-name="Elipse 11611" cx="3.465" cy="3.465" r="3.465" transform="translate(352.945 56.996) rotate(-76.718)" fill="none" stroke="#322d38" stroke-miterlimit="10" stroke-width="1"/>
        <path id="Trazado_982321" data-name="Trazado 982321" d="M280.67,61.823a3.465,3.465,0,1,1-3.465-3.465,3.465,3.465,0,0,1,3.465,3.465" transform="translate(-34.731 -7.404)" fill="#60ffc8"/>
        <circle id="Elipse_11612" data-name="Elipse 11612" cx="3.465" cy="3.465" r="3.465" transform="translate(238.305 56.996) rotate(-76.718)" fill="none" stroke="#322d38" stroke-miterlimit="10" stroke-width="1"/>
        <path id="Trazado_982322" data-name="Trazado 982322" d="M148.446,258.509H65.437a9.521,9.521,0,0,1-9.521-9.521v-83.01a9.521,9.521,0,0,1,9.521-9.521h83.01a9.521,9.521,0,0,1,9.521,9.521v83.01a9.521,9.521,0,0,1-9.521,9.521" transform="translate(-7.094 -19.851)" fill="#fff"/>
        <rect id="Rectángulo_406038" data-name="Rectángulo 406038" width="102.051" height="102.051" rx="10.904" transform="translate(48.822 136.608)" fill="none" stroke="#322d38" stroke-miterlimit="10" stroke-width="1"/>
        <path id="Trazado_982323" data-name="Trazado 982323" d="M97.824,223.189,84.606,248.877h59.908" transform="translate(-10.734 -28.317)" fill="none" stroke="#322d38" stroke-linecap="round" stroke-linejoin="round" stroke-width="1"/>
        <path id="Trazado_982324" data-name="Trazado 982324" d="M149.157,178.732,121.2,197.318l27.959,8.412" transform="translate(-15.377 -22.677)" fill="none" stroke="#322d38" stroke-linecap="round" stroke-linejoin="round" stroke-width="1"/>
        <rect id="Rectángulo_406039" data-name="Rectángulo 406039" width="13.219" height="13.219" transform="translate(127.17 149.446)" fill="#60ffc8"/>
        <rect id="Rectángulo_406040" data-name="Rectángulo 406040" width="13.219" height="13.219" transform="translate(127.17 149.446)" fill="none" stroke="#322d38" stroke-miterlimit="10" stroke-width="1"/>
        <rect id="Rectángulo_406041" data-name="Rectángulo 406041" width="13.219" height="13.219" transform="translate(127.17 176.443)" fill="#60ffc8"/>
        <rect id="Rectángulo_406042" data-name="Rectángulo 406042" width="13.219" height="13.219" transform="translate(127.17 176.443)" fill="none" stroke="#322d38" stroke-miterlimit="10" stroke-width="1"/>
        <rect id="Rectángulo_406043" data-name="Rectángulo 406043" width="13.219" height="13.219" transform="translate(99.211 168.032)" fill="#60ffc8"/>
        <rect id="Rectángulo_406044" data-name="Rectángulo 406044" width="13.219" height="13.219" transform="translate(99.211 168.032)" fill="none" stroke="#322d38" stroke-miterlimit="10" stroke-width="1"/>
        <rect id="Rectángulo_406045" data-name="Rectángulo 406045" width="13.219" height="13.219" transform="translate(80.48 188.262)" fill="#60ffc8"/>
        <rect id="Rectángulo_406046" data-name="Rectángulo 406046" width="13.219" height="13.219" transform="translate(80.48 188.262)" fill="none" stroke="#322d38" stroke-miterlimit="10" stroke-width="1"/>
        <rect id="Rectángulo_406047" data-name="Rectángulo 406047" width="13.219" height="13.219" transform="translate(67.263 213.95)" fill="#60ffc8"/>
        <rect id="Rectángulo_406048" data-name="Rectángulo 406048" width="13.219" height="13.219" transform="translate(67.263 213.95)" fill="none" stroke="#322d38" stroke-miterlimit="10" stroke-width="1"/>
        <rect id="Rectángulo_406049" data-name="Rectángulo 406049" width="13.219" height="13.219" transform="translate(127.17 213.95)" fill="#60ffc8"/>
        <rect id="Rectángulo_406050" data-name="Rectángulo 406050" width="13.219" height="13.219" transform="translate(127.17 213.95)" fill="none" stroke="#322d38" stroke-miterlimit="10" stroke-width="1"/>
        <path id="Trazado_982325" data-name="Trazado 982325" d="M93.03,212.7H10.02A9.52,9.52,0,0,1,.5,203.18v-83.01a9.52,9.52,0,0,1,9.52-9.521H93.03a9.521,9.521,0,0,1,9.521,9.521v83.01A9.521,9.521,0,0,1,93.03,212.7" transform="translate(-0.063 -14.039)" fill="#fff"/>
        <path id="Rectángulo_406051" data-name="Rectángulo 406051" d="M10.9,0H91.148a10.9,10.9,0,0,1,10.9,10.9V91.148a10.9,10.9,0,0,1-10.9,10.9H10.9A10.9,10.9,0,0,1,0,91.147V10.9A10.9,10.9,0,0,1,10.9,0Z" transform="translate(0.437 96.611)" fill="none" stroke="#322d38" stroke-miterlimit="10" stroke-width="1"/>
        <rect id="Rectángulo_406052" data-name="Rectángulo 406052" width="67.884" height="5.26" transform="translate(11.228 106.486)" fill="#60ffc8"/>
        <rect id="Rectángulo_406053" data-name="Rectángulo 406053" width="39.218" height="5.26" transform="translate(11.228 115.144)" fill="#60ffc8"/>
        <rect id="Rectángulo_406054" data-name="Rectángulo 406054" width="22.844" height="5.26" transform="translate(11.227 123.801)" fill="#60ffc8"/>
        <rect id="Rectángulo_406055" data-name="Rectángulo 406055" width="37.594" height="5.26" transform="translate(11.228 132.458)" fill="#60ffc8"/>
        <rect id="Rectángulo_406056" data-name="Rectángulo 406056" width="58.603" height="5.26" transform="translate(11.227 141.116)" fill="#60ffc8"/>
        <rect id="Rectángulo_406057" data-name="Rectángulo 406057" width="39.218" height="5.26" transform="translate(11.228 149.773)" fill="#60ffc8"/>
        <rect id="Rectángulo_406058" data-name="Rectángulo 406058" width="27.361" height="5.26" transform="translate(11.227 158.43)" fill="#60ffc8"/>
        <rect id="Rectángulo_406059" data-name="Rectángulo 406059" width="44.3" height="5.26" transform="translate(11.228 167.088)" fill="#60ffc8"/>
        <rect id="Rectángulo_406060" data-name="Rectángulo 406060" width="53.71" height="5.26" transform="translate(11.228 175.745)" fill="#60ffc8"/>
        <rect id="Rectángulo_406061" data-name="Rectángulo 406061" width="67.884" height="5.26" transform="translate(11.228 184.403)" fill="#60ffc8"/>
        <g id="Grupo_1145430" data-name="Grupo 1145430" transform="translate(11.227 106.486)" opacity="0.3">
          <g id="Grupo_1145429" data-name="Grupo 1145429">
            <g id="Grupo_1145428" data-name="Grupo 1145428" clip-path="url(#clip-path-6)">
              <rect id="Rectángulo_406062" data-name="Rectángulo 406062" width="67.884" height="5.26" transform="translate(0)"/>
            </g>
          </g>
        </g>
        <g id="Grupo_1145433" data-name="Grupo 1145433" transform="translate(11.227 115.144)" opacity="0.3">
          <g id="Grupo_1145432" data-name="Grupo 1145432">
            <g id="Grupo_1145431" data-name="Grupo 1145431" clip-path="url(#clip-path-7)">
              <rect id="Rectángulo_406064" data-name="Rectángulo 406064" width="39.218" height="5.26" transform="translate(0)"/>
            </g>
          </g>
        </g>
        <g id="Grupo_1145436" data-name="Grupo 1145436" transform="translate(11.227 123.801)" opacity="0.3">
          <g id="Grupo_1145435" data-name="Grupo 1145435">
            <g id="Grupo_1145434" data-name="Grupo 1145434" clip-path="url(#clip-path-8)">
              <rect id="Rectángulo_406066" data-name="Rectángulo 406066" width="22.844" height="5.26" transform="translate(0)"/>
            </g>
          </g>
        </g>
        <g id="Grupo_1145439" data-name="Grupo 1145439" transform="translate(11.227 132.458)" opacity="0.3">
          <g id="Grupo_1145438" data-name="Grupo 1145438">
            <g id="Grupo_1145437" data-name="Grupo 1145437" clip-path="url(#clip-path-9)">
              <rect id="Rectángulo_406068" data-name="Rectángulo 406068" width="37.594" height="5.26" transform="translate(0)"/>
            </g>
          </g>
        </g>
        <g id="Grupo_1145442" data-name="Grupo 1145442" transform="translate(11.227 141.116)" opacity="0.3">
          <g id="Grupo_1145441" data-name="Grupo 1145441">
            <g id="Grupo_1145440" data-name="Grupo 1145440" clip-path="url(#clip-path-10)">
              <rect id="Rectángulo_406070" data-name="Rectángulo 406070" width="58.603" height="5.26" transform="translate(0)"/>
            </g>
          </g>
        </g>
        <g id="Grupo_1145445" data-name="Grupo 1145445" transform="translate(11.227 149.773)" opacity="0.3">
          <g id="Grupo_1145444" data-name="Grupo 1145444">
            <g id="Grupo_1145443" data-name="Grupo 1145443" clip-path="url(#clip-path-7)">
              <rect id="Rectángulo_406072" data-name="Rectángulo 406072" width="39.218" height="5.26" transform="translate(0)"/>
            </g>
          </g>
        </g>
        <g id="Grupo_1145448" data-name="Grupo 1145448" transform="translate(11.227 158.43)" opacity="0.3">
          <g id="Grupo_1145447" data-name="Grupo 1145447">
            <g id="Grupo_1145446" data-name="Grupo 1145446" clip-path="url(#clip-path-12)">
              <rect id="Rectángulo_406074" data-name="Rectángulo 406074" width="27.361" height="5.26" transform="translate(0 0)"/>
            </g>
          </g>
        </g>
        <g id="Grupo_1145451" data-name="Grupo 1145451" transform="translate(11.227 167.088)" opacity="0.3">
          <g id="Grupo_1145450" data-name="Grupo 1145450">
            <g id="Grupo_1145449" data-name="Grupo 1145449" clip-path="url(#clip-path-13)">
              <rect id="Rectángulo_406076" data-name="Rectángulo 406076" width="44.3" height="5.26" transform="translate(0 0)"/>
            </g>
          </g>
        </g>
        <g id="Grupo_1145454" data-name="Grupo 1145454" transform="translate(11.227 175.745)" opacity="0.3">
          <g id="Grupo_1145453" data-name="Grupo 1145453">
            <g id="Grupo_1145452" data-name="Grupo 1145452" clip-path="url(#clip-path-14)">
              <rect id="Rectángulo_406078" data-name="Rectángulo 406078" width="53.71" height="5.26" transform="translate(0)"/>
            </g>
          </g>
        </g>
        <g id="Grupo_1145457" data-name="Grupo 1145457" transform="translate(11.227 184.403)" opacity="0.3">
          <g id="Grupo_1145456" data-name="Grupo 1145456">
            <g id="Grupo_1145455" data-name="Grupo 1145455" clip-path="url(#clip-path-6)">
              <rect id="Rectángulo_406080" data-name="Rectángulo 406080" width="67.884" height="5.26" transform="translate(0)"/>
            </g>
          </g>
        </g>
        <path id="Trazado_982326" data-name="Trazado 982326" d="M86.977,100.378h-24.7a4.5,4.5,0,0,0-4.5,4.5v4.471h33.7v-4.471a4.5,4.5,0,0,0-4.5-4.5" transform="translate(-7.33 -12.736)" fill="#fff"/>
        <path id="Trazado_982327" data-name="Trazado 982327" d="M86.977,100.378h-24.7a4.5,4.5,0,0,0-4.5,4.5v4.471h33.7v-4.471A4.5,4.5,0,0,0,86.977,100.378Z" transform="translate(-7.33 -12.736)" fill="none" stroke="#322d38" stroke-miterlimit="10" stroke-width="1"/>
        <path id="Trazado_982328" data-name="Trazado 982328" d="M67.532,100.378H43.124a4.645,4.645,0,0,0-4.645,4.645v4.325h33.7v-4.325a4.645,4.645,0,0,0-4.645-4.645" transform="translate(-4.882 -12.736)" fill="#60ffc8"/>
        <path id="Trazado_982329" data-name="Trazado 982329" d="M67.532,100.378H43.124a4.645,4.645,0,0,0-4.645,4.645v4.325h33.7v-4.325A4.645,4.645,0,0,0,67.532,100.378Z" transform="translate(-4.882 -12.736)" fill="none" stroke="#322d38" stroke-miterlimit="10" stroke-width="1"/>
        <path id="Trazado_982330" data-name="Trazado 982330" d="M46.672,100.378h-25a4.348,4.348,0,0,0-4.348,4.347v4.622h33.7v-4.622a4.347,4.347,0,0,0-4.347-4.347" transform="translate(-2.197 -12.736)" fill="#fff"/>
        <path id="Trazado_982331" data-name="Trazado 982331" d="M46.672,100.378h-25a4.348,4.348,0,0,0-4.348,4.347v4.622h33.7v-4.622A4.347,4.347,0,0,0,46.672,100.378Z" transform="translate(-2.197 -12.736)" fill="none" stroke="#322d38" stroke-miterlimit="10" stroke-width="1"/>
        <line id="Línea_897" data-name="Línea 897" x2="18.55" transform="translate(337.399 274.731)" fill="none" stroke="#322d38" stroke-linecap="round" stroke-linejoin="round" stroke-width="1"/>
        <line id="Línea_898" data-name="Línea 898" x2="282.467" transform="translate(45.169 274.731)" fill="none" stroke="#322d38" stroke-linecap="round" stroke-linejoin="round" stroke-width="1"/>
        <path id="Trazado_982332" data-name="Trazado 982332" d="M380.486,301.665s3.29-2.688,4.854.251c1.352,2.543-1.885,5.385-5.57,5.382v2.147s7.9.21,8.516-6.444-7.8-4.818-7.8-4.818Z" transform="translate(-48.184 -37.803)" fill="#60ffc8"/>
        <path id="Trazado_982333" data-name="Trazado 982333" d="M380.486,301.665s3.29-2.688,4.854.251c1.352,2.543-1.885,5.385-5.57,5.382v2.147s7.9.21,8.516-6.444-7.8-4.818-7.8-4.818Z" transform="translate(-48.184 -37.803)" fill="none" stroke="#322d38" stroke-linecap="round" stroke-linejoin="round" stroke-width="1"/>
        <path id="Trazado_982334" data-name="Trazado 982334" d="M377.636,311.718H361.81l-2.373-19.875h20.58Z" transform="translate(-45.604 -37.028)" fill="#60ffc8"/>
        <path id="Trazado_982335" data-name="Trazado 982335" d="M377.636,311.718H361.81l-2.373-19.875h20.58Z" transform="translate(-45.604 -37.028)" fill="none" stroke="#322d38" stroke-linecap="round" stroke-linejoin="round" stroke-width="1"/>
        <path id="Trazado_982336" data-name="Trazado 982336" d="M359.313,290.754h20.513a1.084,1.084,0,0,1,1.084,1.084v.1a1.084,1.084,0,0,1-1.084,1.084H359.313a1.084,1.084,0,0,1-1.084-1.084v-.1a1.084,1.084,0,0,1,1.084-1.084" transform="translate(-45.451 -36.89)" fill="#fff"/>
        <rect id="Rectángulo_406082" data-name="Rectángulo 406082" width="22.682" height="2.273" rx="1.136" transform="translate(312.778 253.865)" fill="none" stroke="#322d38" stroke-linecap="round" stroke-linejoin="round" stroke-width="1"/>
        <path id="Trazado_982337" data-name="Trazado 982337" d="M367.338,282.842s7.282-4.366,4.907-9.377-10.408-8.312-10.408-16.109c0-6.714,7.142-9.2,11.8-11.892" transform="translate(-45.908 -31.143)" fill="none" stroke="#322d38" stroke-linecap="round" stroke-linejoin="round" stroke-width="1"/>
        <path id="Trazado_982338" data-name="Trazado 982338" d="M370.326,250.9a8.726,8.726,0,0,0-2.312,12.134" transform="translate(-46.501 -31.833)" fill="none" stroke="#322d38" stroke-linecap="round" stroke-linejoin="round" stroke-width="1"/>
        <path id="Trazado_982339" data-name="Trazado 982339" d="M375.42,273.59a13.13,13.13,0,0,1,1.131,9.053" transform="translate(-47.632 -34.712)" fill="none" stroke="#322d38" stroke-linecap="round" stroke-linejoin="round" stroke-width="1"/>
        <path id="Trazado_982340" data-name="Trazado 982340" d="M145.464,311.486s-.332-5.7-5.361-7.71-7.718-1.179-18.947,1.842a107.446,107.446,0,0,1-21.627,3.353v2.515Z" transform="translate(-12.628 -38.403)" fill="#fff"/>
        <path id="Trazado_982341" data-name="Trazado 982341" d="M145.464,311.486s-.332-5.7-5.361-7.71-7.718-1.179-18.947,1.842a107.446,107.446,0,0,1-21.627,3.353v2.515Z" transform="translate(-12.628 -38.403)" fill="none" stroke="#322d38" stroke-linecap="round" stroke-linejoin="round" stroke-width="1"/>
        <path id="Trazado_982342" data-name="Trazado 982342" d="M151.93,311.486s.331-5.7,5.361-7.71,7.709-1.179,18.947,1.842a107.413,107.413,0,0,0,21.618,3.353v2.515Z" transform="translate(-19.276 -38.403)" fill="#fff"/>
        <path id="Trazado_982343" data-name="Trazado 982343" d="M151.93,311.486s.331-5.7,5.361-7.71,7.709-1.179,18.947,1.842a107.413,107.413,0,0,0,21.618,3.353v2.515Z" transform="translate(-19.276 -38.403)" fill="none" stroke="#322d38" stroke-linecap="round" stroke-linejoin="round" stroke-width="1"/>
        <rect id="Rectángulo_406083" data-name="Rectángulo 406083" width="94.716" height="1.842" transform="translate(85.731 272.079)" fill="#322d38"/>
        <rect id="Rectángulo_406084" data-name="Rectángulo 406084" width="94.716" height="1.842" transform="translate(85.731 272.079)" fill="none" stroke="#322d38" stroke-linecap="round" stroke-linejoin="round" stroke-width="1"/>
        <path id="Trazado_982344" data-name="Trazado 982344" d="M154.731,311.769a10.108,10.108,0,0,1,5.576-6.057" transform="translate(-19.632 -38.788)" fill="none" stroke="#322d38" stroke-linecap="round" stroke-linejoin="round" stroke-width="1"/>
        <path id="Trazado_982345" data-name="Trazado 982345" d="M158.015,311.515a9.3,9.3,0,0,1,6.3-4.483c3.134-.579,6.319.5,9.272,1.7s8.084,2.776,11.271,2.785" transform="translate(-20.048 -38.935)" fill="none" stroke="#322d38" stroke-linecap="round" stroke-linejoin="round" stroke-width="1"/>
        <path id="Trazado_982346" data-name="Trazado 982346" d="M120.45,310.912a33.832,33.832,0,0,0,9.136-2.29,39.816,39.816,0,0,1,5.44-2.081,7.517,7.517,0,0,1,5.652.569,7.6,7.6,0,0,1,1.943,1.807,13.417,13.417,0,0,1,1.841,3.089" transform="translate(-15.282 -38.856)" fill="none" stroke="#322d38" stroke-linecap="round" stroke-linejoin="round" stroke-width="1"/>
        <path id="Trazado_982347" data-name="Trazado 982347" d="M140.288,308.655a4.508,4.508,0,0,1,2.667,1.414,13.426,13.426,0,0,1,1.793,2.495" transform="translate(-17.799 -39.161)" fill="none" stroke="#322d38" stroke-linecap="round" stroke-linejoin="round" stroke-width="1"/>
        <path id="Trazado_982348" data-name="Trazado 982348" d="M230.1,297.277a28.116,28.116,0,0,1-11.047,2.558c-5.862,0-17.816-12.128-17.816-12.128s-.433-1.311.5-6.194,9.7-49.718,9.7-49.718,1.037-10.431,6.966-16.836,17.565-8.681,17.565-8.681,25.741-11.212,40.175-7.75c14.454,5.733,30.172,11.549,35.431,16.059s18.187,40.7,22.665,59.306c0,0-9.866,20.962-19.065,26.854s-31.424,3.967-31.424,3.967Z" transform="translate(-25.519 -25.104)" fill="#13de61"/>
        <g id="Grupo_1145460" data-name="Grupo 1145460" transform="translate(175.594 186.331)" opacity="0.3">
          <g id="Grupo_1145459" data-name="Grupo 1145459">
            <g id="Grupo_1145458" data-name="Grupo 1145458" clip-path="url(#clip-path-16)">
              <path id="Trazado_982349" data-name="Trazado 982349" d="M226.827,262.816l-3.719-49.409a16.207,16.207,0,0,0-9.747,11.528c-1.932,8.833-13.557,63.229-12.131,64.745s9.036,8.012,9.036,8.012,8.183,7,16.561,2.818,0-37.693,0-37.693" transform="translate(-201.11 -213.407)"/>
            </g>
          </g>
        </g>
        <g id="Grupo_1145463" data-name="Grupo 1145463" transform="translate(175.293 176.597)" opacity="0.3">
          <g id="Grupo_1145462" data-name="Grupo 1145462">
            <g id="Grupo_1145461" data-name="Grupo 1145461" clip-path="url(#clip-path-17)">
              <path id="Trazado_982350" data-name="Trazado 982350" d="M263.734,216.569c-.437,1.478-2.289,1.95-3.831,1.971a18.283,18.283,0,0,1-12.1-4.416c-.616-.533-11.531,6.21-12.79,6.885-1.979,1.063-3.924,2.24-5.942,3.226-1.888.924-3.664,1.384-4.9,3.254a16.774,16.774,0,0,0-1.821,4.411c-2.645,8.667-5.439,17.312-7.847,26.041-2.083,7.553-4.9,15.923-4.775,23.851a11.458,11.458,0,0,0,.121,1.695c1.661,10.136,20.2,14.347,20.2,14.347s-6.55,4.011-11.048,2.558-14.938-7.452-18.238-13.058L209.85,239.8s-.114-22.873,16.389-29.711,22.989-7.83,22.989-7.83Z" transform="translate(-200.765 -202.259)"/>
            </g>
          </g>
        </g>
        <g id="Grupo_1145466" data-name="Grupo 1145466" transform="translate(277.678 187.633)" opacity="0.3">
          <g id="Grupo_1145465" data-name="Grupo 1145465">
            <g id="Grupo_1145464" data-name="Grupo 1145464" clip-path="url(#clip-path-18)">
              <path id="Trazado_982351" data-name="Trazado 982351" d="M339.525,292.893s7.206-7.966,9.54-16.838c0,0-11.054-36.421-13.9-43.231s-7.5-14.6-10.755-17.925l-5.275,74.97-1.11,15.772s5.9.252,10.054-1.7,11.443-11.052,11.443-11.052" transform="translate(-318.028 -214.899)"/>
            </g>
          </g>
        </g>
        <path id="Trazado_982352" data-name="Trazado 982352" d="M306.4,303.334l6.386-90.742s-30.92-14.452-38.986-15.8-47.388,14.115-47.388,14.115l5.714,87.045" transform="translate(-28.727 -24.958)" fill="none" stroke="#322d38" stroke-linecap="round" stroke-linejoin="round" stroke-width="1"/>
        <path id="Trazado_982353" data-name="Trazado 982353" d="M252.983,145.8,249.8,161.032s-4.067-2.873-4.932.375,1.783,7.716,6.9,7.963c0,0,1.393,6.894,5.92,11.581a85.087,85.087,0,0,0,6.761,6.481s1.786,11.562,7.623,12,6.983-4.821,8.164-12.128c0,0,5.046-8.756,6.518-13.489,0,0,6.2-4.318,2.063-10.625,0,0,2.046-15.067-1.508-17.615s-28.129-1.235-34.328.227" transform="translate(-31.048 -18.287)" fill="#fff"/>
        <path id="Trazado_982354" data-name="Trazado 982354" d="M273.3,206.533s-1.965,9.873-3.183,10.125-6.055-4.367-10.279-10.125-3.575-5.758-3.575-5.758,1.959-7.55,3.575-8.653,7.417-.961,7.417-.961l12.728-.486s4.275-.606,6.857,1.082,3.894,9.019,3.894,9.019-7.6,14.072-13.853,15.883a92.465,92.465,0,0,1-3.582-10.125" transform="translate(-32.509 -24.179)" fill="#fff"/>
        <line id="Línea_899" data-name="Línea 899" y1="23.682" x2="1.682" transform="translate(199.085 232.815)" fill="none" stroke="#322d38" stroke-miterlimit="10" stroke-width="1"/>
        <path id="Trazado_982355" data-name="Trazado 982355" d="M289.279,150.3s-7.223,2.8-13.611,2.261c0,0-6.748,6.8-15.381,2.756,0,0-7.788,21.089,10.066,34.883a30.525,30.525,0,0,1-18.579-20.708s-5.074.794-6.9-6.805c0,0-1.467-2.922,5.227-2.942l-.293-14.672,17.2,3.448,12.341-1.8Z" transform="translate(-31.052 -18.406)" fill="#60ffc8"/>
        <g id="Grupo_1145469" data-name="Grupo 1145469" transform="translate(213.688 126.664)" opacity="0.4">
          <g id="Grupo_1145468" data-name="Grupo 1145468">
            <g id="Grupo_1145467" data-name="Grupo 1145467" clip-path="url(#clip-path-19)">
              <path id="Trazado_982356" data-name="Trazado 982356" d="M289.279,150.3s-7.223,2.8-13.611,2.261c0,0-6.748,6.8-15.381,2.756,0,0-6.292,22.578,9.337,34.5,0,0-14.169-4.916-17.85-20.328,0,0-5.041-.536-6.9-6.805,0,0-1.467-2.922,5.227-2.942l-.293-14.672,17.2,3.448,12.341-1.8Z" transform="translate(-244.74 -145.07)" fill="#fff"/>
            </g>
          </g>
        </g>
        <path id="Trazado_982357" data-name="Trazado 982357" d="M273.24,182.837A18.973,18.973,0,0,0,275,184.093c.4.251,1,.457,1.281.086a.919.919,0,0,0,.138-.512c.257-4.167-.714-8.372-.121-12.506" transform="translate(-34.668 -21.716)" fill="none" stroke="#322d38" stroke-linecap="round" stroke-linejoin="round" stroke-width="1"/>
        <path id="Trazado_982358" data-name="Trazado 982358" d="M279.875,168.136s2.07-4.566,7.408-.464" transform="translate(-35.509 -21.057)" fill="none" stroke="#322d38" stroke-linecap="round" stroke-linejoin="round" stroke-width="2"/>
        <path id="Trazado_982359" data-name="Trazado 982359" d="M270.924,169.112s-3.9-4.855-8.74.15" transform="translate(-33.265 -21.188)" fill="none" stroke="#322d38" stroke-linecap="round" stroke-linejoin="round" stroke-width="2"/>
        <path id="Trazado_982360" data-name="Trazado 982360" d="M266.16,192.771s2.08,12.447,9.407,12.824c5.946.306,7.109-9.983,7.337-13.666" transform="translate(-33.769 -24.351)" fill="none" stroke="#322d38" stroke-linecap="round" stroke-linejoin="round" stroke-width="1"/>
        <path id="Trazado_982361" data-name="Trazado 982361" d="M250.811,164.715s-3.233-3.858-5.423-1.973,1.091,10.183,6.381,8.923" transform="translate(-31.047 -20.582)" fill="none" stroke="#322d38" stroke-linecap="round" stroke-linejoin="round" stroke-width="1"/>
        <path id="Trazado_982362" data-name="Trazado 982362" d="M267.713,186.3a11.439,11.439,0,0,0,6.214,3.831" transform="translate(-33.966 -23.637)" fill="none" stroke="#322d38" stroke-linecap="round" stroke-linejoin="round" stroke-width="1"/>
        <path id="Trazado_982363" data-name="Trazado 982363" d="M268.036,175.728c0,.984-.375,1.782-.839,1.782s-.839-.8-.839-1.782.375-1.782.839-1.782.839.8.839,1.782" transform="translate(-33.794 -22.07)" fill="#322d38"/>
        <path id="Trazado_982364" data-name="Trazado 982364" d="M283.626,175.728c0,.984-.375,1.782-.839,1.782s-.839-.8-.839-1.782.375-1.782.839-1.782.839.8.839,1.782" transform="translate(-35.772 -22.07)" fill="#322d38"/>
        <path id="Trazado_982365" data-name="Trazado 982365" d="M273.54,205.44s-2.039,11.083-3.417,11.332-11.8-9.223-13.853-15.883c0,0,2.21-8.7,4.214-9.018.962-.152,2.061-.3,2.941-.4" transform="translate(-32.515 -24.293)" fill="none" stroke="#322d38" stroke-linecap="round" stroke-linejoin="round" stroke-width="1"/>
        <path id="Trazado_982366" data-name="Trazado 982366" d="M276.05,205.294s1.97,11.083,3.348,11.332,11.8-9.223,13.854-15.883c0,0-2.493-8.64-4.387-9.367a23.237,23.237,0,0,0-3.714-1.059" transform="translate(-35.024 -24.147)" fill="none" stroke="#322d38" stroke-linecap="round" stroke-linejoin="round" stroke-width="1"/>
        <path id="Trazado_982367" data-name="Trazado 982367" d="M252.792,169.768c1.339,2.318,3-5.868,2.3-8.449-.472-1.724-1.4-3.349-1.48-5.136-.089-1.985.878-3.839,1.578-5.7s1.111-4.076.019-5.736a25.93,25.93,0,0,0,13.073,4.7,8.187,8.187,0,0,0,3.582-.3,3.5,3.5,0,0,0,2.329-2.555c4.4.561,8.773,1.138,13.173.54,3.685-.5,9.418-1.435,11.314-5.2,2.774-5.5-4.374-11.21-8.587-13.132-10.213-4.66-23.932-5.446-33.13,1.862a33.6,33.6,0,0,1-2.958,2.29c-2.031,1.273-6.649,2.259-8.264,4.03-2.173,2.383.553,20.789.553,20.789s3.539-1.64,5.007,3.84c.994,3.717.139,5.8,1.5,8.151" transform="translate(-31.071 -15.89)" fill="#322d38"/>
        <path id="Trazado_982368" data-name="Trazado 982368" d="M292.117,148.132a4.189,4.189,0,0,0-.115.7,19.226,19.226,0,0,0,.731,6.182c.232.9.564,1.775.706,2.684.342,2.186.338,4.291,1.95,6.064,0,0,3.092-10.8,1.848-18.517-.144-.894-.43-3.141-1.8-2.726-1,.3-1.717,2.02-2.134,2.849a13.947,13.947,0,0,0-1.189,2.766" transform="translate(-37.044 -18.076)" fill="#322d38"/>
        <path id="Trazado_982369" data-name="Trazado 982369" d="M243.33,135.564a10.506,10.506,0,0,1,9.478-1.273,33.165,33.165,0,0,1,10.036-11.025" transform="translate(-30.873 -15.639)" fill="none" stroke="#322d38" stroke-linecap="round" stroke-linejoin="round" stroke-width="1"/>
        <g id="Grupo_1145472" data-name="Grupo 1145472" transform="translate(225.29 114.172)" opacity="0.47">
          <g id="Grupo_1145471" data-name="Grupo 1145471">
            <g id="Grupo_1145470" data-name="Grupo 1145470" clip-path="url(#clip-path-20)">
              <path id="Trazado_982370" data-name="Trazado 982370" d="M258.527,133.955s16.623,11.825,26.691,8.9,7.258-11.59,7.258-11.59" transform="translate(-258.09 -130.826)" fill="none" stroke="#fff" stroke-linecap="round" stroke-linejoin="round" stroke-width="1"/>
            </g>
          </g>
        </g>
        <g id="Grupo_1145475" data-name="Grupo 1145475" transform="translate(226.893 110.895)" opacity="0.47">
          <g id="Grupo_1145474" data-name="Grupo 1145474">
            <g id="Grupo_1145473" data-name="Grupo 1145473" clip-path="url(#clip-path-21)">
              <path id="Trazado_982371" data-name="Trazado 982371" d="M260.364,131.489s20.873,9.6,24.385-3.981" transform="translate(-259.927 -127.072)" fill="none" stroke="#fff" stroke-linecap="round" stroke-linejoin="round" stroke-width="1"/>
            </g>
          </g>
        </g>
        <path id="Trazado_982372" data-name="Trazado 982372" d="M266.16,192.771s3.972,7.715,7.084,7.584,8.824-8.426,8.824-8.426-3.08,3.972-7.758,4.384c-3.076.271-8.15-3.542-8.15-3.542" transform="translate(-33.769 -24.351)" fill="#322d38"/>
        <path id="Trazado_982373" data-name="Trazado 982373" d="M289.052,254.946l.646-.3a1.746,1.746,0,0,0,1.013-1.921l-.131-.786a1.747,1.747,0,0,0-1.607-1.458l-.777-.061a1.745,1.745,0,0,1-1.449-1c-.21-.445-.437-.873-.681-1.292a1.748,1.748,0,0,1,0-1.746l.4-.681a1.8,1.8,0,0,0-.279-2.157l-.559-.559a1.747,1.747,0,0,0-2.165-.262l-.69.41a1.747,1.747,0,0,1-1.746,0,14.3,14.3,0,0,0-3.554-1.449,1.747,1.747,0,0,1-1.257-1.275l-.2-.812a1.747,1.747,0,0,0-1.746-1.345h-.786a1.746,1.746,0,0,0-1.746,1.336l-.218.873a1.747,1.747,0,0,1-1.231,1.257c-.437.122-.873.253-1.284.41a1.747,1.747,0,0,1-1.746-.323l-.7-.6a1.746,1.746,0,0,0-2.148-.122l-.62.419a1.745,1.745,0,0,0-.655,2.1l.314.821a1.747,1.747,0,0,1-.271,1.746,12.95,12.95,0,0,0-.786,1.039,1.745,1.745,0,0,1-1.624.751l-.873-.079a1.746,1.746,0,0,0-1.842,1.161l-.279.768a1.746,1.746,0,0,0,.637,2.043l.8.568a1.745,1.745,0,0,1,.733,1.6,11.973,11.973,0,0,0-.07,1.371,1.809,1.809,0,0,1-.873,1.484l-.821.454a1.746,1.746,0,0,0-.873,2.017l.2.76a1.746,1.746,0,0,0,1.746,1.31h.873a1.748,1.748,0,0,1,1.528.873c.236.419.489.821.76,1.214a1.746,1.746,0,0,1,.131,1.746l-.358.742a1.746,1.746,0,0,0,.463,2.13l.6.506a1.745,1.745,0,0,0,2.174.079l.62-.437a1.747,1.747,0,0,1,1.746-.166q.663.314,1.362.576a1.747,1.747,0,0,1,1.109,1.345l.131.76a1.746,1.746,0,0,0,1.607,1.458l.8.07a1.747,1.747,0,0,0,1.816-1.179l.244-.681a1.745,1.745,0,0,1,1.353-1.144,13.569,13.569,0,0,0,1.467-.314,1.745,1.745,0,0,1,1.694.463l.515.524a1.747,1.747,0,0,0,2.139.288l.69-.393a1.746,1.746,0,0,0,.873-2.017l-.192-.681a1.745,1.745,0,0,1,.445-1.746c.358-.358.707-.733,1.03-1.126a1.747,1.747,0,0,1,1.668-.594l.7.131a1.745,1.745,0,0,0,1.93-1l.332-.716a1.747,1.747,0,0,0-.5-2.13l-.524-.428a1.744,1.744,0,0,1-.646-1.624,13.747,13.747,0,0,0,.166-1.572,1.745,1.745,0,0,1,1.039-1.441m-10.512.454a7.132,7.132,0,1,1-.009-.027Z" transform="translate(-32.639 -30.229)" fill="#322d38"/>
        <path id="Trazado_982374" data-name="Trazado 982374" d="M227.137,290.109a17.509,17.509,0,0,1-2.264,2.1,18.913,18.913,0,0,0-4.83,7.7,6.286,6.286,0,0,0,.029,4.173c1.023,2.508,4.279,5.107,6.887,3.459" transform="translate(-27.875 -36.808)" fill="none" stroke="#322d38" stroke-linecap="round" stroke-linejoin="round" stroke-width="1"/>
        <path id="Trazado_982375" data-name="Trazado 982375" d="M226.372,284.99c-2.481-.387-4.922,1.051-6.621,2.9s-2.877,4.11-4.423,6.087" transform="translate(-27.32 -36.15)" fill="none" stroke="#322d38" stroke-linecap="round" stroke-linejoin="round" stroke-width="1"/>
        <path id="Trazado_982376" data-name="Trazado 982376" d="M224.338,301.354a16.783,16.783,0,0,1-9.831-1.055,28.145,28.145,0,0,1-5.453-3.829l-6.44-5.331c-1.036-.857-2.185-2.073-1.757-3.348,0,0,10.769-56.776,12.462-62.912,1.954-7.085,9.844-11.906,9.844-11.906" transform="translate(-25.472 -27.021)" fill="none" stroke="#322d38" stroke-linecap="round" stroke-linejoin="round" stroke-width="1"/>
        <path id="Trazado_982377" data-name="Trazado 982377" d="M320.328,290.838a18.325,18.325,0,0,1,6.122,8.168,45.855,45.855,0,0,1,1.923,9.273c-1.671.934-5.108,3.352-8.046,3.352" transform="translate(-40.642 -36.9)" fill="none" stroke="#322d38" stroke-linecap="round" stroke-linejoin="round" stroke-width="1"/>
        <path id="Trazado_982378" data-name="Trazado 982378" d="M320.747,285.378c2.612-.691,5.2,1.085,7.174,2.934s4.011,4,6.7,4.286" transform="translate(-40.695 -36.188)" fill="none" stroke="#322d38" stroke-linecap="round" stroke-linejoin="round" stroke-width="1"/>
        <path id="Trazado_982379" data-name="Trazado 982379" d="M321.322,305.956c5.06-.533,9.674-3.3,13.332-6.84s6.482-7.829,9.274-12.082c2.262-3.446,4.563-6.978,5.555-10.98,0,0-8.934-29.523-13.9-43.231-5.17-14.279-10.755-17.925-10.755-17.925" transform="translate(-40.768 -27.265)" fill="none" stroke="#322d38" stroke-linecap="round" stroke-linejoin="round" stroke-width="1"/>
        <path id="Trazado_982380" data-name="Trazado 982380" d="M320.747,285.136c4.606-3.871,11.671-.733,16.627,1.855" transform="translate(-40.695 -35.947)" fill="none" stroke="#322d38" stroke-linecap="round" stroke-linejoin="round" stroke-width="1"/>
        <rect id="Rectángulo_406091" data-name="Rectángulo 406091" width="80.423" height="46.225" transform="translate(199.263 233.384)" fill="#fff"/>
        <rect id="Rectángulo_406092" data-name="Rectángulo 406092" width="81.193" height="2.415" transform="translate(198.859 279.609)" fill="#322d38"/>
        <path id="Trazado_982381" data-name="Trazado 982381" d="M227.756,313.523,308.583,267.3l.366,46.225Z" transform="translate(-28.897 -33.914)" fill="#322d38"/>
        <g id="Grupo_1145478" data-name="Grupo 1145478" transform="translate(198.859 233.385)" opacity="0.9">
          <g id="Grupo_1145477" data-name="Grupo 1145477">
            <g id="Grupo_1145476" data-name="Grupo 1145476" clip-path="url(#clip-path-22)">
              <path id="Trazado_982382" data-name="Trazado 982382" d="M227.756,313.523,308.583,267.3l.366,46.225Z" transform="translate(-227.756 -267.298)" fill="#fff"/>
            </g>
          </g>
        </g>
        <path id="Trazado_982383" data-name="Trazado 982383" d="M281.37,291.919a6.853,6.853,0,1,1-6.852-6.852,6.853,6.853,0,0,1,6.852,6.852" transform="translate(-33.96 -36.168)" fill="#322d38"/>
        <rect id="Rectángulo_406094" data-name="Rectángulo 406094" width="80.423" height="46.225" transform="translate(199.263 233.384)" fill="none" stroke="#322d38" stroke-linecap="round" stroke-linejoin="round" stroke-width="1"/>
        <path id="Trazado_982384" data-name="Trazado 982384" d="M251.272,159.715s1.759,16.151,4,19.029,9.434,13.433,17.269,13.272,12.953-10.234,14.232-14.551a74.26,74.26,0,0,0,2.879-16.79" transform="translate(-31.88 -20.264)" fill="none" stroke="#322d38" stroke-linecap="round" stroke-linejoin="round" stroke-width="1"/>
        <path id="Trazado_982385" data-name="Trazado 982385" d="M292.865,176.588s5.813-3,2.062-10.626" transform="translate(-37.158 -21.057)" fill="none" stroke="#322d38" stroke-linecap="round" stroke-linejoin="round" stroke-width="1"/>
      </g>
    </g>
  </g>
</svg>
