<svg xmlns="http://www.w3.org/2000/svg" xmlns:xlink="http://www.w3.org/1999/xlink" width="339.511" height="371.094" viewBox="0 0 339.511 371.094">
  <defs>
    <clipPath id="clip-path">
      <rect id="Rectángulo_405280" data-name="Rectángulo 405280" width="339.511" height="371.094" rx="11" transform="translate(0.25 -0.41)" fill="#e2dacc"/>
    </clipPath>
    <clipPath id="clip-path-2">
      <rect id="Rectángulo_405267" data-name="Rectángulo 405267" width="70.327" height="139.502" transform="translate(0 0)" fill="#13de61" stroke="#fff" stroke-width="1"/>
    </clipPath>
    <clipPath id="clip-path-3">
      <rect id="Rectángulo_405279" data-name="Rectángulo 405279" width="315.063" height="370.948" fill="none"/>
    </clipPath>
    <clipPath id="clip-path-5">
      <path id="Trazado_879379" data-name="Trazado 879379" d="M132.1,156.693c-3.049,4.877-7.317,9.756-25.611,9.756s-33.538,3.658-42.074,12.2-43.9,42.685-53.051,56.1S7.1,262.793,18.074,268.282s21.951.611,29.879-6.707S80.88,231.086,80.88,231.086s0,14.025,6.708,34.147,12.2,17.683,7.317,32.318-14.635,18.9-17.683,37.808a180.045,180.045,0,0,0-2.44,32.928H245.52s1.831-25-9.145-50-13.458-26.818-13.458-34.135,7.36-15.868,8.579-32.331.609-24.391.609-24.391,26.221,41.465,44.515,43.9,29.269-14.635,22.562-37.807S263.206,191.45,251.62,176.2s-37.807-15.243-51.222-15.243-20.124-4.879-22.562-14.026S175.4,119.5,175.4,119.5s-15.854,9.756-42.685-1.22c0,0,2.44,33.539-.61,38.417" transform="translate(-6.57 -118.276)" fill="none"/>
    </clipPath>
    <clipPath id="clip-path-6">
      <rect id="Rectángulo_405269" data-name="Rectángulo 405269" width="292.386" height="248.641" fill="none"/>
    </clipPath>
    <clipPath id="clip-path-8">
      <path id="Trazado_879387" data-name="Trazado 879387" d="M130.082,156.693c-2.124,3.4-4.848,6.8-12.488,8.545-.278,10.418,1.83,36.715,29.562,42.067,30.42,5.87,42.157-23.292,46.247-46.605-10.135-1.111-15.471-5.828-17.587-13.764-2.439-9.146-2.439-27.44-2.439-27.44s-15.854,9.756-42.685-1.22c0,0,2.44,33.539-.61,38.417" transform="translate(-117.572 -118.276)" fill="none"/>
    </clipPath>
    <clipPath id="clip-path-9">
      <rect id="Rectángulo_405271" data-name="Rectángulo 405271" width="44.46" height="30.101" fill="none"/>
    </clipPath>
    <clipPath id="clip-path-11">
      <path id="Trazado_879395" data-name="Trazado 879395" d="M137.065,63.066c-15.44,14.926-22.645,24.706-22.645,24.706s1.028,27.278,21.1,40.661,35,5.661,43.235-5.663,13.382-22.646,13.382-39.116,2.058-23.675-3.6-33.969-25.22-15.441-25.22-15.441a308.166,308.166,0,0,1-26.25,28.823" transform="translate(-114.42 -34.243)" fill="none"/>
    </clipPath>
    <clipPath id="clip-path-12">
      <rect id="Rectángulo_405273" data-name="Rectángulo 405273" width="49.014" height="69.141" fill="none"/>
    </clipPath>
    <clipPath id="clip-path-14">
      <path id="Trazado_879433" data-name="Trazado 879433" d="M.5,257.663c0,12.806,7.318,24.391,27.441,42.685s39.026,31.709,46.952,35.977,15.854-1.22,15.854-1.22,13.11,13.11,14.635,10.061-4.573-7.621-5.793-9.451a25.657,25.657,0,0,0-3.658-3.964s6.4.914,8.842,3.05,6.4,5.792,8.231,5.488,1.83-1.83-.914-5.488a32.46,32.46,0,0,0-7.928-7.318c-1.829-1.22-7.927-4.574-7.927-4.574s8.842-.609,11.892,1.22,11.281,7.317,11.89,4.879.611-3.965-2.439-6.708-9.147-6.1-12.8-6.708a38.428,38.428,0,0,1-7.318-2.134s7.012-2.439,9.452-2.439,12.2,4.877,14.94,4.268,1.218-3.05-.916-4.574-11.585-5.184-15.549-5.488-26.22,7.317-28.964,7.317-9.756-9.755-17.074-22.866-10.062-33.539-25.611-40.551L11.476,232.662S.5,244.857.5,257.663" transform="translate(-0.5 -232.662)" fill="none"/>
    </clipPath>
    <clipPath id="clip-path-15">
      <rect id="Rectángulo_405275" data-name="Rectángulo 405275" width="100.895" height="86.66" fill="none"/>
    </clipPath>
    <clipPath id="clip-path-17">
      <path id="Trazado_879485" data-name="Trazado 879485" d="M276.8,78.856c-2.653,8.15-5.56,22-5.56,22s-2.909-8.434-6.98-12.8-8.117.514-12.479,6.04,3.1,6.811,4.362,4.653c2.638-4.5,6.45-8.561,6.822.947.19,4.872.423,14.825-2.2,16.57s-12.8-1.454-12.8-1.454,1.163-3.2,2.327-7.271,2.035-6.98,0-9.306-4.363,2.035-4.363,2.035-7.852,8.434-6.98,13.96,12.506,17.45,15.7,21.813,1.573,17.994,1.573,27.809-2.545,28.356-5.089,46.534-4.727,30.9-2.182,36.717l18.687,19.758a17.408,17.408,0,0,0,15.4,2.842c9-2.606,15.4-11.134,18.716-27.716s-7.581-39.8-13.741-55.672-9.708-44.734-9.708-44.734a59.459,59.459,0,0,0,5.5-11.562,69.05,69.05,0,0,1,8.15-17.436C296.514,105.2,302.2,101.6,305.99,98.568s5.117-3.223,3.6-4.549-6.443-.568-10.992,3.222a133.1,133.1,0,0,0-9.855,9.476,77.819,77.819,0,0,1,5.307-11.75,173.7,173.7,0,0,0,8.907-18c1.327-3.411-1.327-6.064-4.548-3.979s-6.065,6.634-7.96,11.561-8.527,16.489-10.422,16.867-1.707-3.79-.76-7.391,4.739-14.593,6.444-18.572,1.895-6.824.189-7.392a1.357,1.357,0,0,0-.427-.063c-1.97,0-6.214,3.32-8.67,10.865" transform="translate(-238.895 -67.991)" fill="none"/>
    </clipPath>
    <clipPath id="clip-path-18">
      <rect id="Rectángulo_405277" data-name="Rectángulo 405277" width="56.765" height="196.782" fill="none"/>
    </clipPath>
  </defs>
  <g id="Enmascarar_grupo_1098727" data-name="Enmascarar grupo 1098727" transform="translate(-0.25 0.41)" clip-path="url(#clip-path)">
    <g id="Grupo_1101687" data-name="Grupo 1101687" transform="translate(0.759 0.151)">
      <path id="Rectángulo_405266" data-name="Rectángulo 405266" d="M0,0H297.393a21,21,0,0,1,21,21V132.584a0,0,0,0,1,0,0H8a8,8,0,0,1-8-8V0A0,0,0,0,1,0,0Z" transform="translate(0 238.364)" fill="#3ba935" opacity="0.29"/>
      <g id="Grupo_1101686" data-name="Grupo 1101686" transform="translate(12.483 0)">
        <path id="Trazado_877153" data-name="Trazado 877153" d="M96,26.319A69.684,69.684,0,1,0,165.686,96,69.763,69.763,0,0,0,96,26.319M96,0A96,96,0,1,1,0,96,96,96,0,0,1,96,0Z" transform="translate(0 79.9)" fill="#13de61" opacity="0.84"/>
        <g id="Enmascarar_grupo_1098726" data-name="Enmascarar grupo 1098726" transform="translate(256.335 201.47)" clip-path="url(#clip-path-2)">
          <path id="Trazado_877154" data-name="Trazado 877154" d="M56.1,13.159A42.941,42.941,0,1,0,99.041,56.1,42.99,42.99,0,0,0,56.1,13.159M56.1,0A56.1,56.1,0,1,1,0,56.1,56.1,56.1,0,0,1,56.1,0Z" transform="translate(4.73 20.342)" fill="#13de61"/>
        </g>
        <g id="Grupo_1101685" data-name="Grupo 1101685" transform="translate(8.329)">
          <path id="Trazado_879148" data-name="Trazado 879148" d="M106.382,322.836,91.656,377.5l146.76.429-12.81-55.091Z" transform="translate(7.291 -7.769)" fill="#162229"/>
          <g id="Grupo_1101684" data-name="Grupo 1101684" transform="translate(0)">
            <g id="Grupo_1101683" data-name="Grupo 1101683" clip-path="url(#clip-path-3)">
              <g id="Grupo_1101647" data-name="Grupo 1101647">
                <g id="Grupo_1101646" data-name="Grupo 1101646" clip-path="url(#clip-path-3)">
                  <path id="Trazado_879149" data-name="Trazado 879149" d="M173.158,13.1s0-15.245-26.221-12.2S109.74,27.123,101.814,32,79.251,41.148,78.643,48.465s6.1,10.366-.61,15.854S60.958,74.686,63.4,82s9.146,14.636,6.1,19.514-11.585,9.756-3.658,15.245,11.586,6.707,11.586,14.025-3.048,12.2,4.268,14.635,11.586-2.44,15.854,6.708,8.537,11.585,15.854,9.756,17.683-4.878,21.343-2.44,15.245,9.147,20.123,5.488,9.146-9.146,16.463-6.1,13.416,7.318,16.464,1.83,0-6.708,11.586-9.146,15.854-1.83,15.854-11.586-.61-12.2,4.878-16.464,10.366-2.439,8.537-12.8-5.488-12.806-3.658-23.172-3.049-14.025-6.708-17.073-7.927-8.538-6.708-14.025,10.366-6.1,1.22-15.854-13.415-6.708-15.244-14.026S189.622,3.342,173.158,13.1" transform="translate(1.139 0.009)" fill="#263238"/>
                  <path id="Trazado_879150" data-name="Trazado 879150" d="M173.158,13.1s0-15.245-26.221-12.2S109.74,27.123,101.814,32,79.251,41.148,78.643,48.465s6.1,10.366-.61,15.854S60.958,74.686,63.4,82s9.146,14.636,6.1,19.514-11.585,9.756-3.658,15.245,11.586,6.707,11.586,14.025-3.048,12.2,4.268,14.635,11.586-2.44,15.854,6.708,8.537,11.585,15.854,9.756,17.683-4.878,21.343-2.44,15.245,9.147,20.123,5.488,9.146-9.146,16.463-6.1,13.416,7.318,16.464,1.83,0-6.708,11.586-9.146,15.854-1.83,15.854-11.586-.61-12.2,4.878-16.464,10.366-2.439,8.537-12.8-5.488-12.806-3.658-23.172-3.049-14.025-6.708-17.073-7.927-8.538-6.708-14.025,10.366-6.1,1.22-15.854-13.415-6.708-15.244-14.026S189.622,3.342,173.158,13.1Z" transform="translate(1.139 0.009)" fill="none" stroke="#263238" stroke-linecap="round" stroke-linejoin="round" stroke-width="1"/>
                  <path id="Trazado_879151" data-name="Trazado 879151" d="M149.432,30.905c-3.75,5.948-6.657,12.661-12.7,18.328C128,57.421,105.616,64.517,104.524,72.158s2.73,12.01-4.913,18.56S79.96,98.907,79.96,105.457s3.276,8.734,1.638,13.647" transform="translate(1.455 0.562)" fill="none" stroke="#616161" stroke-miterlimit="10" stroke-width="1"/>
                  <path id="Trazado_879152" data-name="Trazado 879152" d="M164.344,23.764s-2.729-7.1-10.371,0q-.886.823-1.679,1.7" transform="translate(2.772 0.375)" fill="none" stroke="#616161" stroke-miterlimit="10" stroke-width="1"/>
                  <path id="Trazado_879153" data-name="Trazado 879153" d="M104.135,54.348c-6.72,1.629-12.016,2.8-12.575,7.558-1.093,9.28.546,15.284-6.005,18.013S70.27,87.016,73,92.475s3.276,7.1,2.729,9.28" transform="translate(1.319 0.989)" fill="none" stroke="#616161" stroke-miterlimit="10" stroke-width="1"/>
                  <path id="Trazado_879154" data-name="Trazado 879154" d="M163.977,15.214S148.693,5.389,140.5,14.123s-4.367,19.651-16.921,31.66A31.883,31.883,0,0,1,112.522,52.5" transform="translate(2.048 0.191)" fill="none" stroke="#616161" stroke-miterlimit="10" stroke-width="1"/>
                  <path id="Trazado_879155" data-name="Trazado 879155" d="M215.2,91.152a9.912,9.912,0,0,0,3.674,3.382" transform="translate(3.917 1.659)" fill="none" stroke="#616161" stroke-miterlimit="10" stroke-width="1"/>
                  <path id="Trazado_879156" data-name="Trazado 879156" d="M173.779,28.555s13.647-4.367,16.921,3.276,4.913,21.289,10.918,23.472,8.733,5.459,8.733,17.468a38.55,38.55,0,0,0,1.708,11.414" transform="translate(3.163 0.497)" fill="none" stroke="#616161" stroke-miterlimit="10" stroke-width="1"/>
                  <path id="Trazado_879157" data-name="Trazado 879157" d="M86.93,124.565c4.367-7.1,10.371-4.367,10.917-12.009s-3.821-9.826.546-14.738,11.463-7.1,11.463-7.1" transform="translate(1.582 1.651)" fill="none" stroke="#616161" stroke-miterlimit="10" stroke-width="1"/>
                  <path id="Trazado_879158" data-name="Trazado 879158" d="M92.92,139.075a25.639,25.639,0,0,1-5.2-5.827" transform="translate(1.597 2.425)" fill="none" stroke="#616161" stroke-miterlimit="10" stroke-width="1"/>
                  <path id="Trazado_879159" data-name="Trazado 879159" d="M245.522,368.286s1.83-25-9.146-50-13.458-26.817-13.458-34.135,7.36-15.867,8.579-32.331.61-24.391.61-24.391,26.221,41.464,44.514,43.9,29.269-14.635,22.562-37.806S263.2,191.45,251.62,176.206s-37.807-15.244-51.222-15.244-20.123-4.878-22.562-14.025S175.4,119.5,175.4,119.5s-15.854,9.756-42.685-1.22c0,0,2.44,33.539-.61,38.417s-7.317,9.756-25.611,9.756-33.538,3.658-42.074,12.2-43.9,42.685-53.051,56.1-4.268,28.05,6.708,33.538,21.951.609,29.879-6.708S80.88,231.086,80.88,231.086s0,14.025,6.708,34.147,12.2,17.684,7.318,32.319-14.635,18.9-17.684,37.806a179.991,179.991,0,0,0-2.439,32.929" transform="translate(0.12 2.153)" fill="#f0c518"/>
                </g>
              </g>
              <g id="Grupo_1101652" data-name="Grupo 1101652" transform="translate(6.689 120.429)">
                <g id="Grupo_1101651" data-name="Grupo 1101651" clip-path="url(#clip-path-5)">
                  <g id="Grupo_1101650" data-name="Grupo 1101650" transform="translate(1.055 0.972)" opacity="0.2">
                    <g id="Grupo_1101649" data-name="Grupo 1101649">
                      <g id="Grupo_1101648" data-name="Grupo 1101648" clip-path="url(#clip-path-6)">
                        <path id="Trazado_879160" data-name="Trazado 879160" d="M201.97,178.9c-.42,0-1.947,1.044,0,3.984,1.948-2.941.421-3.984,0-3.984" transform="translate(-4.086 -118.145)"/>
                        <path id="Trazado_879161" data-name="Trazado 879161" d="M249.97,178.9c-.42,0-1.947,1.044,0,3.984,1.948-2.941.42-3.984,0-3.984" transform="translate(-3.213 -118.145)"/>
                        <path id="Trazado_879162" data-name="Trazado 879162" d="M249.97,202.9c-.42,0-1.947,1.044,0,3.984,1.948-2.941.42-3.984,0-3.984" transform="translate(-3.213 -117.708)"/>
                        <path id="Trazado_879163" data-name="Trazado 879163" d="M201.97,202.9c-.42,0-1.947,1.044,0,3.984,1.948-2.941.421-3.984,0-3.984" transform="translate(-4.086 -117.708)"/>
                        <path id="Trazado_879164" data-name="Trazado 879164" d="M225.97,190.9c-.419,0-1.947,1.044,0,3.984,1.948-2.941.421-3.984,0-3.984" transform="translate(-3.649 -117.926)"/>
                        <path id="Trazado_879165" data-name="Trazado 879165" d="M225.97,166.9c-.419,0-1.947,1.044,0,3.984,1.948-2.941.421-3.984,0-3.984" transform="translate(-3.649 -118.363)"/>
                        <path id="Trazado_879166" data-name="Trazado 879166" d="M202.99,183.454c3.521.2,3.653-1.643,3.441-2.008s-1.884-1.156-3.441,2.008" transform="translate(-4.05 -118.105)"/>
                        <path id="Trazado_879167" data-name="Trazado 879167" d="M254.015,182.746q-.69-.7-1.351-1.388a4.809,4.809,0,0,0-1.673,2.091,4,4,0,0,0,3.024-.7" transform="translate(-3.177 -118.1)"/>
                        <path id="Trazado_879168" data-name="Trazado 879168" d="M226.99,195.454c3.521.2,3.653-1.643,3.441-2.008s-1.884-1.156-3.441,2.008" transform="translate(-3.613 -117.887)"/>
                        <path id="Trazado_879169" data-name="Trazado 879169" d="M226.99,171.454c3.521.2,3.653-1.643,3.441-2.008s-1.884-1.156-3.441,2.008" transform="translate(-3.613 -118.324)"/>
                        <path id="Trazado_879170" data-name="Trazado 879170" d="M245.538,181.446c-.212.364-.078,2.208,3.443,2.008-1.559-3.164-3.231-2.371-3.443-2.008" transform="translate(-3.277 -118.105)"/>
                        <path id="Trazado_879171" data-name="Trazado 879171" d="M245.538,205.446a1.25,1.25,0,0,0,.526,1.4,4.261,4.261,0,0,0,2.916.606c-.11-.223-.22-.42-.33-.606-1.457-2.444-2.916-1.739-3.113-1.4" transform="translate(-3.277 -117.668)"/>
                        <path id="Trazado_879172" data-name="Trazado 879172" d="M221.538,193.447c-.212.363-.078,2.208,3.443,2.008-1.559-3.164-3.231-2.371-3.443-2.008" transform="translate(-3.714 -117.887)"/>
                        <path id="Trazado_879173" data-name="Trazado 879173" d="M221.538,169.447c-.212.363-.078,2.208,3.443,2.008-1.559-3.164-3.231-2.371-3.443-2.008" transform="translate(-3.714 -118.324)"/>
                        <path id="Trazado_879174" data-name="Trazado 879174" d="M201.97,250.9c-.42,0-1.947,1.044,0,3.984,1.948-2.941.421-3.984,0-3.984" transform="translate(-4.086 -116.834)"/>
                        <path id="Trazado_879175" data-name="Trazado 879175" d="M249.97,250.9c-.3,0-1.179.55-.909,1.963q.644.692,1.3,1.371c1.322-2.443,0-3.335-.388-3.335" transform="translate(-3.213 -116.834)"/>
                        <path id="Trazado_879176" data-name="Trazado 879176" d="M201.97,274.9c-.42,0-1.947,1.044,0,3.984,1.948-2.941.421-3.984,0-3.984" transform="translate(-4.086 -116.398)"/>
                        <path id="Trazado_879177" data-name="Trazado 879177" d="M273.97,262.9c-.419,0-1.947,1.044,0,3.984,1.947-2.941.42-3.984,0-3.984" transform="translate(-2.776 -116.616)"/>
                        <path id="Trazado_879178" data-name="Trazado 879178" d="M201.97,226.9c-.42,0-1.947,1.044,0,3.984,1.948-2.941.421-3.984,0-3.984" transform="translate(-4.086 -117.271)"/>
                        <path id="Trazado_879179" data-name="Trazado 879179" d="M249.97,226.9c-.42,0-1.947,1.044,0,3.984,1.948-2.941.42-3.984,0-3.984" transform="translate(-3.213 -117.271)"/>
                        <path id="Trazado_879180" data-name="Trazado 879180" d="M225.97,238.9c-.419,0-1.947,1.044,0,3.984,1.948-2.941.421-3.984,0-3.984" transform="translate(-3.649 -117.053)"/>
                        <path id="Trazado_879181" data-name="Trazado 879181" d="M273.97,238.9c-.419,0-1.947,1.044,0,3.984,1.947-2.941.42-3.984,0-3.984" transform="translate(-2.776 -117.053)"/>
                        <path id="Trazado_879182" data-name="Trazado 879182" d="M225.97,214.9c-.419,0-1.947,1.044,0,3.984,1.948-2.941.421-3.984,0-3.984" transform="translate(-3.649 -117.49)"/>
                        <path id="Trazado_879183" data-name="Trazado 879183" d="M273.97,214.9c-.419,0-1.947,1.044,0,3.984,1.947-2.941.42-3.984,0-3.984" transform="translate(-2.776 -117.49)"/>
                        <path id="Trazado_879184" data-name="Trazado 879184" d="M202.99,255.454c3.521.2,3.653-1.643,3.441-2.008s-1.884-1.155-3.441,2.008" transform="translate(-4.05 -116.795)"/>
                        <path id="Trazado_879185" data-name="Trazado 879185" d="M251.182,255.09l.373.378c2.963-.02,3.073-1.678,2.872-2.02s-1.745-1.08-3.245,1.642" transform="translate(-3.173 -116.795)"/>
                        <path id="Trazado_879186" data-name="Trazado 879186" d="M205.661,277.088a1.825,1.825,0,0,0-1.224.426,3.533,3.533,0,0,0-.568.549,6.053,6.053,0,0,0-.549.786c-.012.02-.024.037-.037.058-.1.167-.2.35-.292.548a4.26,4.26,0,0,0,2.915-.606,1.834,1.834,0,0,0,.2-.186,1.51,1.51,0,0,0,.254-.368.745.745,0,0,0-.7-1.207" transform="translate(-4.05 -116.358)"/>
                        <path id="Trazado_879187" data-name="Trazado 879187" d="M274.991,267.454c3.519.2,3.651-1.643,3.44-2.008s-1.884-1.155-3.44,2.008" transform="translate(-2.74 -116.576)"/>
                        <path id="Trazado_879188" data-name="Trazado 879188" d="M202.99,231.454c3.521.2,3.653-1.643,3.441-2.008s-1.884-1.155-3.441,2.008" transform="translate(-4.05 -117.231)"/>
                        <path id="Trazado_879189" data-name="Trazado 879189" d="M254.431,229.446c-.211-.364-1.883-1.156-3.44,2.008,3.52.2,3.653-1.644,3.44-2.008" transform="translate(-3.177 -117.232)"/>
                        <path id="Trazado_879190" data-name="Trazado 879190" d="M226.99,243.439a8.331,8.331,0,0,0,.888,0c.028-.509.053-1,.076-1.485a6.542,6.542,0,0,0-.964,1.484" transform="translate(-3.613 -116.997)"/>
                        <path id="Trazado_879191" data-name="Trazado 879191" d="M274.991,243.454c3.519.2,3.651-1.643,3.44-2.008s-1.884-1.155-3.44,2.008" transform="translate(-2.74 -117.013)"/>
                        <path id="Trazado_879192" data-name="Trazado 879192" d="M226.99,219.454c3.521.2,3.653-1.643,3.441-2.008s-1.884-1.155-3.441,2.008" transform="translate(-3.613 -117.45)"/>
                        <path id="Trazado_879193" data-name="Trazado 879193" d="M274.991,219.454c3.519.2,3.651-1.643,3.44-2.008s-1.884-1.155-3.44,2.008" transform="translate(-2.74 -117.45)"/>
                        <path id="Trazado_879194" data-name="Trazado 879194" d="M223.358,267.377c.186-.494.371-1,.556-1.517-1.179-1.221-2.211-.693-2.375-.413-.172.3-.114,1.576,1.82,1.931" transform="translate(-3.714 -116.576)"/>
                        <path id="Trazado_879195" data-name="Trazado 879195" d="M293.538,253.446a1.3,1.3,0,0,0,.683,1.511q.312-.886.567-1.819a1.182,1.182,0,0,0-1.25.308" transform="translate(-2.403 -116.795)"/>
                        <path id="Trazado_879196" data-name="Trazado 879196" d="M269.538,265.447c-.213.363-.079,2.208,3.443,2.008-1.559-3.164-3.232-2.371-3.443-2.008" transform="translate(-2.84 -116.576)"/>
                        <path id="Trazado_879197" data-name="Trazado 879197" d="M245.538,229.446c-.212.363-.078,2.209,3.443,2.008-1.559-3.164-3.231-2.371-3.443-2.008" transform="translate(-3.277 -117.232)"/>
                        <path id="Trazado_879198" data-name="Trazado 879198" d="M221.538,241.446c-.212.364-.078,2.208,3.443,2.008-1.559-3.164-3.231-2.371-3.443-2.008" transform="translate(-3.714 -117.013)"/>
                        <path id="Trazado_879199" data-name="Trazado 879199" d="M269.538,241.446c-.213.364-.079,2.208,3.443,2.008-1.559-3.164-3.232-2.371-3.443-2.008" transform="translate(-2.84 -117.013)"/>
                        <path id="Trazado_879200" data-name="Trazado 879200" d="M221.538,217.446c-.212.363-.078,2.209,3.443,2.008-1.559-3.164-3.231-2.371-3.443-2.008" transform="translate(-3.714 -117.45)"/>
                        <path id="Trazado_879201" data-name="Trazado 879201" d="M269.538,217.446c-.213.363-.079,2.209,3.443,2.008-1.559-3.164-3.232-2.371-3.443-2.008" transform="translate(-2.84 -117.45)"/>
                        <path id="Trazado_879202" data-name="Trazado 879202" d="M253.906,206.849h0a1.25,1.25,0,0,0,.525-1.4c-.2-.337-1.655-1.042-3.111,1.4-.111.184-.221.383-.33.606a4.259,4.259,0,0,0,2.915-.606" transform="translate(-3.177 -117.668)"/>
                        <path id="Trazado_879203" data-name="Trazado 879203" d="M205.906,206.849h0a1.25,1.25,0,0,0,.525-1.4c-.2-.337-1.656-1.042-3.112,1.4-.11.184-.22.383-.33.606a4.261,4.261,0,0,0,2.916-.606" transform="translate(-4.05 -117.668)"/>
                        <path id="Trazado_879204" data-name="Trazado 879204" d="M201.97,322.9c-.42,0-1.947,1.044,0,3.984,1.948-2.941.421-3.984,0-3.984" transform="translate(-4.086 -115.524)"/>
                        <path id="Trazado_879205" data-name="Trazado 879205" d="M201.97,346.9c-.42,0-1.947,1.044,0,3.984,1.948-2.941.421-3.984,0-3.984" transform="translate(-4.086 -115.087)"/>
                        <path id="Trazado_879206" data-name="Trazado 879206" d="M225.97,334.9c-.419,0-1.947,1.044,0,3.984,1.948-2.941.421-3.984,0-3.984" transform="translate(-3.649 -115.305)"/>
                        <path id="Trazado_879207" data-name="Trazado 879207" d="M201.97,298.9c-.42,0-1.947,1.044,0,3.984,1.948-2.94.421-3.984,0-3.984" transform="translate(-4.086 -115.961)"/>
                        <path id="Trazado_879208" data-name="Trazado 879208" d="M225.97,310.9c-.419,0-1.947,1.044,0,3.984,1.948-2.941.421-3.984,0-3.984" transform="translate(-3.649 -115.742)"/>
                        <path id="Trazado_879209" data-name="Trazado 879209" d="M202.99,327.454c3.521.2,3.653-1.643,3.441-2.008s-1.884-1.155-3.441,2.008" transform="translate(-4.05 -115.484)"/>
                        <path id="Trazado_879210" data-name="Trazado 879210" d="M205.661,349.088a1.528,1.528,0,0,0-.214,0,1.8,1.8,0,0,0-.739.243,2.3,2.3,0,0,0-.271.18,4.613,4.613,0,0,0-1.117,1.335c-.11.184-.22.383-.329.606a4.26,4.26,0,0,0,2.915-.606,1.25,1.25,0,0,0,.525-1.4,1.009,1.009,0,0,0-.771-.358" transform="translate(-4.05 -115.047)"/>
                        <path id="Trazado_879211" data-name="Trazado 879211" d="M226.99,339.454c3.521.2,3.653-1.643,3.441-2.008s-1.884-1.155-3.441,2.008" transform="translate(-3.613 -115.266)"/>
                        <path id="Trazado_879212" data-name="Trazado 879212" d="M202.99,303.454c3.521.2,3.653-1.643,3.441-2.008s-1.884-1.155-3.441,2.008" transform="translate(-4.05 -115.921)"/>
                        <path id="Trazado_879213" data-name="Trazado 879213" d="M226.99,315.454c3.521.2,3.653-1.643,3.441-2.008s-1.884-1.155-3.441,2.008" transform="translate(-3.613 -115.703)"/>
                        <path id="Trazado_879214" data-name="Trazado 879214" d="M221.538,337.446c-.212.364-.078,2.209,3.443,2.008-1.559-3.164-3.231-2.371-3.443-2.008" transform="translate(-3.714 -115.266)"/>
                        <path id="Trazado_879215" data-name="Trazado 879215" d="M221.538,313.446c-.212.363-.078,2.208,3.443,2.008-1.559-3.164-3.231-2.371-3.443-2.008" transform="translate(-3.714 -115.703)"/>
                        <path id="Trazado_879216" data-name="Trazado 879216" d="M225.97,358.9c-.419,0-1.947,1.044,0,3.984,1.948-2.941.421-3.984,0-3.984" transform="translate(-3.649 -114.869)"/>
                        <path id="Trazado_879217" data-name="Trazado 879217" d="M226.99,363.454c3.521.2,3.653-1.643,3.441-2.008s-1.884-1.155-3.441,2.008" transform="translate(-3.613 -114.829)"/>
                        <path id="Trazado_879218" data-name="Trazado 879218" d="M221.538,361.447c-.212.364-.078,2.209,3.443,2.008-1.559-3.163-3.231-2.371-3.443-2.008" transform="translate(-3.714 -114.829)"/>
                        <path id="Trazado_879219" data-name="Trazado 879219" d="M153.97,130.9c-.42,0-1.947,1.044,0,3.984,1.948-2.941.42-3.984,0-3.984" transform="translate(-4.96 -119.019)"/>
                        <path id="Trazado_879220" data-name="Trazado 879220" d="M130.523,119.231c.038.554.088,1.323.146,2.275a2.129,2.129,0,0,0-.146-2.275" transform="translate(-5.369 -119.231)"/>
                        <path id="Trazado_879221" data-name="Trazado 879221" d="M157.661,133.088a1.832,1.832,0,0,0-1.224.426,3.544,3.544,0,0,0-.568.55,5.867,5.867,0,0,0-.548.785c-.013.02-.024.037-.038.058q-.147.252-.292.548a4.26,4.26,0,0,0,2.915-.606,1.746,1.746,0,0,0,.2-.186,1.519,1.519,0,0,0,.254-.368.745.745,0,0,0-.7-1.207" transform="translate(-4.924 -118.979)"/>
                        <path id="Trazado_879222" data-name="Trazado 879222" d="M130.99,123.454c3.521.2,3.653-1.643,3.442-2.008s-1.884-1.156-3.442,2.008" transform="translate(-5.361 -119.197)"/>
                        <path id="Trazado_879223" data-name="Trazado 879223" d="M106.912,180.036a1.657,1.657,0,0,0-.135-.453l0-.009a1.594,1.594,0,0,0-.106-.185l-.005-.006a1.3,1.3,0,0,0-.238-.266l-.008-.007a1.063,1.063,0,0,0-.244-.155h0a.426.426,0,0,0-.4,0c-.468.206-1.238,1.059-.376,2.918a7.735,7.735,0,0,0,.576,1.016,7.732,7.732,0,0,0,.576-1.016,3.618,3.618,0,0,0,.391-1.537,2.115,2.115,0,0,0-.022-.288l0-.01" transform="translate(-5.834 -118.145)"/>
                        <path id="Trazado_879224" data-name="Trazado 879224" d="M153.97,178.9c-.42,0-1.947,1.044,0,3.984,1.948-2.941.42-3.984,0-3.984" transform="translate(-4.96 -118.145)"/>
                        <path id="Trazado_879225" data-name="Trazado 879225" d="M153.97,202.9c-.42,0-1.947,1.044,0,3.984,1.948-2.941.42-3.984,0-3.984" transform="translate(-4.96 -117.708)"/>
                        <path id="Trazado_879226" data-name="Trazado 879226" d="M106.912,204.036a1.656,1.656,0,0,0-.135-.453l0-.009a1.6,1.6,0,0,0-.106-.185l-.005-.006a1.3,1.3,0,0,0-.238-.266l-.008-.007a1.058,1.058,0,0,0-.244-.155h0a.426.426,0,0,0-.4,0c-.468.206-1.238,1.059-.376,2.918a7.744,7.744,0,0,0,.576,1.016,7.741,7.741,0,0,0,.576-1.016,3.618,3.618,0,0,0,.391-1.537,2.113,2.113,0,0,0-.022-.288l0-.01" transform="translate(-5.834 -117.708)"/>
                        <path id="Trazado_879227" data-name="Trazado 879227" d="M129.97,190.9c-.42,0-1.947,1.044,0,3.984,1.948-2.941.421-3.984,0-3.984" transform="translate(-5.397 -117.926)"/>
                        <path id="Trazado_879228" data-name="Trazado 879228" d="M177.97,190.9c-.419,0-1.947,1.044,0,3.984,1.947-2.941.419-3.984,0-3.984" transform="translate(-4.523 -117.926)"/>
                        <path id="Trazado_879229" data-name="Trazado 879229" d="M153.97,154.9c-.42,0-1.947,1.044,0,3.984,1.948-2.941.42-3.984,0-3.984" transform="translate(-4.96 -118.582)"/>
                        <path id="Trazado_879230" data-name="Trazado 879230" d="M129.97,166.9c-.42,0-1.947,1.044,0,3.984,1.948-2.941.421-3.984,0-3.984" transform="translate(-5.397 -118.363)"/>
                        <path id="Trazado_879231" data-name="Trazado 879231" d="M177.97,166.9c-.419,0-1.947,1.044,0,3.984,1.947-2.941.419-3.984,0-3.984" transform="translate(-4.523 -118.363)"/>
                        <path id="Trazado_879232" data-name="Trazado 879232" d="M106.991,183.454c3.52.2,3.652-1.643,3.441-2.008s-1.883-1.156-3.441,2.008" transform="translate(-5.798 -118.105)"/>
                        <path id="Trazado_879233" data-name="Trazado 879233" d="M154.99,183.454c3.52.2,3.653-1.643,3.441-2.008s-1.883-1.156-3.441,2.008" transform="translate(-4.924 -118.105)"/>
                        <path id="Trazado_879234" data-name="Trazado 879234" d="M130.99,195.454c3.521.2,3.653-1.643,3.442-2.008s-1.884-1.156-3.442,2.008" transform="translate(-5.361 -117.887)"/>
                        <path id="Trazado_879235" data-name="Trazado 879235" d="M178.99,195.454c3.52.2,3.651-1.643,3.441-2.008s-1.884-1.156-3.441,2.008" transform="translate(-4.487 -117.887)"/>
                        <path id="Trazado_879236" data-name="Trazado 879236" d="M154.99,159.454c3.52.2,3.653-1.643,3.441-2.008s-1.883-1.156-3.441,2.008" transform="translate(-4.924 -118.542)"/>
                        <path id="Trazado_879237" data-name="Trazado 879237" d="M130.99,171.454c3.521.2,3.653-1.643,3.442-2.008s-1.884-1.156-3.442,2.008" transform="translate(-5.361 -118.324)"/>
                        <path id="Trazado_879238" data-name="Trazado 879238" d="M178.99,171.454c3.52.2,3.651-1.643,3.441-2.008s-1.884-1.156-3.441,2.008" transform="translate(-4.487 -118.324)"/>
                        <path id="Trazado_879239" data-name="Trazado 879239" d="M134.427,145.446c-.2-.341-1.687-1.06-3.159,1.479-.007.181-.015.356-.023.535,3.259.094,3.39-1.66,3.183-2.014" transform="translate(-5.356 -118.76)"/>
                        <path id="Trazado_879240" data-name="Trazado 879240" d="M149.538,181.446c-.212.364-.078,2.208,3.443,2.008-1.559-3.164-3.231-2.371-3.443-2.008" transform="translate(-5.024 -118.105)"/>
                        <path id="Trazado_879241" data-name="Trazado 879241" d="M149.538,205.446a1.25,1.25,0,0,0,.526,1.4,4.261,4.261,0,0,0,2.916.606c-.11-.223-.22-.42-.33-.606-1.457-2.444-2.916-1.739-3.113-1.4" transform="translate(-5.024 -117.668)"/>
                        <path id="Trazado_879242" data-name="Trazado 879242" d="M125.538,193.447c-.212.363-.078,2.208,3.443,2.008-1.559-3.164-3.231-2.371-3.443-2.008" transform="translate(-5.461 -117.887)"/>
                        <path id="Trazado_879243" data-name="Trazado 879243" d="M197.538,181.446c-.213.364-.079,2.208,3.44,2.008-1.557-3.164-3.23-2.371-3.44-2.008" transform="translate(-4.151 -118.105)"/>
                        <path id="Trazado_879244" data-name="Trazado 879244" d="M200.649,206.849c-1.455-2.444-2.915-1.739-3.111-1.4a1.251,1.251,0,0,0,.525,1.4,4.256,4.256,0,0,0,2.915.606c-.11-.223-.22-.421-.33-.606" transform="translate(-4.151 -117.668)"/>
                        <path id="Trazado_879245" data-name="Trazado 879245" d="M173.538,193.447c-.213.363-.079,2.208,3.443,2.008-1.559-3.164-3.232-2.371-3.443-2.008" transform="translate(-4.587 -117.887)"/>
                        <path id="Trazado_879246" data-name="Trazado 879246" d="M149.538,157.446c-.212.364-.078,2.208,3.443,2.008-1.559-3.164-3.231-2.371-3.443-2.008" transform="translate(-5.024 -118.542)"/>
                        <path id="Trazado_879247" data-name="Trazado 879247" d="M125.538,169.447c-.212.363-.078,2.208,3.443,2.008-1.559-3.164-3.231-2.371-3.443-2.008" transform="translate(-5.461 -118.324)"/>
                        <path id="Trazado_879248" data-name="Trazado 879248" d="M173.538,169.447c-.213.363-.079,2.208,3.443,2.008-1.559-3.164-3.232-2.371-3.443-2.008" transform="translate(-4.587 -118.324)"/>
                        <path id="Trazado_879249" data-name="Trazado 879249" d="M175.06,147.308c-.088-.285-.183-.564-.263-.859-.115-.433-.223-.889-.327-1.358a1.078,1.078,0,0,0-.933.357c-.164.279-.115,1.435,1.522,1.86" transform="translate(-4.587 -118.76)"/>
                        <path id="Trazado_879250" data-name="Trazado 879250" d="M152.651,134.849a5.862,5.862,0,0,0-.549-.785,3.543,3.543,0,0,0-.568-.55,1.832,1.832,0,0,0-1.224-.426.745.745,0,0,0-.7,1.207,1.491,1.491,0,0,0,.254.368,1.745,1.745,0,0,0,.2.186,4.261,4.261,0,0,0,2.916.606q-.147-.3-.293-.548c-.012-.021-.024-.038-.037-.058" transform="translate(-5.024 -118.979)"/>
                        <path id="Trazado_879251" data-name="Trazado 879251" d="M106.912,252.036a1.657,1.657,0,0,0-.135-.453l0-.009a1.608,1.608,0,0,0-.106-.185l-.005-.006a1.3,1.3,0,0,0-.238-.266l-.008-.007a1.062,1.062,0,0,0-.244-.155h0a.419.419,0,0,0-.4,0c-.468.206-1.238,1.059-.376,2.918a7.729,7.729,0,0,0,.576,1.016,7.726,7.726,0,0,0,.576-1.016,3.617,3.617,0,0,0,.391-1.537,2.113,2.113,0,0,0-.022-.288l0-.01" transform="translate(-5.834 -116.834)"/>
                        <path id="Trazado_879252" data-name="Trazado 879252" d="M153.97,250.9c-.42,0-1.947,1.044,0,3.984,1.948-2.941.42-3.984,0-3.984" transform="translate(-4.96 -116.834)"/>
                        <path id="Trazado_879253" data-name="Trazado 879253" d="M153.97,274.9c-.42,0-1.947,1.044,0,3.984,1.948-2.941.42-3.984,0-3.984" transform="translate(-4.96 -116.398)"/>
                        <path id="Trazado_879254" data-name="Trazado 879254" d="M106.912,276.036a1.656,1.656,0,0,0-.135-.453l0-.009a1.59,1.59,0,0,0-.106-.185l-.005-.006a1.3,1.3,0,0,0-.238-.266l-.008-.007a1.065,1.065,0,0,0-.244-.155h0a.419.419,0,0,0-.4,0c-.468.206-1.238,1.059-.376,2.918a7.734,7.734,0,0,0,.576,1.016,7.731,7.731,0,0,0,.576-1.016,3.617,3.617,0,0,0,.391-1.536,2.118,2.118,0,0,0-.022-.289l0-.01" transform="translate(-5.834 -116.398)"/>
                        <path id="Trazado_879255" data-name="Trazado 879255" d="M129.97,262.9c-.42,0-1.947,1.044,0,3.984,1.948-2.941.421-3.984,0-3.984" transform="translate(-5.397 -116.616)"/>
                        <path id="Trazado_879256" data-name="Trazado 879256" d="M177.97,262.9c-.419,0-1.947,1.044,0,3.984,1.947-2.941.419-3.984,0-3.984" transform="translate(-4.523 -116.616)"/>
                        <path id="Trazado_879257" data-name="Trazado 879257" d="M106.912,228.036a1.657,1.657,0,0,0-.135-.453l0-.009a1.6,1.6,0,0,0-.106-.185l-.005-.006a1.3,1.3,0,0,0-.238-.266l-.008-.007a1.057,1.057,0,0,0-.244-.155h0a.426.426,0,0,0-.4,0c-.468.206-1.238,1.059-.376,2.918a7.743,7.743,0,0,0,.576,1.016,7.74,7.74,0,0,0,.576-1.016,3.618,3.618,0,0,0,.391-1.537,2.115,2.115,0,0,0-.022-.288l0-.01" transform="translate(-5.834 -117.271)"/>
                        <path id="Trazado_879258" data-name="Trazado 879258" d="M153.97,226.9c-.42,0-1.947,1.044,0,3.984,1.948-2.941.42-3.984,0-3.984" transform="translate(-4.96 -117.271)"/>
                        <path id="Trazado_879259" data-name="Trazado 879259" d="M129.97,238.9c-.42,0-1.947,1.044,0,3.984,1.948-2.941.421-3.984,0-3.984" transform="translate(-5.397 -117.053)"/>
                        <path id="Trazado_879260" data-name="Trazado 879260" d="M177.97,238.9c-.419,0-1.947,1.044,0,3.984,1.947-2.941.419-3.984,0-3.984" transform="translate(-4.523 -117.053)"/>
                        <path id="Trazado_879261" data-name="Trazado 879261" d="M129.97,214.9c-.42,0-1.947,1.044,0,3.984,1.948-2.941.421-3.984,0-3.984" transform="translate(-5.397 -117.49)"/>
                        <path id="Trazado_879262" data-name="Trazado 879262" d="M177.97,214.9c-.419,0-1.947,1.044,0,3.984,1.947-2.941.419-3.984,0-3.984" transform="translate(-4.523 -117.49)"/>
                        <path id="Trazado_879263" data-name="Trazado 879263" d="M106.991,255.454c3.52.2,3.652-1.643,3.441-2.008s-1.883-1.155-3.441,2.008" transform="translate(-5.798 -116.795)"/>
                        <path id="Trazado_879264" data-name="Trazado 879264" d="M154.99,255.454c3.52.2,3.653-1.643,3.441-2.008s-1.883-1.155-3.441,2.008" transform="translate(-4.924 -116.795)"/>
                        <path id="Trazado_879265" data-name="Trazado 879265" d="M157.661,277.088a1.827,1.827,0,0,0-1.224.426,3.577,3.577,0,0,0-.568.549,5.954,5.954,0,0,0-.548.786c-.013.02-.024.037-.038.058-.1.167-.2.35-.292.548a4.26,4.26,0,0,0,2.915-.606,1.839,1.839,0,0,0,.2-.186,1.54,1.54,0,0,0,.254-.368.745.745,0,0,0-.7-1.207" transform="translate(-4.924 -116.358)"/>
                        <path id="Trazado_879266" data-name="Trazado 879266" d="M109.661,277.088a1.825,1.825,0,0,0-1.224.426,3.534,3.534,0,0,0-.568.549,6.048,6.048,0,0,0-.549.786c-.012.02-.024.037-.037.058-.1.167-.2.35-.293.548a4.262,4.262,0,0,0,2.916-.606,1.841,1.841,0,0,0,.2-.186,1.511,1.511,0,0,0,.254-.368.745.745,0,0,0-.7-1.207" transform="translate(-5.797 -116.358)"/>
                        <path id="Trazado_879267" data-name="Trazado 879267" d="M130.99,267.454c3.521.2,3.653-1.643,3.442-2.008s-1.884-1.155-3.442,2.008" transform="translate(-5.361 -116.576)"/>
                        <path id="Trazado_879268" data-name="Trazado 879268" d="M178.99,267.454c3.52.2,3.651-1.643,3.441-2.008s-1.884-1.155-3.441,2.008" transform="translate(-4.487 -116.576)"/>
                        <path id="Trazado_879269" data-name="Trazado 879269" d="M106.991,231.454c3.52.2,3.652-1.643,3.441-2.008s-1.883-1.155-3.441,2.008" transform="translate(-5.798 -117.231)"/>
                        <path id="Trazado_879270" data-name="Trazado 879270" d="M154.99,231.454c3.52.2,3.653-1.643,3.441-2.008s-1.883-1.155-3.441,2.008" transform="translate(-4.924 -117.231)"/>
                        <path id="Trazado_879271" data-name="Trazado 879271" d="M130.99,243.454c3.521.2,3.653-1.643,3.442-2.008s-1.884-1.155-3.442,2.008" transform="translate(-5.361 -117.013)"/>
                        <path id="Trazado_879272" data-name="Trazado 879272" d="M178.99,243.454c3.52.2,3.651-1.643,3.441-2.008s-1.884-1.155-3.441,2.008" transform="translate(-4.487 -117.013)"/>
                        <path id="Trazado_879273" data-name="Trazado 879273" d="M130.99,219.454c3.521.2,3.653-1.643,3.442-2.008s-1.884-1.155-3.442,2.008" transform="translate(-5.361 -117.45)"/>
                        <path id="Trazado_879274" data-name="Trazado 879274" d="M178.99,219.454c3.52.2,3.651-1.643,3.441-2.008s-1.884-1.155-3.441,2.008" transform="translate(-4.487 -117.45)"/>
                        <path id="Trazado_879275" data-name="Trazado 879275" d="M149.538,253.446c-.212.364-.078,2.208,3.443,2.008-1.559-3.164-3.231-2.371-3.443-2.008" transform="translate(-5.024 -116.795)"/>
                        <path id="Trazado_879276" data-name="Trazado 879276" d="M125.538,265.447c-.212.363-.078,2.208,3.443,2.008-1.559-3.164-3.231-2.371-3.443-2.008" transform="translate(-5.461 -116.576)"/>
                        <path id="Trazado_879277" data-name="Trazado 879277" d="M197.538,253.446c-.213.364-.079,2.208,3.44,2.008-1.557-3.164-3.23-2.371-3.44-2.008" transform="translate(-4.151 -116.795)"/>
                        <path id="Trazado_879278" data-name="Trazado 879278" d="M173.538,265.447c-.213.363-.079,2.208,3.443,2.008-1.559-3.164-3.232-2.371-3.443-2.008" transform="translate(-4.587 -116.576)"/>
                        <path id="Trazado_879279" data-name="Trazado 879279" d="M111.62,282.434s26.473,6.788,59.735-19.007,46.158-15.612,44.8,2.715-29.868,35.3-42.086,37.335c-20.092,3.349-38.013,8.824-62.449-21.043" transform="translate(-5.713 -116.889)"/>
                        <path id="Trazado_879280" data-name="Trazado 879280" d="M149.538,229.446c-.212.363-.078,2.209,3.443,2.008-1.559-3.164-3.231-2.371-3.443-2.008" transform="translate(-5.024 -117.232)"/>
                        <path id="Trazado_879281" data-name="Trazado 879281" d="M125.538,241.446c-.212.364-.078,2.208,3.443,2.008-1.559-3.164-3.231-2.371-3.443-2.008" transform="translate(-5.461 -117.013)"/>
                        <path id="Trazado_879282" data-name="Trazado 879282" d="M197.538,229.446c-.213.363-.079,2.209,3.44,2.008-1.557-3.164-3.23-2.371-3.44-2.008" transform="translate(-4.151 -117.232)"/>
                        <path id="Trazado_879283" data-name="Trazado 879283" d="M173.538,241.446c-.213.364-.079,2.208,3.443,2.008-1.559-3.164-3.232-2.371-3.443-2.008" transform="translate(-4.587 -117.013)"/>
                        <path id="Trazado_879284" data-name="Trazado 879284" d="M125.538,217.446c-.212.363-.078,2.209,3.443,2.008-1.559-3.164-3.231-2.371-3.443-2.008" transform="translate(-5.461 -117.45)"/>
                        <path id="Trazado_879285" data-name="Trazado 879285" d="M173.538,217.446c-.213.363-.079,2.209,3.443,2.008-1.559-3.164-3.232-2.371-3.443-2.008" transform="translate(-4.587 -117.45)"/>
                        <path id="Trazado_879286" data-name="Trazado 879286" d="M157.906,206.849h0a1.25,1.25,0,0,0,.525-1.4c-.2-.337-1.655-1.042-3.111,1.4-.111.184-.221.383-.33.606a4.259,4.259,0,0,0,2.915-.606" transform="translate(-4.924 -117.668)"/>
                        <path id="Trazado_879287" data-name="Trazado 879287" d="M109.906,206.849h0a1.251,1.251,0,0,0,.525-1.4c-.2-.337-1.656-1.042-3.112,1.4-.11.184-.22.383-.33.606a4.261,4.261,0,0,0,2.916-.606" transform="translate(-5.797 -117.668)"/>
                        <path id="Trazado_879288" data-name="Trazado 879288" d="M106.912,324.036a1.659,1.659,0,0,0-.135-.453l0-.009a1.6,1.6,0,0,0-.106-.185l-.005-.006a1.3,1.3,0,0,0-.238-.266l-.008-.007a1.1,1.1,0,0,0-.244-.155h0a.426.426,0,0,0-.4,0c-.468.206-1.238,1.059-.376,2.918a7.72,7.72,0,0,0,.576,1.016,7.717,7.717,0,0,0,.576-1.016,3.617,3.617,0,0,0,.391-1.536,2.127,2.127,0,0,0-.022-.289l0-.01" transform="translate(-5.834 -115.524)"/>
                        <path id="Trazado_879289" data-name="Trazado 879289" d="M153.97,322.9c-.42,0-1.947,1.044,0,3.984,1.948-2.941.42-3.984,0-3.984" transform="translate(-4.96 -115.524)"/>
                        <path id="Trazado_879290" data-name="Trazado 879290" d="M153.97,346.9c-.42,0-1.947,1.044,0,3.984,1.948-2.941.42-3.984,0-3.984" transform="translate(-4.96 -115.087)"/>
                        <path id="Trazado_879291" data-name="Trazado 879291" d="M106.912,348.036a1.657,1.657,0,0,0-.135-.453l0-.009a1.6,1.6,0,0,0-.106-.185l-.005-.006a1.3,1.3,0,0,0-.238-.266l-.008-.007a1.091,1.091,0,0,0-.244-.155h0a.426.426,0,0,0-.4,0c-.468.206-1.238,1.059-.376,2.918a7.735,7.735,0,0,0,.576,1.016,7.732,7.732,0,0,0,.576-1.016,3.618,3.618,0,0,0,.391-1.536,2.13,2.13,0,0,0-.022-.289l0-.01" transform="translate(-5.834 -115.087)"/>
                        <path id="Trazado_879292" data-name="Trazado 879292" d="M129.97,334.9c-.42,0-1.947,1.044,0,3.984,1.948-2.941.421-3.984,0-3.984" transform="translate(-5.397 -115.305)"/>
                        <path id="Trazado_879293" data-name="Trazado 879293" d="M177.97,334.9c-.419,0-1.947,1.044,0,3.984,1.947-2.941.419-3.984,0-3.984" transform="translate(-4.523 -115.305)"/>
                        <path id="Trazado_879294" data-name="Trazado 879294" d="M106.912,300.036a1.656,1.656,0,0,0-.135-.453l0-.009a1.6,1.6,0,0,0-.106-.185l-.005-.006a1.3,1.3,0,0,0-.238-.266l-.008-.007a1.059,1.059,0,0,0-.244-.155h0a.419.419,0,0,0-.4,0c-.468.206-1.238,1.059-.376,2.918a7.731,7.731,0,0,0,.576,1.016,7.728,7.728,0,0,0,.576-1.016,3.617,3.617,0,0,0,.391-1.536,2.12,2.12,0,0,0-.022-.289l0-.01" transform="translate(-5.834 -115.961)"/>
                        <path id="Trazado_879295" data-name="Trazado 879295" d="M153.97,298.9c-.42,0-1.947,1.044,0,3.984,1.948-2.94.42-3.984,0-3.984" transform="translate(-4.96 -115.961)"/>
                        <path id="Trazado_879296" data-name="Trazado 879296" d="M129.97,310.9c-.42,0-1.947,1.044,0,3.984,1.948-2.941.421-3.984,0-3.984" transform="translate(-5.397 -115.742)"/>
                        <path id="Trazado_879297" data-name="Trazado 879297" d="M177.97,310.9c-.419,0-1.947,1.044,0,3.984,1.947-2.941.419-3.984,0-3.984" transform="translate(-4.523 -115.742)"/>
                        <path id="Trazado_879298" data-name="Trazado 879298" d="M129.97,286.9c-.42,0-1.947,1.044,0,3.984,1.948-2.94.421-3.984,0-3.984" transform="translate(-5.397 -116.179)"/>
                        <path id="Trazado_879299" data-name="Trazado 879299" d="M177.97,286.9c-.419,0-1.947,1.044,0,3.984,1.947-2.94.419-3.984,0-3.984" transform="translate(-4.523 -116.179)"/>
                        <path id="Trazado_879300" data-name="Trazado 879300" d="M106.991,327.454c3.52.2,3.652-1.643,3.441-2.008s-1.883-1.155-3.441,2.008" transform="translate(-5.798 -115.484)"/>
                        <path id="Trazado_879301" data-name="Trazado 879301" d="M154.99,327.454c3.52.2,3.653-1.643,3.441-2.008s-1.883-1.155-3.441,2.008" transform="translate(-4.924 -115.484)"/>
                        <path id="Trazado_879302" data-name="Trazado 879302" d="M157.661,349.088a1.511,1.511,0,0,0-.213,0,1.8,1.8,0,0,0-.739.243,2.22,2.22,0,0,0-.272.18,4.6,4.6,0,0,0-1.116,1.335c-.111.184-.221.383-.33.606a4.26,4.26,0,0,0,2.915-.606,1.25,1.25,0,0,0,.525-1.4,1.009,1.009,0,0,0-.771-.358" transform="translate(-4.924 -115.047)"/>
                        <path id="Trazado_879303" data-name="Trazado 879303" d="M109.661,349.088a1.529,1.529,0,0,0-.214,0,1.8,1.8,0,0,0-.739.243,2.3,2.3,0,0,0-.271.18,4.613,4.613,0,0,0-1.117,1.335c-.11.184-.22.383-.33.606a4.262,4.262,0,0,0,2.916-.606,1.25,1.25,0,0,0,.525-1.4,1.009,1.009,0,0,0-.771-.358" transform="translate(-5.797 -115.047)"/>
                        <path id="Trazado_879304" data-name="Trazado 879304" d="M130.99,339.454c3.521.2,3.653-1.643,3.442-2.008s-1.884-1.155-3.442,2.008" transform="translate(-5.361 -115.266)"/>
                        <path id="Trazado_879305" data-name="Trazado 879305" d="M178.99,339.454c3.52.2,3.651-1.643,3.441-2.008s-1.884-1.155-3.441,2.008" transform="translate(-4.487 -115.266)"/>
                        <path id="Trazado_879306" data-name="Trazado 879306" d="M106.991,303.454c3.52.2,3.652-1.643,3.441-2.008s-1.883-1.155-3.441,2.008" transform="translate(-5.798 -115.921)"/>
                        <path id="Trazado_879307" data-name="Trazado 879307" d="M154.99,303.454c3.52.2,3.653-1.643,3.441-2.008s-1.883-1.155-3.441,2.008" transform="translate(-4.924 -115.921)"/>
                        <path id="Trazado_879308" data-name="Trazado 879308" d="M130.99,315.454c3.521.2,3.653-1.643,3.442-2.008s-1.884-1.155-3.442,2.008" transform="translate(-5.361 -115.703)"/>
                        <path id="Trazado_879309" data-name="Trazado 879309" d="M178.99,315.454c3.52.2,3.651-1.643,3.441-2.008s-1.884-1.155-3.441,2.008" transform="translate(-4.487 -115.703)"/>
                        <path id="Trazado_879310" data-name="Trazado 879310" d="M130.99,291.454c3.521.2,3.653-1.643,3.442-2.008s-1.884-1.155-3.442,2.008" transform="translate(-5.361 -116.139)"/>
                        <path id="Trazado_879311" data-name="Trazado 879311" d="M178.99,291.454c3.52.2,3.651-1.643,3.441-2.008s-1.884-1.155-3.441,2.008" transform="translate(-4.487 -116.139)"/>
                        <path id="Trazado_879312" data-name="Trazado 879312" d="M149.538,325.447c-.212.363-.078,2.208,3.443,2.008-1.559-3.164-3.231-2.371-3.443-2.008" transform="translate(-5.024 -115.484)"/>
                        <path id="Trazado_879313" data-name="Trazado 879313" d="M151.534,349.514a2.39,2.39,0,0,0-.272-.18,1.8,1.8,0,0,0-.739-.243,1.529,1.529,0,0,0-.214,0,1.009,1.009,0,0,0-.771.358,1.25,1.25,0,0,0,.526,1.4,4.26,4.26,0,0,0,2.916.606c-.11-.223-.22-.422-.33-.606a4.612,4.612,0,0,0-1.117-1.335" transform="translate(-5.024 -115.047)"/>
                        <path id="Trazado_879314" data-name="Trazado 879314" d="M125.538,337.446c-.212.364-.078,2.209,3.443,2.008-1.559-3.164-3.231-2.371-3.443-2.008" transform="translate(-5.461 -115.266)"/>
                        <path id="Trazado_879315" data-name="Trazado 879315" d="M197.538,325.447c-.213.363-.079,2.208,3.44,2.008-1.557-3.164-3.23-2.371-3.44-2.008" transform="translate(-4.151 -115.484)"/>
                        <path id="Trazado_879316" data-name="Trazado 879316" d="M200.649,350.849a4.6,4.6,0,0,0-1.116-1.335,2.456,2.456,0,0,0-.272-.18,1.779,1.779,0,0,0-.739-.242,1.373,1.373,0,0,0-.213,0,1.009,1.009,0,0,0-.771.358,1.251,1.251,0,0,0,.525,1.4,4.257,4.257,0,0,0,2.915.606c-.11-.223-.22-.42-.33-.606" transform="translate(-4.151 -115.047)"/>
                        <path id="Trazado_879317" data-name="Trazado 879317" d="M173.538,337.446c-.213.364-.079,2.209,3.443,2.008-1.559-3.164-3.232-2.371-3.443-2.008" transform="translate(-4.587 -115.266)"/>
                        <path id="Trazado_879318" data-name="Trazado 879318" d="M149.538,301.447c-.212.363-.078,2.208,3.443,2.008-1.559-3.164-3.231-2.371-3.443-2.008" transform="translate(-5.024 -115.921)"/>
                        <path id="Trazado_879319" data-name="Trazado 879319" d="M125.538,313.446c-.212.363-.078,2.208,3.443,2.008-1.559-3.164-3.231-2.371-3.443-2.008" transform="translate(-5.461 -115.703)"/>
                        <path id="Trazado_879320" data-name="Trazado 879320" d="M197.538,301.447c-.213.363-.079,2.208,3.44,2.008-1.557-3.164-3.23-2.371-3.44-2.008" transform="translate(-4.151 -115.921)"/>
                        <path id="Trazado_879321" data-name="Trazado 879321" d="M173.538,313.446c-.213.363-.079,2.208,3.443,2.008-1.559-3.164-3.232-2.371-3.443-2.008" transform="translate(-4.587 -115.703)"/>
                        <path id="Trazado_879322" data-name="Trazado 879322" d="M125.538,289.447c-.212.363-.078,2.208,3.443,2.008-1.559-3.164-3.231-2.371-3.443-2.008" transform="translate(-5.461 -116.139)"/>
                        <path id="Trazado_879323" data-name="Trazado 879323" d="M173.538,289.447c-.213.363-.079,2.208,3.443,2.008-1.559-3.164-3.232-2.371-3.443-2.008" transform="translate(-4.587 -116.139)"/>
                        <path id="Trazado_879324" data-name="Trazado 879324" d="M152.651,278.849a5.936,5.936,0,0,0-.549-.785,3.621,3.621,0,0,0-.568-.55,1.831,1.831,0,0,0-1.224-.426.745.745,0,0,0-.7,1.206,1.492,1.492,0,0,0,.254.368,1.742,1.742,0,0,0,.2.186,4.261,4.261,0,0,0,2.916.606q-.147-.3-.293-.548c-.012-.021-.024-.038-.037-.058" transform="translate(-5.024 -116.358)"/>
                        <path id="Trazado_879325" data-name="Trazado 879325" d="M200.649,278.849a5.935,5.935,0,0,0-.548-.785,3.62,3.62,0,0,0-.568-.55,1.831,1.831,0,0,0-1.224-.426.745.745,0,0,0-.7,1.206,1.491,1.491,0,0,0,.254.368,1.741,1.741,0,0,0,.2.186,4.258,4.258,0,0,0,2.915.606q-.147-.3-.293-.548c-.012-.021-.024-.038-.037-.058" transform="translate(-4.151 -116.358)"/>
                        <path id="Trazado_879326" data-name="Trazado 879326" d="M129.97,358.9c-.42,0-1.947,1.044,0,3.984,1.948-2.941.421-3.984,0-3.984" transform="translate(-5.397 -114.869)"/>
                        <path id="Trazado_879327" data-name="Trazado 879327" d="M177.97,358.9c-.419,0-1.947,1.044,0,3.984,1.947-2.941.419-3.984,0-3.984" transform="translate(-4.523 -114.869)"/>
                        <path id="Trazado_879328" data-name="Trazado 879328" d="M130.99,363.454c3.521.2,3.653-1.643,3.442-2.008s-1.884-1.155-3.442,2.008" transform="translate(-5.361 -114.829)"/>
                        <path id="Trazado_879329" data-name="Trazado 879329" d="M178.99,363.454c3.52.2,3.651-1.643,3.441-2.008s-1.884-1.155-3.441,2.008" transform="translate(-4.487 -114.829)"/>
                        <path id="Trazado_879330" data-name="Trazado 879330" d="M125.538,361.447c-.212.364-.078,2.209,3.443,2.008-1.559-3.163-3.231-2.371-3.443-2.008" transform="translate(-5.461 -114.829)"/>
                        <path id="Trazado_879331" data-name="Trazado 879331" d="M173.538,361.447c-.213.364-.079,2.209,3.443,2.008-1.559-3.163-3.232-2.371-3.443-2.008" transform="translate(-4.587 -114.829)"/>
                        <path id="Trazado_879332" data-name="Trazado 879332" d="M57.97,202.9c-.419,0-1.947,1.044,0,3.984,1.948-2.941.421-3.984,0-3.984" transform="translate(-6.707 -117.708)"/>
                        <path id="Trazado_879333" data-name="Trazado 879333" d="M81.97,190.9c-.42,0-1.947,1.044,0,3.984,1.947-2.941.42-3.984,0-3.984" transform="translate(-6.27 -117.926)"/>
                        <path id="Trazado_879334" data-name="Trazado 879334" d="M82.87,167.829c-.632.149-1.251.308-1.864.471a4.7,4.7,0,0,0,.964,2.571c.948-1.433,1.07-2.411.9-3.042" transform="translate(-6.27 -118.346)"/>
                        <path id="Trazado_879335" data-name="Trazado 879335" d="M58.991,183.454c3.519.2,3.652-1.643,3.439-2.008s-1.882-1.156-3.439,2.008" transform="translate(-6.671 -118.105)"/>
                        <path id="Trazado_879336" data-name="Trazado 879336" d="M82.991,195.454c3.519.2,3.65-1.643,3.439-2.008s-1.883-1.156-3.439,2.008" transform="translate(-6.234 -117.887)"/>
                        <path id="Trazado_879337" data-name="Trazado 879337" d="M82.991,171.454c3.519.2,3.65-1.643,3.439-2.008s-1.883-1.156-3.439,2.008" transform="translate(-6.234 -118.324)"/>
                        <path id="Trazado_879338" data-name="Trazado 879338" d="M53.538,205.446a1.25,1.25,0,0,0,.526,1.4,4.259,4.259,0,0,0,2.916.606c-.11-.223-.22-.42-.33-.606-1.457-2.444-2.916-1.739-3.113-1.4" transform="translate(-6.772 -117.668)"/>
                        <path id="Trazado_879339" data-name="Trazado 879339" d="M101.538,181.446c-.213.364-.079,2.208,3.44,2.008-1.557-3.164-3.23-2.371-3.44-2.008" transform="translate(-5.898 -118.105)"/>
                        <path id="Trazado_879340" data-name="Trazado 879340" d="M104.649,206.849c-1.456-2.444-2.915-1.739-3.111-1.4a1.251,1.251,0,0,0,.525,1.4h0a4.261,4.261,0,0,0,2.916.606C104.869,207.231,104.759,207.033,104.649,206.849Z" transform="translate(-5.898 -117.668)"/>
                        <path id="Trazado_879341" data-name="Trazado 879341" d="M77.538,193.447c-.213.363-.079,2.208,3.443,2.008-1.559-3.164-3.232-2.371-3.443-2.008" transform="translate(-6.335 -117.887)"/>
                        <path id="Trazado_879342" data-name="Trazado 879342" d="M78.278,169.092c-.177.057-.358.11-.534.168a.632.632,0,0,0-.207.186c-.213.364-.079,2.209,3.443,2.008-.99-2.009-2.024-2.42-2.7-2.362" transform="translate(-6.335 -118.324)"/>
                        <path id="Trazado_879343" data-name="Trazado 879343" d="M9.97,250.9c-.419,0-1.947,1.044,0,3.984,1.948-2.941.421-3.984,0-3.984" transform="translate(-7.581 -116.834)"/>
                        <path id="Trazado_879344" data-name="Trazado 879344" d="M33.97,262.9c-.42,0-1.947,1.044,0,3.984,1.948-2.941.421-3.984,0-3.984" transform="translate(-7.144 -116.616)"/>
                        <path id="Trazado_879345" data-name="Trazado 879345" d="M57.97,226.9c-.419,0-1.947,1.044,0,3.984,1.948-2.941.421-3.984,0-3.984" transform="translate(-6.707 -117.271)"/>
                        <path id="Trazado_879346" data-name="Trazado 879346" d="M33.97,238.9c-.42,0-1.947,1.044,0,3.984,1.948-2.941.421-3.984,0-3.984" transform="translate(-7.144 -117.053)"/>
                        <path id="Trazado_879347" data-name="Trazado 879347" d="M81.97,238.9c-.42,0-1.947,1.044,0,3.984,1.947-2.941.42-3.984,0-3.984" transform="translate(-6.27 -117.053)"/>
                        <path id="Trazado_879348" data-name="Trazado 879348" d="M33.97,214.9c-.42,0-1.947,1.044,0,3.984,1.948-2.941.421-3.984,0-3.984" transform="translate(-7.144 -117.49)"/>
                        <path id="Trazado_879349" data-name="Trazado 879349" d="M81.97,214.9c-.42,0-1.947,1.044,0,3.984,1.947-2.941.42-3.984,0-3.984" transform="translate(-6.27 -117.49)"/>
                        <path id="Trazado_879350" data-name="Trazado 879350" d="M10.991,255.454c3.52.2,3.652-1.643,3.442-2.008s-1.884-1.155-3.442,2.008" transform="translate(-7.545 -116.795)"/>
                        <path id="Trazado_879351" data-name="Trazado 879351" d="M35.587,266.418q1.353-.5,2.663-1.136c-.431-.29-1.521-.482-2.663,1.136" transform="translate(-7.097 -116.576)"/>
                        <path id="Trazado_879352" data-name="Trazado 879352" d="M14.41,229.445a.854.854,0,0,0-.477-.3c-.634.8-1.232,1.575-1.754,2.291,2.337-.237,2.415-1.671,2.231-1.988" transform="translate(-7.523 -117.231)"/>
                        <path id="Trazado_879353" data-name="Trazado 879353" d="M58.991,231.454c3.519.2,3.652-1.643,3.439-2.008s-1.882-1.155-3.439,2.008" transform="translate(-6.671 -117.231)"/>
                        <path id="Trazado_879354" data-name="Trazado 879354" d="M34.991,243.454c3.52.2,3.652-1.643,3.441-2.008s-1.883-1.155-3.441,2.008" transform="translate(-7.108 -117.013)"/>
                        <path id="Trazado_879355" data-name="Trazado 879355" d="M82.991,243.454c3.519.2,3.65-1.643,3.439-2.008s-1.883-1.155-3.439,2.008" transform="translate(-6.234 -117.013)"/>
                        <path id="Trazado_879356" data-name="Trazado 879356" d="M34.991,219.454c3.52.2,3.652-1.643,3.441-2.008s-1.883-1.155-3.441,2.008" transform="translate(-7.108 -117.45)"/>
                        <path id="Trazado_879357" data-name="Trazado 879357" d="M82.991,219.454c3.519.2,3.65-1.643,3.439-2.008s-1.883-1.155-3.439,2.008" transform="translate(-6.234 -117.45)"/>
                        <path id="Trazado_879358" data-name="Trazado 879358" d="M29.538,265.446c-.192.331-.091,1.883,2.578,2.01.258-.055.515-.112.772-.175-1.532-2.95-3.142-2.191-3.35-1.835" transform="translate(-7.208 -116.576)"/>
                        <path id="Trazado_879359" data-name="Trazado 879359" d="M101.538,253.446c-.213.364-.079,2.208,3.44,2.008-1.557-3.164-3.23-2.371-3.44-2.008" transform="translate(-5.898 -116.795)"/>
                        <path id="Trazado_879360" data-name="Trazado 879360" d="M53.538,229.446c-.212.363-.078,2.209,3.443,2.008-1.559-3.164-3.231-2.371-3.443-2.008" transform="translate(-6.772 -117.232)"/>
                        <path id="Trazado_879361" data-name="Trazado 879361" d="M29.538,241.446c-.212.364-.078,2.208,3.443,2.008-1.559-3.164-3.231-2.371-3.443-2.008" transform="translate(-7.208 -117.013)"/>
                        <path id="Trazado_879362" data-name="Trazado 879362" d="M101.538,229.446c-.213.363-.079,2.209,3.44,2.008-1.557-3.164-3.23-2.371-3.44-2.008" transform="translate(-5.898 -117.232)"/>
                        <path id="Trazado_879363" data-name="Trazado 879363" d="M29.538,217.446c-.212.363-.078,2.209,3.443,2.008-1.559-3.164-3.231-2.371-3.443-2.008" transform="translate(-7.208 -117.45)"/>
                        <path id="Trazado_879364" data-name="Trazado 879364" d="M77.538,217.446c-.213.363-.079,2.209,3.443,2.008-1.559-3.164-3.232-2.371-3.443-2.008" transform="translate(-6.335 -117.45)"/>
                        <path id="Trazado_879365" data-name="Trazado 879365" d="M61.906,206.849h0a1.25,1.25,0,0,0,.525-1.4c-.2-.337-1.655-1.042-3.111,1.4-.111.184-.221.383-.33.606a4.259,4.259,0,0,0,2.915-.606" transform="translate(-6.671 -117.668)"/>
                        <path id="Trazado_879366" data-name="Trazado 879366" d="M81.97,334.9c-.42,0-1.947,1.044,0,3.984,1.947-2.941.42-3.984,0-3.984" transform="translate(-6.27 -115.305)"/>
                        <path id="Trazado_879367" data-name="Trazado 879367" d="M82.739,313.3c-.288.468-.572.947-.854,1.432.024.039.044.074.069.113a6.585,6.585,0,0,0,.785-1.545" transform="translate(-6.254 -115.699)"/>
                        <path id="Trazado_879368" data-name="Trazado 879368" d="M82.991,339.454c3.519.2,3.65-1.643,3.439-2.008s-1.883-1.155-3.439,2.008" transform="translate(-6.234 -115.266)"/>
                        <path id="Trazado_879369" data-name="Trazado 879369" d="M82.991,315.454c3.519.2,3.65-1.643,3.439-2.008s-1.883-1.155-3.439,2.008" transform="translate(-6.234 -115.703)"/>
                        <path id="Trazado_879370" data-name="Trazado 879370" d="M101.538,325.447c-.213.363-.079,2.208,3.44,2.008-1.557-3.164-3.23-2.371-3.44-2.008" transform="translate(-5.898 -115.484)"/>
                        <path id="Trazado_879371" data-name="Trazado 879371" d="M104.649,350.849a4.594,4.594,0,0,0-1.116-1.335,2.457,2.457,0,0,0-.272-.18,1.779,1.779,0,0,0-.739-.242,1.373,1.373,0,0,0-.213,0,1.008,1.008,0,0,0-.771.358,1.251,1.251,0,0,0,.525,1.4h0a4.26,4.26,0,0,0,2.916.606C104.869,351.231,104.759,351.034,104.649,350.849Z" transform="translate(-5.898 -115.047)"/>
                        <path id="Trazado_879372" data-name="Trazado 879372" d="M77.538,337.446c-.213.364-.079,2.209,3.443,2.008-1.559-3.164-3.232-2.371-3.443-2.008" transform="translate(-6.335 -115.266)"/>
                        <path id="Trazado_879373" data-name="Trazado 879373" d="M101.538,301.447c-.213.363-.079,2.208,3.44,2.008-1.557-3.164-3.23-2.371-3.44-2.008" transform="translate(-5.898 -115.921)"/>
                        <path id="Trazado_879374" data-name="Trazado 879374" d="M104.649,278.849a5.939,5.939,0,0,0-.548-.785,3.622,3.622,0,0,0-.568-.55,1.831,1.831,0,0,0-1.224-.426.745.745,0,0,0-.7,1.206,1.491,1.491,0,0,0,.254.368,1.663,1.663,0,0,0,.2.186h0a4.261,4.261,0,0,0,2.916.606q-.147-.3-.293-.548c-.012-.021-.024-.038-.037-.058" transform="translate(-5.898 -116.358)"/>
                        <path id="Trazado_879375" data-name="Trazado 879375" d="M81.97,358.9c-.42,0-1.947,1.044,0,3.984,1.947-2.941.42-3.984,0-3.984" transform="translate(-6.27 -114.869)"/>
                        <path id="Trazado_879376" data-name="Trazado 879376" d="M82.991,363.454c3.519.2,3.65-1.643,3.439-2.008s-1.883-1.155-3.439,2.008" transform="translate(-6.234 -114.829)"/>
                        <path id="Trazado_879377" data-name="Trazado 879377" d="M77.538,361.447c-.213.364-.079,2.209,3.443,2.008-1.559-3.163-3.232-2.371-3.443-2.008" transform="translate(-6.335 -114.829)"/>
                        <path id="Trazado_879378" data-name="Trazado 879378" d="M7.606,253.6c.2.632.434,1.253.694,1.858.2,0,.412,0,.639-.014A5.55,5.55,0,0,0,7.606,253.6" transform="translate(-7.606 -116.785)"/>
                      </g>
                    </g>
                  </g>
                </g>
              </g>
              <g id="Grupo_1101654" data-name="Grupo 1101654">
                <g id="Grupo_1101653" data-name="Grupo 1101653" clip-path="url(#clip-path-3)">
                  <path id="Trazado_879380" data-name="Trazado 879380" d="M245.522,368.286s1.83-25-9.146-50-13.458-26.817-13.458-34.135,7.36-15.867,8.579-32.331.61-24.391.61-24.391,26.221,41.464,44.514,43.9,29.269-14.635,22.562-37.806S263.2,191.45,251.62,176.206s-37.807-15.244-51.222-15.244-20.123-4.878-22.562-14.025S175.4,119.5,175.4,119.5s-15.854,9.756-42.685-1.22c0,0,2.44,33.539-.61,38.417s-7.317,9.756-25.611,9.756-33.538,3.658-42.074,12.2-43.9,42.685-53.051,56.1-4.268,28.05,6.708,33.538,21.951.609,29.879-6.708S80.88,231.086,80.88,231.086s0,14.025,6.708,34.147,12.2,17.684,7.318,32.319-14.635,18.9-17.684,37.806a179.991,179.991,0,0,0-2.439,32.929" transform="translate(0.12 2.153)" fill="none" stroke="#263238" stroke-linecap="round" stroke-linejoin="round" stroke-width="1"/>
                  <path id="Trazado_879381" data-name="Trazado 879381" d="M79.552,229.416a76.621,76.621,0,0,1,4.019-19.387" transform="translate(1.448 3.823)" fill="#fff"/>
                  <path id="Trazado_879382" data-name="Trazado 879382" d="M79.552,229.416a76.621,76.621,0,0,1,4.019-19.387" transform="translate(1.448 3.823)" fill="none" stroke="#263238" stroke-linecap="round" stroke-linejoin="round" stroke-width="1"/>
                  <path id="Trazado_879383" data-name="Trazado 879383" d="M228.174,225.738a75.323,75.323,0,0,0-5.566-14.642" transform="translate(4.052 3.842)" fill="none" stroke="#263238" stroke-linecap="round" stroke-linejoin="round" stroke-width="1"/>
                  <line id="Línea_718" data-name="Línea 718" y1="12.317" x2="38.398" transform="translate(142.617 284.853)" fill="none" stroke="#263238" stroke-linecap="round" stroke-linejoin="round" stroke-width="1"/>
                  <path id="Trazado_879384" data-name="Trazado 879384" d="M157.145,282.032a124.342,124.342,0,0,1,27.894-7.607" transform="translate(2.86 4.995)" fill="none" stroke="#263238" stroke-linecap="round" stroke-linejoin="round" stroke-width="1"/>
                  <path id="Trazado_879385" data-name="Trazado 879385" d="M147.156,207.3c30.421,5.871,42.157-23.291,46.248-46.6-10.135-1.112-15.472-5.828-17.588-13.764-2.439-9.147-2.439-27.441-2.439-27.441s-15.854,9.756-42.685-1.22c0,0,2.44,33.539-.61,38.417-2.124,3.4-4.847,6.8-12.487,8.545-.28,10.418,1.829,36.715,29.561,42.067" transform="translate(2.14 2.153)" fill="#f0956d"/>
                </g>
              </g>
              <g id="Grupo_1101659" data-name="Grupo 1101659" transform="translate(119.712 120.429)">
                <g id="Grupo_1101658" data-name="Grupo 1101658" clip-path="url(#clip-path-8)">
                  <g id="Grupo_1101657" data-name="Grupo 1101657" transform="translate(13.119 0)" opacity="0.2">
                    <g id="Grupo_1101656" data-name="Grupo 1101656">
                      <g id="Grupo_1101655" data-name="Grupo 1101655" clip-path="url(#clip-path-9)">
                        <path id="Trazado_879386" data-name="Trazado 879386" d="M174.917,143.921c-1.775-9.632-1.776-24.426-1.776-24.426s-15.854,9.756-42.684-1.22c0,0,1.018,14.021.914,25.251,23.11,8.012,36.446,4.611,43.545.394" transform="translate(-130.457 -118.276)"/>
                      </g>
                    </g>
                  </g>
                </g>
              </g>
              <g id="Grupo_1101661" data-name="Grupo 1101661">
                <g id="Grupo_1101660" data-name="Grupo 1101660" clip-path="url(#clip-path-3)">
                  <path id="Trazado_879388" data-name="Trazado 879388" d="M147.156,207.3c30.421,5.871,42.157-23.291,46.248-46.6-10.135-1.112-15.472-5.828-17.588-13.764-2.439-9.147-2.439-27.441-2.439-27.441s-15.854,9.756-42.685-1.22c0,0,2.44,33.539-.61,38.417-2.124,3.4-4.847,6.8-12.487,8.545C117.314,175.656,119.423,201.953,147.156,207.3Z" transform="translate(2.14 2.153)" fill="none" stroke="#263238" stroke-linecap="round" stroke-linejoin="round" stroke-width="1"/>
                  <path id="Trazado_879389" data-name="Trazado 879389" d="M199.491,100.7a7.555,7.555,0,1,1-7.555-7.555,7.555,7.555,0,0,1,7.555,7.555" transform="translate(3.356 1.695)" fill="#f0c518"/>
                  <circle id="Elipse_11623" data-name="Elipse 11623" cx="7.555" cy="7.555" r="7.555" transform="matrix(0.526, -0.851, 0.851, 0.526, 184.894, 104.853)" fill="none" stroke="#263238" stroke-linecap="round" stroke-linejoin="round" stroke-width="1"/>
                  <path id="Trazado_879390" data-name="Trazado 879390" d="M120.23,100.7a7.555,7.555,0,1,1-7.555-7.555,7.555,7.555,0,0,1,7.555,7.555" transform="translate(1.913 1.695)" fill="#f0c518"/>
                  <circle id="Elipse_11624" data-name="Elipse 11624" cx="7.555" cy="7.555" r="7.555" transform="matrix(0.447, -0.894, 0.894, 0.447, 104.452, 105.776)" fill="none" stroke="#263238" stroke-linecap="round" stroke-linejoin="round" stroke-width="1"/>
                  <path id="Trazado_879391" data-name="Trazado 879391" d="M191.163,75.422s3.778-11.677,8.242-7.555-1.374,19.918-4.465,23.7-6.182,3.778-5.838-1.374,2.061-14.767,2.061-14.767" transform="translate(3.441 1.219)" fill="#f0956d"/>
                  <path id="Trazado_879392" data-name="Trazado 879392" d="M191.163,75.422s3.778-11.677,8.242-7.555-1.374,19.918-4.465,23.7-6.182,3.778-5.838-1.374S191.163,75.422,191.163,75.422Z" transform="translate(3.441 1.219)" fill="none" stroke="#263238" stroke-linecap="round" stroke-linejoin="round" stroke-width="1"/>
                  <path id="Trazado_879393" data-name="Trazado 879393" d="M114.419,87.771s1.029,27.279,21.1,40.661,35,5.661,43.234-5.662,13.382-22.646,13.382-39.116,2.059-23.676-3.6-33.969-25.22-15.441-25.22-15.441a308.327,308.327,0,0,1-26.249,28.822c-15.441,14.927-22.647,24.706-22.647,24.706" transform="translate(2.083 0.623)" fill="#f0956d"/>
                </g>
              </g>
              <g id="Grupo_1101666" data-name="Grupo 1101666" transform="translate(116.503 34.866)">
                <g id="Grupo_1101665" data-name="Grupo 1101665" clip-path="url(#clip-path-11)">
                  <g id="Grupo_1101664" data-name="Grupo 1101664" transform="translate(-0.001 0)" opacity="0.2">
                    <g id="Grupo_1101663" data-name="Grupo 1101663">
                      <g id="Grupo_1101662" data-name="Grupo 1101662" clip-path="url(#clip-path-12)">
                        <path id="Trazado_879394" data-name="Trazado 879394" d="M163.315,34.243a308.142,308.142,0,0,1-26.249,28.822c-15.441,14.927-22.647,24.706-22.647,24.706a62.815,62.815,0,0,0,3.127,15.613c27.128-20.757,41.947-58.048,45.887-69.109l-.118-.032" transform="translate(-114.419 -34.243)"/>
                      </g>
                    </g>
                  </g>
                </g>
              </g>
              <g id="Grupo_1101668" data-name="Grupo 1101668">
                <g id="Grupo_1101667" data-name="Grupo 1101667" clip-path="url(#clip-path-3)">
                  <path id="Trazado_879396" data-name="Trazado 879396" d="M114.419,87.771s1.029,27.279,21.1,40.661,35,5.661,43.234-5.662,13.382-22.646,13.382-39.116,2.059-23.676-3.6-33.969-25.22-15.441-25.22-15.441a308.327,308.327,0,0,1-26.249,28.822C121.625,77.992,114.419,87.771,114.419,87.771Z" transform="translate(2.083 0.623)" fill="none" stroke="#263238" stroke-linecap="round" stroke-linejoin="round" stroke-width="1"/>
                  <line id="Línea_719" data-name="Línea 719" x2="11.558" y2="1.083" transform="translate(135.492 85.185)" fill="none" stroke="#263238" stroke-linecap="round" stroke-linejoin="round" stroke-width="1"/>
                  <path id="Trazado_879397" data-name="Trazado 879397" d="M167.477,83.32s7.585-1.445,11.2,0" transform="translate(3.048 1.505)" fill="none" stroke="#263238" stroke-linecap="round" stroke-linejoin="round" stroke-width="1"/>
                  <path id="Trazado_879398" data-name="Trazado 879398" d="M142.993,78.564c0,2.75-1.23,4.98-2.747,4.98s-2.747-2.23-2.747-4.98,1.23-4.98,2.747-4.98,2.747,2.23,2.747,4.98" transform="translate(2.503 1.339)" fill="#263238"/>
                  <path id="Trazado_879399" data-name="Trazado 879399" d="M148.966,95.526a10.033,10.033,0,0,0,12.02-1.03" transform="translate(2.711 1.72)" fill="none" stroke="#263238" stroke-linecap="round" stroke-linejoin="round" stroke-width="1"/>
                  <path id="Trazado_879400" data-name="Trazado 879400" d="M152,107.154s10.646,4.465,16.828-9.959" transform="translate(2.767 1.769)" fill="none" stroke="#263238" stroke-linecap="round" stroke-linejoin="round" stroke-width="1"/>
                  <path id="Trazado_879401" data-name="Trazado 879401" d="M165.493,78.691s6.525-4.465,13.05-1.717" transform="translate(3.012 1.385)" fill="none" stroke="#263238" stroke-linecap="round" stroke-linejoin="round" stroke-width="2"/>
                  <path id="Trazado_879402" data-name="Trazado 879402" d="M163.469,67.579s7.212-7.212,17.171-1.374" transform="translate(2.975 1.164)" fill="none" stroke="#263238" stroke-linecap="round" stroke-linejoin="round" stroke-width="2"/>
                  <path id="Trazado_879403" data-name="Trazado 879403" d="M148.556,63.18s-6.183-6.181-14.768-.343" transform="translate(2.435 1.098)" fill="none" stroke="#263238" stroke-linecap="round" stroke-linejoin="round" stroke-width="2"/>
                  <path id="Trazado_879404" data-name="Trazado 879404" d="M11.476,232.662S.5,244.858.5,257.663s7.318,24.391,27.441,42.685,39.026,31.708,46.952,35.977,15.854-1.22,15.854-1.22,13.11,13.11,14.635,10.061-4.573-7.622-5.793-9.451a25.657,25.657,0,0,0-3.658-3.964s6.4.914,8.842,3.048,6.4,5.794,8.232,5.488,1.829-1.829-.915-5.488a32.489,32.489,0,0,0-7.927-7.317c-1.83-1.22-7.928-4.574-7.928-4.574s8.842-.61,11.892,1.22,11.281,7.317,11.891,4.878.609-3.964-2.44-6.708-9.146-6.1-12.8-6.707a38.428,38.428,0,0,1-7.318-2.134s7.012-2.44,9.452-2.44,12.2,4.878,14.939,4.268,1.22-3.048-.914-4.573-11.586-5.184-15.55-5.488-26.22,7.317-28.964,7.317-9.756-9.756-17.074-22.867-10.062-33.538-25.611-40.55" transform="translate(0.009 4.235)" fill="#f0c518"/>
                </g>
              </g>
              <g id="Grupo_1101673" data-name="Grupo 1101673" transform="translate(0.509 236.897)">
                <g id="Grupo_1101672" data-name="Grupo 1101672" clip-path="url(#clip-path-14)">
                  <g id="Grupo_1101671" data-name="Grupo 1101671" transform="translate(5.065 18.574)" opacity="0.2">
                    <g id="Grupo_1101670" data-name="Grupo 1101670">
                      <g id="Grupo_1101669" data-name="Grupo 1101669" clip-path="url(#clip-path-15)">
                        <path id="Trazado_879405" data-name="Trazado 879405" d="M9.953,254.888c1.948-2.941.421-3.984,0-3.984.419,0,1.947,1.044,0,3.984" transform="translate(-5.393 -250.904)"/>
                        <path id="Trazado_879406" data-name="Trazado 879406" d="M9.953,274.9c.419,0,1.947,1.044,0,3.984,1.948-2.941.421-3.984,0-3.984" transform="translate(-5.393 -250.467)"/>
                        <path id="Trazado_879407" data-name="Trazado 879407" d="M33.97,262.9c-.42,0-1.947,1.044,0,3.984,1.948-2.941.421-3.984,0-3.984" transform="translate(-4.974 -250.686)"/>
                        <path id="Trazado_879408" data-name="Trazado 879408" d="M14.432,253.446c-.212-.364-1.884-1.156-3.442,2.008,3.521.2,3.653-1.644,3.442-2.008" transform="translate(-5.375 -250.864)"/>
                        <path id="Trazado_879409" data-name="Trazado 879409" d="M14.1,278.662a1.492,1.492,0,0,0,.254-.368,1.011,1.011,0,0,0,.067-.848,1.011,1.011,0,0,0-.771-.358,1.834,1.834,0,0,0-1.225.426,3.575,3.575,0,0,0-.567.55,5.939,5.939,0,0,0-.549.785H13.9a1.741,1.741,0,0,0,.2-.186" transform="translate(-5.369 -250.428)"/>
                        <path id="Trazado_879410" data-name="Trazado 879410" d="M38.432,265.447c-.212-.364-1.884-1.156-3.442,2.008,3.521.2,3.653-1.644,3.442-2.008" transform="translate(-4.938 -250.646)"/>
                        <path id="Trazado_879411" data-name="Trazado 879411" d="M32.981,267.454c-1.559-3.163-3.231-2.37-3.443-2.008s-.078,2.208,3.443,2.008" transform="translate(-5.038 -250.646)"/>
                        <path id="Trazado_879412" data-name="Trazado 879412" d="M9.953,250.9v3.984c1.947-2.941.419-3.984,0-3.984" transform="translate(-5.393 -250.904)"/>
                        <path id="Trazado_879413" data-name="Trazado 879413" d="M9.953,274.9v3.984c1.947-2.941.419-3.984,0-3.984" transform="translate(-5.393 -250.467)"/>
                        <path id="Trazado_879414" data-name="Trazado 879414" d="M57.967,322.9a1.1,1.1,0,0,0-.807.683q.874.645,1.722,1.259c.257-1.4-.612-1.943-.914-1.943" transform="translate(-4.534 -249.593)"/>
                        <path id="Trazado_879415" data-name="Trazado 879415" d="M81.97,334.9a1.244,1.244,0,0,0-.942,1.131,16.284,16.284,0,0,0,1.83-.241,1.174,1.174,0,0,0-.888-.89" transform="translate(-4.1 -249.375)"/>
                        <path id="Trazado_879416" data-name="Trazado 879416" d="M57.97,298.9c-.419,0-1.947,1.044,0,3.984,1.948-2.94.421-3.984,0-3.984" transform="translate(-4.537 -250.03)"/>
                        <path id="Trazado_879417" data-name="Trazado 879417" d="M81.97,314.888c1.947-2.941.42-3.984,0-3.984s-1.947,1.044,0,3.984" transform="translate(-4.1 -249.812)"/>
                        <path id="Trazado_879418" data-name="Trazado 879418" d="M33.97,290.888c1.948-2.94.421-3.984,0-3.984s-1.947,1.044,0,3.984" transform="translate(-4.974 -250.249)"/>
                        <path id="Trazado_879419" data-name="Trazado 879419" d="M62.41,325.447c-.158-.272-1.135-.784-2.272.306q.837.6,1.643,1.168a1.286,1.286,0,0,0,.628-1.473" transform="translate(-4.48 -249.554)"/>
                        <path id="Trazado_879420" data-name="Trazado 879420" d="M58.991,303.454c3.519.2,3.652-1.643,3.439-2.008s-1.882-1.155-3.439,2.008" transform="translate(-4.501 -249.991)"/>
                        <path id="Trazado_879421" data-name="Trazado 879421" d="M82.991,315.454c3.519.2,3.65-1.643,3.439-2.008s-1.883-1.155-3.439,2.008" transform="translate(-4.064 -249.772)"/>
                        <path id="Trazado_879422" data-name="Trazado 879422" d="M34.991,291.454c3.52.2,3.652-1.643,3.441-2.008s-1.883-1.155-3.441,2.008" transform="translate(-4.938 -250.209)"/>
                        <path id="Trazado_879423" data-name="Trazado 879423" d="M104.622,327.458c-.882-.688-1.68-1.25-2.3-1.662-.19-.127-.435-.281-.706-.448a.451.451,0,0,0-.08.094c-.206.351-.079,2.072,3.083,2.016" transform="translate(-3.728 -249.549)"/>
                        <path id="Trazado_879424" data-name="Trazado 879424" d="M56.981,303.454c-1.559-3.163-3.231-2.37-3.443-2.008s-.078,2.208,3.443,2.008" transform="translate(-4.601 -249.991)"/>
                        <path id="Trazado_879425" data-name="Trazado 879425" d="M77.538,313.446c-.213.363-.079,2.208,3.443,2.008-1.559-3.164-3.232-2.371-3.443-2.008" transform="translate(-4.164 -249.772)"/>
                        <path id="Trazado_879426" data-name="Trazado 879426" d="M29.538,289.447c-.212.363-.078,2.208,3.443,2.008-1.559-3.164-3.231-2.371-3.443-2.008" transform="translate(-5.038 -250.209)"/>
                        <path id="Trazado_879427" data-name="Trazado 879427" d="M13.906,278.817H11.32c-.012.02-.024.037-.037.058q-.147.252-.293.548a4.262,4.262,0,0,0,2.916-.606" transform="translate(-5.375 -250.396)"/>
                        <path id="Trazado_879428" data-name="Trazado 879428" d="M9.97,250.9c-.419,0-1.947,1.044,0,3.984Z" transform="translate(-5.411 -250.904)"/>
                        <path id="Trazado_879429" data-name="Trazado 879429" d="M9.97,278.888V274.9c-.419,0-1.947,1.044,0,3.984" transform="translate(-5.411 -250.467)"/>
                        <path id="Trazado_879430" data-name="Trazado 879430" d="M8.979,255.454c-1.557-3.162-3.23-2.37-3.441-2.008s-.079,2.208,3.441,2.008" transform="translate(-5.475 -250.864)"/>
                        <path id="Trazado_879431" data-name="Trazado 879431" d="M8.065,278.057a3.581,3.581,0,0,0-.568-.549c-.024-.019-.049-.033-.073-.05q.466.687.968,1.384h.221a5.933,5.933,0,0,0-.548-.785" transform="translate(-5.439 -250.421)"/>
                        <path id="Trazado_879432" data-name="Trazado 879432" d="M8.634,278.875c-.012-.021-.024-.038-.037-.058H8.376c.145.2.3.405.446.608.037,0,.067,0,.1,0q-.147-.3-.293-.548" transform="translate(-5.422 -250.396)"/>
                      </g>
                    </g>
                  </g>
                </g>
              </g>
              <g id="Grupo_1101675" data-name="Grupo 1101675">
                <g id="Grupo_1101674" data-name="Grupo 1101674" clip-path="url(#clip-path-3)">
                  <path id="Trazado_879434" data-name="Trazado 879434" d="M11.476,232.662S.5,244.858.5,257.663s7.318,24.391,27.441,42.685,39.026,31.708,46.952,35.977,15.854-1.22,15.854-1.22,13.11,13.11,14.635,10.061-4.573-7.622-5.793-9.451a25.657,25.657,0,0,0-3.658-3.964s6.4.914,8.842,3.048,6.4,5.794,8.232,5.488,1.829-1.829-.915-5.488a32.489,32.489,0,0,0-7.927-7.317c-1.83-1.22-7.928-4.574-7.928-4.574s8.842-.61,11.892,1.22,11.281,7.317,11.891,4.878.609-3.964-2.44-6.708-9.146-6.1-12.8-6.707a38.428,38.428,0,0,1-7.318-2.134s7.012-2.44,9.452-2.44,12.2,4.878,14.939,4.268,1.22-3.048-.914-4.573-11.586-5.184-15.55-5.488-26.22,7.317-28.964,7.317-9.756-9.756-17.074-22.867-10.062-33.538-25.611-40.55" transform="translate(0.009 4.235)" fill="none" stroke="#263238" stroke-linecap="round" stroke-linejoin="round" stroke-width="1"/>
                  <path id="Trazado_879435" data-name="Trazado 879435" d="M120.727,310.151c-2.134-1.524-11.586-5.183-15.549-5.488s-26.221,7.318-28.965,7.318-9.756-9.756-17.074-22.867c-4.065-7.282-6.72-16.821-10.941-25.065-22.4-3.012-32.008,10.047-36.449,19.465a166.4,166.4,0,0,0,15.986,16.271c20.123,18.294,39.026,31.709,46.953,35.977s15.853-1.22,15.853-1.22,13.11,13.11,14.636,10.062-4.574-7.622-5.794-9.452a25.652,25.652,0,0,0-3.658-3.964s6.4.915,8.842,3.049,6.4,5.793,8.232,5.488,1.829-1.83-.915-5.488a32.475,32.475,0,0,0-7.927-7.318c-1.83-1.22-7.928-4.573-7.928-4.573s8.842-.61,11.892,1.219,11.281,7.318,11.891,4.878.61-3.963-2.44-6.707-9.146-6.1-12.8-6.708A38.433,38.433,0,0,1,97.25,312.9s7.012-2.44,9.452-2.44,12.195,4.878,14.939,4.269,1.22-3.049-.914-4.574" transform="translate(0.214 4.798)" fill="#f0956d"/>
                  <path id="Trazado_879436" data-name="Trazado 879436" d="M120.727,310.151c-2.134-1.524-11.586-5.183-15.549-5.488s-26.221,7.318-28.965,7.318-9.756-9.756-17.074-22.867c-4.065-7.282-6.72-16.821-10.941-25.065-22.4-3.012-32.008,10.047-36.449,19.465a166.4,166.4,0,0,0,15.986,16.271c20.123,18.294,39.026,31.709,46.953,35.977s15.853-1.22,15.853-1.22,13.11,13.11,14.636,10.062-4.574-7.622-5.794-9.452a25.652,25.652,0,0,0-3.658-3.964s6.4.915,8.842,3.049,6.4,5.793,8.232,5.488,1.829-1.83-.915-5.488a32.475,32.475,0,0,0-7.927-7.318c-1.83-1.22-7.928-4.573-7.928-4.573s8.842-.61,11.892,1.219,11.281,7.318,11.891,4.878.61-3.963-2.44-6.707-9.146-6.1-12.8-6.708A38.433,38.433,0,0,1,97.25,312.9s7.012-2.44,9.452-2.44,12.195,4.878,14.939,4.269S122.861,311.675,120.727,310.151Z" transform="translate(0.214 4.798)" fill="none" stroke="#263238" stroke-linecap="round" stroke-linejoin="round" stroke-width="1"/>
                  <path id="Trazado_879437" data-name="Trazado 879437" d="M248.969,247.11c-2.544-5.817-.363-18.54,2.181-36.717s5.09-36.717,5.09-46.533,1.626-23.447-1.573-27.81-14.832-16.286-15.7-21.812,6.98-13.959,6.98-13.959,2.327-4.363,4.362-2.036,1.164,5.236,0,9.305-2.327,7.271-2.327,7.271,10.179,3.2,12.8,1.454,2.387-11.7,2.2-16.568c-.372-9.51-4.183-5.451-6.823-.948-1.265,2.159-8.725.873-4.362-4.653s8.408-10.4,12.48-6.041,6.98,12.8,6.98,12.8,2.907-13.853,5.56-22,7.391-11.371,9.1-10.8,1.516,3.412-.189,7.392-5.5,14.972-6.443,18.572-1.137,7.771.757,7.392,8.529-11.94,10.423-16.869,4.739-9.475,7.96-11.561,5.875.57,4.548,3.981a173.8,173.8,0,0,1-8.907,18,77.9,77.9,0,0,0-5.307,11.752A132.787,132.787,0,0,1,298.6,97.24c4.548-3.79,9.476-4.548,10.993-3.222s.189,1.517-3.6,4.549-9.475,6.633-14.025,14.024a69.077,69.077,0,0,0-8.149,17.436,59.47,59.47,0,0,1-5.5,11.561s3.549,28.862,9.708,44.735,17.057,39.089,13.741,55.671-9.713,25.112-18.715,27.718a17.411,17.411,0,0,1-15.4-2.843" transform="translate(4.348 1.238)" fill="#f0c518"/>
                </g>
              </g>
              <g id="Grupo_1101680" data-name="Grupo 1101680" transform="translate(243.243 69.229)">
                <g id="Grupo_1101679" data-name="Grupo 1101679" clip-path="url(#clip-path-17)">
                  <g id="Grupo_1101678" data-name="Grupo 1101678" transform="translate(6.701 5.633)" opacity="0.2">
                    <g id="Grupo_1101677" data-name="Grupo 1101677">
                      <g id="Grupo_1101676" data-name="Grupo 1101676" clip-path="url(#clip-path-18)">
                        <path id="Trazado_879438" data-name="Trazado 879438" d="M297.953,82.9a1.11,1.11,0,0,1,.816.7h0a1.109,1.109,0,0,0-.816-.7" transform="translate(-244.521 -73.352)"/>
                        <path id="Trazado_879439" data-name="Trazado 879439" d="M297.953,82.9v2.382q.417-.851.816-1.68a1.11,1.11,0,0,0-.816-.7" transform="translate(-244.521 -73.352)"/>
                        <path id="Trazado_879440" data-name="Trazado 879440" d="M297.953,230.888c1.948-2.941.421-3.984,0-3.984.42,0,1.947,1.044,0,3.984" transform="translate(-244.521 -70.731)"/>
                        <path id="Trazado_879441" data-name="Trazado 879441" d="M301.267,231.195c-.019-.679-.05-1.361-.1-2.053-.631.17-1.416.769-2.177,2.311a5.544,5.544,0,0,0,2.277-.259" transform="translate(-244.502 -70.691)"/>
                        <path id="Trazado_879442" data-name="Trazado 879442" d="M297.953,226.9v3.984c1.947-2.941.42-3.984,0-3.984" transform="translate(-244.521 -70.731)"/>
                        <path id="Trazado_879443" data-name="Trazado 879443" d="M249.97,106.9c-.352,0-1.476.74-.681,2.715.259-.828.532-1.734.805-2.69a.45.45,0,0,0-.124-.024" transform="translate(-245.412 -72.915)"/>
                        <path id="Trazado_879444" data-name="Trazado 879444" d="M273.97,122.888c1.947-2.941.42-3.984,0-3.984s-1.947,1.044,0,3.984" transform="translate(-244.975 -72.697)"/>
                        <path id="Trazado_879445" data-name="Trazado 879445" d="M297.54,86.156c.144-.29.288-.581.43-.871V82.9c-.382,0-1.676.872-.43,3.252" transform="translate(-244.538 -73.352)"/>
                        <path id="Trazado_879446" data-name="Trazado 879446" d="M273.97,94.9c-.419,0-1.947,1.044,0,3.984,1.947-2.941.42-3.984,0-3.984" transform="translate(-244.975 -73.134)"/>
                        <path id="Trazado_879447" data-name="Trazado 879447" d="M254.327,134.295a.745.745,0,0,0-.7-1.207,1.578,1.578,0,0,0-.556.075c.418.509.79.972,1.1,1.381a1.515,1.515,0,0,0,.159-.249" transform="translate(-245.338 -72.439)"/>
                        <path id="Trazado_879448" data-name="Trazado 879448" d="M278.431,121.447c-.211-.363-1.884-1.156-3.441,2.008,3.52.2,3.651-1.644,3.441-2.008" transform="translate(-244.939 -72.657)"/>
                        <path id="Trazado_879449" data-name="Trazado 879449" d="M277.937,98.823a11.336,11.336,0,0,1,.027-1.677c-.648-.2-1.84.005-2.974,2.308a4.183,4.183,0,0,0,2.947-.631" transform="translate(-244.939 -73.094)"/>
                        <path id="Trazado_879450" data-name="Trazado 879450" d="M278.417,73.523c-.27.459-.533.956-.789,1.474a1.394,1.394,0,0,0,.789-1.474" transform="translate(-244.891 -73.523)"/>
                        <path id="Trazado_879451" data-name="Trazado 879451" d="M245.538,109.446c-.207.355-.075,2.119,3.213,2.013.029-.087.059-.179.088-.269-1.517-2.841-3.1-2.1-3.3-1.744" transform="translate(-245.476 -72.876)"/>
                        <path id="Trazado_879452" data-name="Trazado 879452" d="M269.538,121.447c-.213.363-.079,2.208,3.443,2.008-1.559-3.164-3.232-2.37-3.443-2.008" transform="translate(-245.039 -72.657)"/>
                        <path id="Trazado_879453" data-name="Trazado 879453" d="M293.538,85.446c-.212.362-.078,2.191,3.4,2.009l.021-.042c-1.552-3.113-3.209-2.329-3.419-1.967" transform="translate(-244.602 -73.313)"/>
                        <path id="Trazado_879454" data-name="Trazado 879454" d="M272.955,99.449a4.855,4.855,0,0,0-1.652-2.076c-.169.764-.31,1.4-.415,1.894a6.009,6.009,0,0,0,2.067.182" transform="translate(-245.014 -73.089)"/>
                        <path id="Trazado_879455" data-name="Trazado 879455" d="M270.157,98.907c-.166-.424-.369-.925-.6-1.484l-.014.017a1.283,1.283,0,0,0,.619,1.466" transform="translate(-245.039 -73.088)"/>
                        <path id="Trazado_879456" data-name="Trazado 879456" d="M273.97,194.888c1.947-2.941.42-3.984,0-3.984s-1.947,1.044,0,3.984" transform="translate(-244.975 -71.386)"/>
                        <path id="Trazado_879457" data-name="Trazado 879457" d="M273.97,166.9c-.419,0-1.947,1.044,0,3.984,1.947-2.941.42-3.984,0-3.984" transform="translate(-244.975 -71.823)"/>
                        <path id="Trazado_879458" data-name="Trazado 879458" d="M273.97,142.9c-.419,0-1.947,1.044,0,3.984,1.947-2.941.42-3.984,0-3.984" transform="translate(-244.975 -72.26)"/>
                        <path id="Trazado_879459" data-name="Trazado 879459" d="M254.411,181.552c-.026.218-.052.436-.077.656a1.12,1.12,0,0,0,.077-.656" transform="translate(-245.315 -71.557)"/>
                        <path id="Trazado_879460" data-name="Trazado 879460" d="M254.425,205.446c-.2-.337-1.655-1.042-3.111,1.4H253.9a1.25,1.25,0,0,0,.525-1.4" transform="translate(-245.37 -71.128)"/>
                        <path id="Trazado_879461" data-name="Trazado 879461" d="M274.991,195.454c3.519.2,3.651-1.643,3.44-2.008s-1.884-1.156-3.44,2.008" transform="translate(-244.939 -71.347)"/>
                        <path id="Trazado_879462" data-name="Trazado 879462" d="M278.431,169.447c-.211-.364-1.884-1.156-3.441,2.008,3.52.2,3.651-1.644,3.441-2.008" transform="translate(-244.939 -71.784)"/>
                        <path id="Trazado_879463" data-name="Trazado 879463" d="M274.991,147.454c2.588.148,3.341-.809,3.476-1.471-.032-.209-.06-.4-.089-.6-.353-.375-1.921-.906-3.388,2.074" transform="translate(-244.939 -72.22)"/>
                        <path id="Trazado_879464" data-name="Trazado 879464" d="M295.476,205.476c-.988-.709-1.8-.274-1.938-.03a1.25,1.25,0,0,0,.525,1.4h1.892q-.237-.687-.48-1.373" transform="translate(-244.602 -71.128)"/>
                        <path id="Trazado_879465" data-name="Trazado 879465" d="M269.538,193.447c-.213.363-.079,2.208,3.443,2.008-1.559-3.164-3.232-2.371-3.443-2.008" transform="translate(-245.039 -71.347)"/>
                        <path id="Trazado_879466" data-name="Trazado 879466" d="M269.538,169.447c-.213.363-.079,2.208,3.443,2.008-1.559-3.164-3.232-2.371-3.443-2.008" transform="translate(-245.039 -71.784)"/>
                        <path id="Trazado_879467" data-name="Trazado 879467" d="M269.538,145.446c-.213.363-.079,2.208,3.443,2.008-1.559-3.164-3.232-2.371-3.443-2.008" transform="translate(-245.039 -72.22)"/>
                        <path id="Trazado_879468" data-name="Trazado 879468" d="M273.97,262.9c-.4,0-1.779.936-.284,3.522.164.038.338.065.507.1,1.586-2.661.179-3.622-.223-3.622" transform="translate(-244.975 -70.076)"/>
                        <path id="Trazado_879469" data-name="Trazado 879469" d="M249.97,230.888c1.948-2.941.42-3.984,0-3.984s-1.947,1.044,0,3.984" transform="translate(-245.412 -70.731)"/>
                        <path id="Trazado_879470" data-name="Trazado 879470" d="M297.97,226.9c-.42,0-1.947,1.044,0,3.984Z" transform="translate(-244.538 -70.731)"/>
                        <path id="Trazado_879471" data-name="Trazado 879471" d="M273.97,242.888c1.947-2.941.42-3.984,0-3.984s-1.947,1.044,0,3.984" transform="translate(-244.975 -70.513)"/>
                        <path id="Trazado_879472" data-name="Trazado 879472" d="M273.97,214.9c-.419,0-1.947,1.044,0,3.984,1.947-2.941.42-3.984,0-3.984" transform="translate(-244.975 -70.95)"/>
                        <path id="Trazado_879473" data-name="Trazado 879473" d="M278.423,265.446c-.192-.33-1.588-1-3.009,1.242a17.03,17.03,0,0,0,2.525.124,1.237,1.237,0,0,0,.484-1.366" transform="translate(-244.931 -70.036)"/>
                        <path id="Trazado_879474" data-name="Trazado 879474" d="M250.99,231.454c3.52.2,3.653-1.643,3.44-2.008s-1.883-1.155-3.44,2.008" transform="translate(-245.376 -70.692)"/>
                        <path id="Trazado_879475" data-name="Trazado 879475" d="M274.991,243.454c3.519.2,3.651-1.643,3.44-2.008s-1.884-1.155-3.44,2.008" transform="translate(-244.939 -70.473)"/>
                        <path id="Trazado_879476" data-name="Trazado 879476" d="M278.431,217.446c-.211-.363-1.884-1.156-3.441,2.008,3.52.2,3.651-1.644,3.441-2.008" transform="translate(-244.939 -70.91)"/>
                        <path id="Trazado_879477" data-name="Trazado 879477" d="M293.538,253.446c-.164.28-.116,1.431,1.508,1.858.277-.487.551-.979.815-1.5-1.157-1.154-2.163-.634-2.323-.358" transform="translate(-244.602 -70.255)"/>
                        <path id="Trazado_879478" data-name="Trazado 879478" d="M270.1,265.116a17.994,17.994,0,0,0,1.785.728,1.951,1.951,0,0,0-1.785-.728" transform="translate(-245.028 -70.036)"/>
                        <path id="Trazado_879479" data-name="Trazado 879479" d="M248.936,231.437a6.722,6.722,0,0,0-.908-1.422c-.045.484-.081.951-.118,1.416a8.1,8.1,0,0,0,1.026.006" transform="translate(-245.432 -70.675)"/>
                        <path id="Trazado_879480" data-name="Trazado 879480" d="M296.979,231.454c-1.557-3.163-3.23-2.37-3.441-2.008s-.079,2.208,3.441,2.008" transform="translate(-244.602 -70.692)"/>
                        <path id="Trazado_879481" data-name="Trazado 879481" d="M269.538,241.446c-.213.364-.079,2.208,3.443,2.008-1.559-3.164-3.232-2.371-3.443-2.008" transform="translate(-245.039 -70.473)"/>
                        <path id="Trazado_879482" data-name="Trazado 879482" d="M269.538,217.446c-.213.363-.079,2.209,3.443,2.008-1.559-3.164-3.232-2.371-3.443-2.008" transform="translate(-245.039 -70.91)"/>
                        <path id="Trazado_879483" data-name="Trazado 879483" d="M251.32,206.817c-.109.183-.219.381-.328.6v.005a4.259,4.259,0,0,0,2.913-.606Z" transform="translate(-245.376 -71.097)"/>
                        <path id="Trazado_879484" data-name="Trazado 879484" d="M295.946,206.817h-1.893a3.582,3.582,0,0,0,2.1.61c-.07-.2-.142-.406-.212-.61" transform="translate(-244.592 -71.097)"/>
                      </g>
                    </g>
                  </g>
                </g>
              </g>
              <g id="Grupo_1101682" data-name="Grupo 1101682">
                <g id="Grupo_1101681" data-name="Grupo 1101681" clip-path="url(#clip-path-3)">
                  <path id="Trazado_879486" data-name="Trazado 879486" d="M248.969,247.11c-2.544-5.817-.363-18.54,2.181-36.717s5.09-36.717,5.09-46.533,1.626-23.447-1.573-27.81-14.832-16.286-15.7-21.812,6.98-13.959,6.98-13.959,2.327-4.363,4.362-2.036,1.164,5.236,0,9.305-2.327,7.271-2.327,7.271,10.179,3.2,12.8,1.454,2.387-11.7,2.2-16.568c-.372-9.51-4.183-5.451-6.823-.948-1.265,2.159-8.725.873-4.362-4.653s8.408-10.4,12.48-6.041,6.98,12.8,6.98,12.8,2.907-13.853,5.56-22,7.391-11.371,9.1-10.8,1.516,3.412-.189,7.392-5.5,14.972-6.443,18.572-1.137,7.771.757,7.392,8.529-11.94,10.423-16.869,4.739-9.475,7.96-11.561,5.875.57,4.548,3.981a173.8,173.8,0,0,1-8.907,18,77.9,77.9,0,0,0-5.307,11.752A132.787,132.787,0,0,1,298.6,97.24c4.548-3.79,9.476-4.548,10.993-3.222s.189,1.517-3.6,4.549-9.475,6.633-14.025,14.024a69.077,69.077,0,0,0-8.149,17.436,59.47,59.47,0,0,1-5.5,11.561s3.549,28.862,9.708,44.735,17.057,39.089,13.741,55.671-9.713,25.112-18.715,27.718a17.411,17.411,0,0,1-15.4-2.843" transform="translate(4.348 1.238)" fill="none" stroke="#263238" stroke-linecap="round" stroke-linejoin="round" stroke-width="1"/>
                  <path id="Trazado_879487" data-name="Trazado 879487" d="M291.966,112.591C296.514,105.2,302.2,101.6,305.99,98.567s5.117-3.222,3.6-4.548-6.443-.568-10.991,3.222a132.878,132.878,0,0,0-9.855,9.476,77.7,77.7,0,0,1,5.307-11.75,174.041,174.041,0,0,0,8.907-18c1.327-3.411-1.327-6.064-4.549-3.98s-6.064,6.634-7.959,11.561-8.528,16.489-10.423,16.868-1.705-3.79-.759-7.391,4.738-14.593,6.444-18.573,1.895-6.823.189-7.391-6.444,2.653-9.1,10.8-5.56,22-5.56,22-2.908-8.434-6.98-12.8-8.117.514-12.48,6.04,3.1,6.812,4.363,4.653c2.639-4.5,6.45-8.561,6.823.948.19,4.871.422,14.825-2.2,16.57s-12.8-1.455-12.8-1.455,1.164-3.2,2.327-7.27,2.036-6.98,0-9.307-4.362,2.036-4.362,2.036-7.852,8.434-6.981,13.96,12.507,17.45,15.706,21.812,1.572,17.995,1.572,27.81-2.545,28.356-5.089,46.533c-.034.237-.065.463-.1.7,4.021,4.223,12.245,10.285,26.079,9.818,9.286-.313,15.858-4.991,20.309-10.129-2.955-8.788-6.656-17.358-9.411-24.458-6.159-15.872-9.708-44.735-9.708-44.735a59.43,59.43,0,0,0,5.5-11.561,69.116,69.116,0,0,1,8.15-17.436" transform="translate(4.348 1.238)" fill="#f0956d"/>
                  <path id="Trazado_879488" data-name="Trazado 879488" d="M291.966,112.591C296.514,105.2,302.2,101.6,305.99,98.567s5.117-3.222,3.6-4.548-6.443-.568-10.991,3.222a132.878,132.878,0,0,0-9.855,9.476,77.7,77.7,0,0,1,5.307-11.75,174.041,174.041,0,0,0,8.907-18c1.327-3.411-1.327-6.064-4.549-3.98s-6.064,6.634-7.959,11.561-8.528,16.489-10.423,16.868-1.705-3.79-.759-7.391,4.738-14.593,6.444-18.573,1.895-6.823.189-7.391-6.444,2.653-9.1,10.8-5.56,22-5.56,22-2.908-8.434-6.98-12.8-8.117.514-12.48,6.04,3.1,6.812,4.363,4.653c2.639-4.5,6.45-8.561,6.823.948.19,4.871.422,14.825-2.2,16.57s-12.8-1.455-12.8-1.455,1.164-3.2,2.327-7.27,2.036-6.98,0-9.307-4.362,2.036-4.362,2.036-7.852,8.434-6.981,13.96,12.507,17.45,15.706,21.812,1.572,17.995,1.572,27.81-2.545,28.356-5.089,46.533c-.034.237-.065.463-.1.7,4.021,4.223,12.245,10.285,26.079,9.818,9.286-.313,15.858-4.991,20.309-10.129-2.955-8.788-6.656-17.358-9.411-24.458-6.159-15.872-9.708-44.735-9.708-44.735a59.43,59.43,0,0,0,5.5-11.561A69.116,69.116,0,0,1,291.966,112.591Z" transform="translate(4.348 1.238)" fill="none" stroke="#263238" stroke-linecap="round" stroke-linejoin="round" stroke-width="1"/>
                  <path id="Trazado_879489" data-name="Trazado 879489" d="M263.666,139.471s-1.705-7.2.759-11.75a12.79,12.79,0,0,1,6.064-5.875" transform="translate(4.789 2.218)" fill="none" stroke="#263238" stroke-linecap="round" stroke-linejoin="round" stroke-width="1"/>
                </g>
              </g>
            </g>
          </g>
        </g>
      </g>
    </g>
  </g>
</svg>
