<svg xmlns="http://www.w3.org/2000/svg" xmlns:xlink="http://www.w3.org/1999/xlink" width="86" height="86" viewBox="0 0 86 86">
  <defs>
    <filter id="Elipse_11513" x="0" y="0" width="86" height="86" filterUnits="userSpaceOnUse">
      <feOffset dy="3" input="SourceAlpha"/>
      <feGaussianBlur stdDeviation="3" result="blur"/>
      <feFlood flood-opacity="0.161"/>
      <feComposite operator="in" in2="blur"/>
      <feComposite in="SourceGraphic"/>
    </filter>
  </defs>
  <g id="Grupo_1147118" data-name="Grupo 1147118" transform="translate(-187 -2191.8)">
    <g id="Grupo_1145744" data-name="Grupo 1145744" transform="translate(1.138 -6040.75)">
      <g id="Grupo_1144077" data-name="Grupo 1144077" transform="translate(-1.138 7782.55)">
        <g id="Grupo_1143465" data-name="Grupo 1143465" transform="translate(0 -707)">
          <g transform="matrix(1, 0, 0, 1, 187, 1157)" filter="url(#Elipse_11513)">
            <g id="Elipse_11513-2" data-name="Elipse 11513" transform="translate(9 6)" fill="#e6f0fc" stroke="#1169e3" stroke-width="3">
              <circle cx="34" cy="34" r="34" stroke="none"/>
              <circle cx="34" cy="34" r="32.5" fill="none"/>
            </g>
          </g>
        </g>
      </g>
    </g>
    <g id="privacidad" transform="translate(206.842 2203.278)">
      <path id="Trazado_982441" data-name="Trazado 982441" d="M41.281,186a13.526,13.526,0,0,1-26.669-4.429H7.5v22.815a1.357,1.357,0,0,0,1.357,1.357h4.9v-3.863a1.268,1.268,0,0,1,1.266-1.266H41.02a1.268,1.268,0,0,1,1.266,1.266v3.863h4.9a1.357,1.357,0,0,0,1.357-1.357V186Z" transform="translate(-6.822 -159.782)" fill="#f2fbff"/>
      <path id="Trazado_982442" data-name="Trazado 982442" d="M405.357,230.525v18.386A1.357,1.357,0,0,1,404,250.268h3.82a1.357,1.357,0,0,0,1.357-1.357V230.525Z" transform="translate(-367.453 -204.308)" fill="#dff6fd"/>
      <path id="Trazado_982443" data-name="Trazado 982443" d="M16.523,122.248H8.857A1.357,1.357,0,0,0,7.5,123.6v4.1h7.1A13.436,13.436,0,0,1,16.523,122.248Z" transform="translate(-6.822 -105.826)" fill="#fd4755"/>
      <g id="Grupo_1147105" data-name="Grupo 1147105" transform="translate(7.678 10.016)">
        <path id="Trazado_982444" data-name="Trazado 982444" d="M109.145,67.636a.9.9,0,0,1-.9-.9V57.691a.9.9,0,0,1,.9-.9h.024a13.522,13.522,0,1,0,2.483,10.85h-2.507Z" transform="translate(-84.871 -51.435)" fill="#fff"/>
        <path id="Trazado_982445" data-name="Trazado 982445" d="M225.624,67.636a.9.9,0,0,1-.9-.9V57.691a.9.9,0,0,1,.9-.9h.024a13.533,13.533,0,0,0-12.713-5.212,13.525,13.525,0,0,1,0,26.77,13.532,13.532,0,0,0,15.2-10.707Z" transform="translate(-201.35 -51.435)" fill="#f5f8f9"/>
        <g id="Grupo_1147104" data-name="Grupo 1147104" transform="translate(4.682 4.356)">
          <path id="Trazado_982446" data-name="Trazado 982446" d="M148.981,255.706a6.983,6.983,0,0,1-7.02,0,9.574,9.574,0,0,0-5.331,5.278,13.524,13.524,0,0,0,17.682,0A9.574,9.574,0,0,0,148.981,255.706Z" transform="translate(-136.63 -241.583)" fill="#26a6fe"/>
          <path id="Trazado_982447" data-name="Trazado 982447" d="M246.806,255.706a6.941,6.941,0,0,1-2.621.888,12.182,12.182,0,0,1,5.658,5.992,13.551,13.551,0,0,0,2.294-1.6A9.574,9.574,0,0,0,246.806,255.706Z" transform="translate(-234.455 -241.583)" fill="#0593fc"/>
          <g id="Grupo_1147102" data-name="Grupo 1147102" transform="translate(0.781 0)">
            <ellipse id="Elipse_11625" data-name="Elipse 11625" cx="6.989" cy="6.989" rx="6.989" ry="6.989" transform="translate(0 13.783) rotate(-80.218)" fill="#60b7ff"/>
          </g>
          <g id="Grupo_1147103" data-name="Grupo 1147103" transform="translate(7.32 1.091)">
            <path id="Trazado_982448" data-name="Trazado 982448" d="M219.073,111.648a7.009,7.009,0,0,0-1.521.168,6.989,6.989,0,0,1,0,13.642,6.989,6.989,0,1,0,1.521-13.81Z" transform="translate(-217.552 -111.648)" fill="#26a6fe"/>
          </g>
        </g>
      </g>
      <g id="Grupo_1147108" data-name="Grupo 1147108" transform="translate(6.847 40.74)">
        <g id="Grupo_1147106" data-name="Grupo 1147106">
          <path id="Trazado_982449" data-name="Trazado 982449" d="M103.041,400.8H77.047a1.357,1.357,0,0,1-1.357-1.357v-7.014a1.357,1.357,0,0,1,1.357-1.357h25.994a1.357,1.357,0,0,1,1.357,1.357v7.014A1.357,1.357,0,0,1,103.041,400.8Z" transform="translate(-75.69 -391.074)" fill="#00f2a6"/>
        </g>
        <g id="Grupo_1147107" data-name="Grupo 1147107" transform="translate(22.766)">
          <path id="Trazado_982450" data-name="Trazado 982450" d="M331.932,391.074h-4.586a1.357,1.357,0,0,1,1.357,1.357v7.014a1.357,1.357,0,0,1-1.357,1.357h4.586a1.357,1.357,0,0,0,1.357-1.357v-7.014A1.357,1.357,0,0,0,331.932,391.074Z" transform="translate(-327.346 -391.074)" fill="#05e39c"/>
        </g>
      </g>
      <g id="Grupo_1147116" data-name="Grupo 1147116" transform="translate(31.047 6.574)">
        <g id="Grupo_1147115" data-name="Grupo 1147115" transform="translate(0 0)">
          <g id="Grupo_1147109" data-name="Grupo 1147109" transform="translate(1.777)">
            <path id="Trazado_982451" data-name="Trazado 982451" d="M368.368,13.4a5.519,5.519,0,0,0-5.519,5.519v3.364h2.806V18.915a2.712,2.712,0,1,1,5.425,0v3.364h2.806V18.915a5.518,5.518,0,0,0-5.518-5.519Z" transform="translate(-362.849 -13.396)" fill="#c5d3dd"/>
          </g>
          <g id="Grupo_1147112" data-name="Grupo 1147112" transform="translate(3.058)">
            <g id="Grupo_1147110" data-name="Grupo 1147110" transform="translate(0 2.806)">
              <path id="Trazado_982452" data-name="Trazado 982452" d="M379.725,44.414a2.716,2.716,0,0,0-2.712,2.712v3.364h1.525V47.127a2.717,2.717,0,0,1,1.95-2.6A2.7,2.7,0,0,0,379.725,44.414Z" transform="translate(-377.013 -44.414)" fill="#b6c4cf"/>
            </g>
            <g id="Grupo_1147111" data-name="Grupo 1147111" transform="translate(3.475)">
              <path id="Trazado_982453" data-name="Trazado 982453" d="M416.187,13.4a5.561,5.561,0,0,0-.762.054,5.519,5.519,0,0,1,4.756,5.465v3.364h1.525V18.915a5.519,5.519,0,0,0-5.519-5.519Z" transform="translate(-415.425 -13.396)" fill="#b6c4cf"/>
            </g>
          </g>
          <g id="Grupo_1147113" data-name="Grupo 1147113" transform="translate(0 8.792)">
            <path id="Trazado_982454" data-name="Trazado 982454" d="M356.891,121.437H344.109a.9.9,0,0,1-.9-.9v-9.041a.9.9,0,0,1,.9-.9h12.782a.9.9,0,0,1,.9.9v9.041A.9.9,0,0,1,356.891,121.437Z" transform="translate(-343.204 -110.587)" fill="#ffe177"/>
          </g>
          <g id="Grupo_1147114" data-name="Grupo 1147114" transform="translate(9.869 8.792)">
            <path id="Trazado_982455" data-name="Trazado 982455" d="M456.113,110.587h-3.818a.9.9,0,0,1,.9.9v9.041a.9.9,0,0,1-.9.9h3.818a.9.9,0,0,0,.9-.9v-9.041A.9.9,0,0,0,456.113,110.587Z" transform="translate(-452.295 -110.587)" fill="#ffd15b"/>
          </g>
        </g>
      </g>
      <g id="Grupo_1147117" data-name="Grupo 1147117" transform="translate(0 5.896)">
        <path id="Trazado_982456" data-name="Trazado 982456" d="M203.663,177.414a.678.678,0,0,0,.678-.678V175.42a.678.678,0,1,0-1.357,0v1.315A.679.679,0,0,0,203.663,177.414Z" transform="translate(-184.622 -159.468)"/>
        <path id="Trazado_982457" data-name="Trazado 982457" d="M251.418,177.414a.678.678,0,0,0,.678-.678V175.42a.678.678,0,1,0-1.357,0v1.315A.678.678,0,0,0,251.418,177.414Z" transform="translate(-228.057 -159.468)"/>
        <circle id="Elipse_11626" data-name="Elipse 11626" cx="1.357" cy="1.357" r="1.357" transform="translate(11.303 38.529)"/>
        <circle id="Elipse_11627" data-name="Elipse 11627" cx="1.357" cy="1.357" r="1.357" transform="translate(16.997 38.529)"/>
        <circle id="Elipse_11628" data-name="Elipse 11628" cx="1.357" cy="1.357" r="1.357" transform="translate(22.691 38.529)"/>
        <circle id="Elipse_11629" data-name="Elipse 11629" cx="1.357" cy="1.357" r="1.357" transform="translate(28.385 38.529)"/>
        <path id="Trazado_982458" data-name="Trazado 982458" d="M44.734,14.688H44.54v-2.6a6.2,6.2,0,1,0-12.394,0V14.5a14.186,14.186,0,0,0-22.81,1.242h-7.3A2.038,2.038,0,0,0,0,17.779v19.7a.678.678,0,1,0,1.357,0V22.557H7.034c-.022.325-.035.652-.035.982A14.2,14.2,0,0,0,35,26.9h6.044V44.6a.679.679,0,0,1-.678.678H36.234V42.1A2.038,2.038,0,0,0,34.2,40.062H28.767a.678.678,0,0,0,0,1.357H34.2a.679.679,0,0,1,.678.678v7.014a.679.679,0,0,1-.678.678H8.2a.679.679,0,0,1-.678-.678V42.1a.679.679,0,0,1,.678-.678H25.6a.678.678,0,0,0,0-1.357H8.2A2.038,2.038,0,0,0,6.169,42.1v3.184H2.035a.679.679,0,0,1-.678-.678v-3.96a.678.678,0,0,0-1.357,0V44.6a2.038,2.038,0,0,0,2.035,2.035H6.169v2.472A2.038,2.038,0,0,0,8.2,51.146H34.2a2.038,2.038,0,0,0,2.035-2.035V46.639h4.133A2.038,2.038,0,0,0,42.4,44.6V26.9h2.332a1.585,1.585,0,0,0,1.583-1.583V16.271A1.585,1.585,0,0,0,44.734,14.688ZM33.5,12.093a4.84,4.84,0,1,1,9.68,0v2.6H41.734v-2.6a3.391,3.391,0,1,0-6.782,0v2.6H33.5Zm6.874,0v2.6H36.309v-2.6a2.034,2.034,0,1,1,4.068,0ZM1.357,21.2V17.779a.679.679,0,0,1,.678-.678H8.545a14.091,14.091,0,0,0-1.352,4.1ZM21.2,36.384a12.783,12.783,0,0,1-8.012-2.813,8.825,8.825,0,0,1,4.46-4.328,7.642,7.642,0,0,0,7.1,0,8.825,8.825,0,0,1,4.46,4.328A12.783,12.783,0,0,1,21.2,36.384Zm9.06-3.748a10.177,10.177,0,0,0-4.2-4.261,7.666,7.666,0,1,0-12.386-7.4.678.678,0,1,0,1.332.26,6.31,6.31,0,1,1,.1,2.86.678.678,0,0,0-1.31.352,7.645,7.645,0,0,0,2.541,3.93,10.178,10.178,0,0,0-4.2,4.261A12.839,12.839,0,1,1,30.883,15.107a1.578,1.578,0,0,0-.514,1.164v9.041A1.585,1.585,0,0,0,31.952,26.9H33.6a12.851,12.851,0,0,1-3.338,5.741Zm14.7-7.325a.226.226,0,0,1-.226.226H31.952a.226.226,0,0,1-.226-.226V16.271a.226.226,0,0,1,.226-.226H44.734a.226.226,0,0,1,.226.226Z" transform="translate(0 -5.896)"/>
        <path id="Trazado_982459" data-name="Trazado 982459" d="M417.031,145.479a.678.678,0,0,0-.678.678v2.058a.678.678,0,1,0,1.357,0v-2.058A.678.678,0,0,0,417.031,145.479Z" transform="translate(-378.688 -132.852)"/>
      </g>
    </g>
  </g>
</svg>
